{
classes = (
{
code = "zero one two three four five six seven eight nine parenleft parenright";
name = standard;
},
{
code = "zerosuperior onesuperior twosuperior threesuperior foursuperior fivesuperior sixsuperior sevensuperior eightsuperior ninesuperior parenleftsuperior parenrightsuperior";
name = sups;
},
{
code = "zeroinferior oneinferior twoinferior threeinferior fourinferior fiveinferior sixinferior seveninferior eightinferior nineinferior parenleftinferior parenrightinferior";
name = subs;
},
{
code = "zero.numerator one.numerator two.numerator three.numerator four.numerator five.numerator six.numerator seven.numerator eight.numerator nine.numerator parenleft.numerator parenright.numerator";
name = numerator;
},
{
code = "zero.denominator one.denominator two.denominator three.denominator four.denominator five.denominator six.denominator seven.denominator eight.denominator nine.denominator parenleft.denominator parenright.denominator";
name = denominator;
},
{
code = "zero.otlf one.otlf two.otlf three.otlf four.otlf five.otlf six.otlf seven.otlf eight.otlf nine.otlf parenleft.otlf parenright.otlf";
name = tnum1;
}
);
copyright = "Copyright (c) 2015 by Hubert & Fischer. All rights reserved.";
customParameters = (
{
name = macintoshFONDFamilyID;
value = 128;
},
{
name = openTypeHeadFlags;
value = (
);
},
{
name = openTypeNameDescription;
value = "";
},
{
name = openTypeNameLicense;
value = "This Font Software is licensed under the SIL Open Font License, Version 1.1. This license is available with a FAQ at: http://scripts.sil.org/OFL";
},
{
name = openTypeNameLicenseURL;
value = "http://scripts.sil.org/OFL";
},
{
name = openTypeNameSampleText;
value = "";
},
{
name = openTypeNameUniqueID;
value = "Hubert&Fischer: Rubik Light: 2015";
},
{
name = openTypeNameVersion;
value = "Version 1.002";
},
{
name = openTypeOS2CodePageRanges;
value = (
    0,
    1,
    2,
    4,
    5,
    7
);
},
{
name = openTypeOS2FamilyClass;
value = (
    0,
    0
);
},
{

glyphs = (
{
glyphname = A;
lastChange = "2015-11-17 17:19:16 +0000";
layers = (
{
guideLines = (
{
position = "{-230, 680}";
},
{
angle = 90;
position = "{-195, 0}";
},
{
angle = 90;
position = "{407, 0}";
},
{
angle = 90;
position = "{106, 0}";
}
);
hints = (
{
horizontal = 1;
place = "{-195.000000, 0.000000}";
type = Tag;
name = hr00;
}
);
layerId = "581BC726-83A6-4935-8633-5A6508251040";
name = "Light Italic";
paths = (
{
closed = 1;
nodes = (
"14 0 LINE SMOOTH",
"27 0 OFFCURVE",
"36 10 OFFCURVE",
"39 15 CURVE SMOOTH",
"135 175 LINE",
"489 175 LINE",
"517 15 LINE SMOOTH",
"518 10 OFFCURVE",
"523 0 OFFCURVE",
"536 0 CURVE SMOOTH",
"556 0 LINE SMOOTH",
"567 0 OFFCURVE",
"578 9 OFFCURVE",
"580 20 CURVE SMOOTH",
"581 22 OFFCURVE",
"581 28 OFFCURVE",
"581 31 CURVE SMOOTH",
"466 680 LINE SMOOTH",
"463 693 OFFCURVE",
"457 700 OFFCURVE",
"441 700 CURVE SMOOTH",
"407 700 LINE SMOOTH",
"391 700 OFFCURVE",
"381 693 OFFCURVE",
"374 680 CURVE SMOOTH",
"-17 31 LINE SMOOTH",
"-19 28 OFFCURVE",
"-21 22 OFFCURVE",
"-22 20 CURVE SMOOTH",
"-24 9 OFFCURVE",
"-17 0 OFFCURVE",
"-6 0 CURVE SMOOTH"
);
},
{
closed = 1;
nodes = (
"409 629 LINE",
"478 235 LINE",
"172 235 LINE"
);
}
);
width = 650;
},
{
hints = (
{
horizontal = 1;
place = "{9223372036854775808.000000, 0.000000}";
type = Tag;
name = hr00;
}
);
layerId = "EC64484B-0978-4CB1-9EE9-C40A2D8C4059";
name = "Bold Italic";
paths = (
{
closed = 1;
nodes = (
"157 0 LINE SMOOTH",
"183 0 OFFCURVE",
"195 14 OFFCURVE",
"201 25 CURVE SMOOTH",
"239 91 LINE",
"454 91 LINE",
"464 25 LINE SMOOTH",
"466 14 OFFCURVE",
"472 0 OFFCURVE",
"498 0 CURVE SMOOTH",
"683 0 LINE SMOOTH",
"695 0 OFFCURVE",
"707 10 OFFCURVE",
"710 22 CURVE SMOOTH",
"710 24 OFFCURVE",
"711 26 OFFCURVE",
"710 29 CURVE SMOOTH",
"623 667 LINE",
"622 682 OFFCURVE",
"612 700 OFFCURVE",
"585 700 CURVE SMOOTH",
"368 700 LINE SMOOTH",
"341 700 OFFCURVE",
"323 682 OFFCURVE",
"316 667 CURVE",
"-43 29 LINE SMOOTH",
"-44 26 OFFCURVE",
"-45 24 OFFCURVE",
"-45 22 CURVE SMOOTH",
"-48 10 OFFCURVE",
"-40 0 OFFCURVE",
"-28 0 CURVE SMOOTH"
);
},
{
closed = 1;
nodes = (
"427 472 LINE",
"445 286 LINE",
"332 286 LINE"
);
}
);
width = 755;
}
);
leftKerningGroup = A;
rightKerningGroup = A;
unicode = 0041;
userData = {
com.typemytype.robofont.guides = (
{
angle = 0;
isGlobal = 0;
magnetic = 5;
x = 0;
y = 680;
},
{
angle = 90;
isGlobal = 0;
magnetic = 5;
x = 35;
y = 0;
},
{
angle = 90;
isGlobal = 0;
magnetic = 5;
x = 637;
y = 0;
},
{
angle = 90;
isGlobal = 0;
magnetic = 5;
x = 336;
y = 0;
}
);
};
},
{
glyphname = Aogonek;
lastChange = "2015-11-17 17:19:16 +0000";
layers = (
{
hints = (
{
horizontal = 1;
place = "{-430.000000, 0.000000}";
type = Tag;
name = hr00;
}
);
layerId = "581BC726-83A6-4935-8633-5A6508251040";
name = "Light Italic";
paths = (
{
closed = 1;
nodes = (
"495 -220 LINE SMOOTH",
"508 -220 OFFCURVE",
"519 -211 OFFCURVE",
"522 -198 CURVE SMOOTH",
"525 -185 LINE SMOOTH",
"527 -172 OFFCURVE",
"520 -163 OFFCURVE",
"507 -163 CURVE SMOOTH",
"492 -163 LINE SMOOTH",
"448 -163 OFFCURVE",
"423 -133 OFFCURVE",
"434 -82 CURVE SMOOTH",
"444 -31 OFFCURVE",
"483 0 OFFCURVE",
"527 0 CURVE SMOOTH",
"556 0 LINE SMOOTH",
"567 0 OFFCURVE",
"578 9 OFFCURVE",
"580 20 CURVE SMOOTH",
"581 22 OFFCURVE",
"581 28 OFFCURVE",
"581 31 CURVE SMOOTH",
"466 680 LINE SMOOTH",
"463 693 OFFCURVE",
"457 700 OFFCURVE",
"441 700 CURVE SMOOTH",
"407 700 LINE SMOOTH",
"391 700 OFFCURVE",
"381 693 OFFCURVE",
"374 680 CURVE SMOOTH",
"-17 31 LINE SMOOTH",
"-19 28 OFFCURVE",
"-21 22 OFFCURVE",
"-22 20 CURVE SMOOTH",
"-24 9 OFFCURVE",
"-17 0 OFFCURVE",
"-6 0 CURVE SMOOTH",
"14 0 LINE SMOOTH",
"27 0 OFFCURVE",
"36 10 OFFCURVE",
"39 15 CURVE SMOOTH",
"135 175 LINE",
"489 175 LINE",
"510 55 LINE",
"442 45 OFFCURVE",
"390 -6 OFFCURVE",
"374 -82 CURVE SMOOTH",
"356 -167 OFFCURVE",
"395 -220 OFFCURVE",
"476 -220 CURVE SMOOTH"
);
},
{
closed = 1;
nodes = (
"409 629 LINE",
"478 235 LINE",
"172 235 LINE"
);
}
);
width = 650;
},
{
guideLines = (
{
position = "{-100, -220}";
}
);
hints = (
{
horizontal = 1;
place = "{9223372036854775808.000000, 0.000000}";
type = Tag;
name = hr01;
}
);
layerId = "EC64484B-0978-4CB1-9EE9-C40A2D8C4059";
name = "Bold Italic";
paths = (
{
closed = 1;
nodes = (
"621 -220 LINE SMOOTH",
"636 -220 OFFCURVE",
"651 -208 OFFCURVE",
"654 -193 CURVE SMOOTH",
"668 -125 LINE SMOOTH",
"672 -110 OFFCURVE",
"662 -98 OFFCURVE",
"647 -98 CURVE SMOOTH",
"637 -98 LINE SMOOTH",
"598 -98 OFFCURVE",
"593 -70 OFFCURVE",
"598 -49 CURVE SMOOTH",
"602 -29 OFFCURVE",
"618 -2 OFFCURVE",
"652 0 CURVE",
"683 0 LINE SMOOTH",
"695 0 OFFCURVE",
"707 10 OFFCURVE",
"710 22 CURVE SMOOTH",
"710 24 OFFCURVE",
"711 26 OFFCURVE",
"710 29 CURVE SMOOTH",
"623 667 LINE",
"622 682 OFFCURVE",
"612 700 OFFCURVE",
"585 700 CURVE SMOOTH",
"368 700 LINE SMOOTH",
"341 700 OFFCURVE",
"323 682 OFFCURVE",
"316 667 CURVE",
"-43 29 LINE SMOOTH",
"-44 26 OFFCURVE",
"-45 24 OFFCURVE",
"-45 22 CURVE SMOOTH",
"-48 10 OFFCURVE",
"-40 0 OFFCURVE",
"-28 0 CURVE SMOOTH",
"157 0 LINE SMOOTH",
"183 0 OFFCURVE",
"195 14 OFFCURVE",
"201 25 CURVE SMOOTH",
"239 91 LINE",
"454 91 LINE",
"464 25 LINE SMOOTH",
"465 15 OFFCURVE",
"470 3 OFFCURVE",
"487 0 CURVE",
"481 -15 OFFCURVE",
"475 -31 OFFCURVE",
"472 -49 CURVE SMOOTH",
"451 -144 OFFCURVE",
"486 -220 OFFCURVE",
"607 -220 CURVE SMOOTH"
);
},
{
closed = 1;
nodes = (
"427 472 LINE",
"445 286 LINE",
"332 286 LINE"
);
}
);
width = 755;
}
);
leftKerningGroup = A;
rightKerningGroup = A;
unicode = 0104;
},
{
glyphname = AE;
lastChange = "2015-11-17 17:19:16 +0000";
layers = (
{
guideLines = (
{
position = "{-230, 505}";
},
{
angle = 90;
position = "{201, 0}";
}
);
hints = (
{
horizontal = 1;
place = "{-190.000000, 0.000000}";
type = Tag;
name = hr00;
}
);
layerId = "581BC726-83A6-4935-8633-5A6508251040";
name = "Light Italic";
paths = (
{
closed = 1;
nodes = (
"-2 0 LINE SMOOTH",
"7 0 OFFCURVE",
"16 6 OFFCURVE",
"23 15 CURVE",
"23 15 OFFCURVE",
"25 17 OFFCURVE",
"147 175 CURVE",
"409 175 LINE",
"377 22 LINE SMOOTH",
"374 9 OFFCURVE",
"381 0 OFFCURVE",
"394 0 CURVE SMOOTH",
"792 0 LINE SMOOTH",
"806 0 OFFCURVE",
"817 9 OFFCURVE",
"820 22 CURVE SMOOTH",
"823 37 LINE SMOOTH",
"826 51 OFFCURVE",
"819 60 OFFCURVE",
"805 60 CURVE SMOOTH",
"448 60 LINE",
"504 325 LINE",
"831 325 LINE SMOOTH",
"845 325 OFFCURVE",
"856 334 OFFCURVE",
"859 347 CURVE SMOOTH",
"862 362 LINE SMOOTH",
"865 376 OFFCURVE",
"858 385 OFFCURVE",
"844 385 CURVE SMOOTH",
"517 385 LINE",
"571 640 LINE",
"920 640 LINE SMOOTH",
"934 640 OFFCURVE",
"945 649 OFFCURVE",
"948 662 CURVE SMOOTH",
"951 677 LINE SMOOTH",
"954 691 OFFCURVE",
"947 700 OFFCURVE",
"933 700 CURVE SMOOTH",
"500 700 LINE SMOOTH",
"491 700 OFFCURVE",
"481 696 OFFCURVE",
"470 681 CURVE SMOOTH",
"-23 49 OFFCURVE",
"-34 34 OFFCURVE",
"-34 34 CURVE",
"-37 30 OFFCURVE",
"-40 25 OFFCURVE",
"-41 20 CURVE SMOOTH",
"-43 9 OFFCURVE",
"-36 0 OFFCURVE",
"-25 0 CURVE SMOOTH"
);
},
{
closed = 1;
nodes = (
"507 633 LINE",
"422 235 LINE",
"194 235 LINE"
);
}
);
width = 920;
},
{
guideLines = (
{
position = "{-100, 505}";
}
);
hints = (
{
horizontal = 1;
place = "{9223372036854775808.000000, 0.000000}";
type = Tag;
name = hr01;
},
{
horizontal = 1;
place = "{9223372036854775808.000000, 0.000000}";
type = Tag;
name = hr02;
},
{
horizontal = 1;
place = "{9223372036854775808.000000, 0.000000}";
type = Tag;
name = hr03;
}
);
layerId = "EC64484B-0978-4CB1-9EE9-C40A2D8C4059";
name = "Bold Italic";
paths = (
{
closed = 1;
nodes = (
"161 0 LINE SMOOTH",
"187 0 OFFCURVE",
"199 14 OFFCURVE",
"205 25 CURVE SMOOTH",
"243 91 LINE",
"392 91 LINE",
"379 27 LINE SMOOTH",
"376 12 OFFCURVE",
"385 0 OFFCURVE",
"400 0 CURVE SMOOTH",
"891 0 LINE SMOOTH",
"906 0 OFFCURVE",
"921 12 OFFCURVE",
"924 27 CURVE SMOOTH",
"954 168 LINE SMOOTH",
"957 183 OFFCURVE",
"947 195 OFFCURVE",
"932 195 CURVE SMOOTH",
"654 195 LINE",
"668 258 LINE",
"916 258 LINE SMOOTH",
"931 258 OFFCURVE",
"945 270 OFFCURVE",
"949 285 CURVE SMOOTH",
"976 415 LINE SMOOTH",
"979 430 OFFCURVE",
"970 442 OFFCURVE",
"955 442 CURVE SMOOTH",
"707 442 LINE",
"720 505 LINE",
"990 505 LINE SMOOTH",
"1005 505 OFFCURVE",
"1020 517 OFFCURVE",
"1023 532 CURVE SMOOTH",
"1053 673 LINE SMOOTH",
"1056 688 OFFCURVE",
"1047 700 OFFCURVE",
"1032 700 CURVE SMOOTH",
"372 700 LINE SMOOTH",
"345 700 OFFCURVE",
"327 682 OFFCURVE",
"320 667 CURVE",
"-39 29 LINE SMOOTH",
"-40 26 OFFCURVE",
"-41 24 OFFCURVE",
"-41 22 CURVE SMOOTH",
"-44 10 OFFCURVE",
"-36 0 OFFCURVE",
"-24 0 CURVE SMOOTH"
);
},
{
closed = 1;
nodes = (
"448 505 LINE",
"480 505 LINE",
"434 286 LINE",
"336 286 LINE"
);
}
);
width = 1005;
}
);
leftKerningGroup = AE;
rightKerningGroup = E;
unicode = 00C6;
userData = {
com.typemytype.robofont.guides = (
{
angle = 0;
isGlobal = 0;
magnetic = 5;
x = 0;
y = 505;
},
{
angle = 90;
isGlobal = 0;
magnetic = 5;
x = 431;
y = 0;
}
);
};
},
{
glyphname = B;
lastChange = "2015-11-17 17:19:16 +0000";
layers = (
{
guideLines = (
{
position = "{-230, 271}";
},
{
position = "{-230, 437}";
},
{
position = "{-230, 521}";
},
{
position = "{-230, 198}";
},
{
position = "{-230, 9}";
},
{
angle = 90;
position = "{125, 0}";
},
{
angle = 90;
position = "{353, 0}";
},
{
angle = 90;
position = "{-136, 0}";
}
);
hints = (
{
horizontal = 1;
place = "{311.000000, 0.000000}";
type = Tag;
name = hr01;
},
{
horizontal = 1;
place = "{-12.000000, 0.000000}";
type = Tag;
name = hr02;
}
);
layerId = "581BC726-83A6-4935-8633-5A6508251040";
name = "Light Italic";
paths = (
{
closed = 1;
nodes = (
"334 0 LINE",
"470 0 OFFCURVE",
"563 97 OFFCURVE",
"584 198 CURVE SMOOTH",
"602 282 OFFCURVE",
"566 342 OFFCURVE",
"518 369 CURVE",
"562 388 OFFCURVE",
"620 435 OFFCURVE",
"639 521 CURVE SMOOTH",
"659 616 OFFCURVE",
"616 700 OFFCURVE",
"476 700 CURVE SMOOTH",
"215 700 LINE SMOOTH",
"202 700 OFFCURVE",
"191 691 OFFCURVE",
"188 677 CURVE SMOOTH",
"49 22 LINE SMOOTH",
"46 9 OFFCURVE",
"53 0 OFFCURVE",
"66 0 CURVE SMOOTH"
);
},
{
closed = 1;
nodes = (
"178 336 LINE",
"395 336 LINE",
"494 336 OFFCURVE",
"538 279 OFFCURVE",
"521 198 CURVE SMOOTH",
"504 118 OFFCURVE",
"436 60 OFFCURVE",
"337 60 CURVE SMOOTH",
"120 60 LINE"
);
},
{
closed = 1;
nodes = (
"243 640 LINE",
"450 640 LINE",
"549 640 OFFCURVE",
"593 600 OFFCURVE",
"576 521 CURVE SMOOTH",
"559 442 OFFCURVE",
"497 396 OFFCURVE",
"398 396 CURVE SMOOTH",
"191 396 LINE"
);
}
);
width = 653;
},
{
guideLines = (
{
position = "{-100, 221}";
},
{
position = "{-100, 482}";
},
{
angle = 90;
position = "{299, 0}";
},
{
angle = 90;
position = "{616, 0}";
}
);
hints = (
{
horizontal = 1;
place = "{9223372036854775808.000000, 0.000000}";
type = Tag;
name = hr00;
}
);
layerId = "EC64484B-0978-4CB1-9EE9-C40A2D8C4059";
name = "Bold Italic";
paths = (
{
closed = 1;
nodes = (
"374 0 LINE SMOOTH",
"555 0 OFFCURVE",
"671 70 OFFCURVE",
"703 220 CURVE SMOOTH",
"717 286 OFFCURVE",
"685 344 OFFCURVE",
"639 365 CURVE",
"674 381 OFFCURVE",
"732 426 OFFCURVE",
"745 490 CURVE SMOOTH",
"775 630 OFFCURVE",
"704 700 OFFCURVE",
"513 700 CURVE SMOOTH",
"181 700 LINE SMOOTH",
"166 700 OFFCURVE",
"151 688 OFFCURVE",
"148 673 CURVE SMOOTH",
"11 27 LINE SMOOTH",
"8 12 OFFCURVE",
"17 0 OFFCURVE",
"32 0 CURVE SMOOTH"
);
},
{
closed = 1;
nodes = (
"312 270 LINE",
"405 270 LINE SMOOTH",
"435 270 OFFCURVE",
"446 245 OFFCURVE",
"441 221 CURVE SMOOTH",
"436 199 OFFCURVE",
"418 172 OFFCURVE",
"385 172 CURVE SMOOTH",
"292 172 LINE"
);
},
{
closed = 1;
nodes = (
"367 528 LINE",
"451 528 LINE SMOOTH",
"480 528 OFFCURVE",
"487 503 OFFCURVE",
"482 482 CURVE SMOOTH",
"478 461 OFFCURVE",
"461 437 OFFCURVE",
"432 437 CURVE SMOOTH",
"348 437 LINE"
);
}
);
width = 734;
}
);
leftKerningGroup = I;
unicode = 0042;
userData = {
com.typemytype.robofont.guides = (
{
angle = 0;
isGlobal = 0;
magnetic = 5;
x = 0;
y = 271;
},
{
angle = 0;
isGlobal = 0;
magnetic = 5;
x = 0;
y = 437;
},
{
angle = 0;
isGlobal = 0;
magnetic = 5;
x = 0;
y = 521;
},
{
angle = 0;
isGlobal = 0;
magnetic = 5;
x = 0;
y = 198;
},
{
angle = 0;
isGlobal = 0;
magnetic = 5;
x = 0;
y = 9;
},
{
angle = 90;
isGlobal = 0;
magnetic = 5;
x = 355;
y = 0;
},
{
angle = 90;
isGlobal = 0;
magnetic = 5;
x = 583;
y = 0;
},
{
angle = 90;
isGlobal = 0;
magnetic = 5;
x = 94;
y = 0;
}
);
};
},
{
glyphname = C;
lastChange = "2015-11-17 17:19:16 +0000";
layers = (
{
guideLines = (
{
position = "{-230, 434}";
},
{
position = "{-230, 266}";
},
{
position = "{-230, 710}";
},
{
position = "{-230, -10}";
},
{
angle = 90;
position = "{369, 0}";
},
{
angle = 90;
position = "{-21, 0}";
},
{
angle = 90;
position = "{-81, 0}";
},
{
angle = 90;
position = "{102, 0}";
}
);
hints = (
{
horizontal = 1;
place = "{224.000000, 0.000000}";
type = Tag;
name = hr00;
}
);
layerId = "581BC726-83A6-4935-8633-5A6508251040";
name = "Light Italic";
paths = (
{
closed = 1;
nodes = (
"469 -10 OFFCURVE",
"567 111 OFFCURVE",
"592 206 CURVE SMOOTH",
"595 218 OFFCURVE",
"587 226 OFFCURVE",
"575 226 CURVE SMOOTH",
"555 226 LINE SMOOTH",
"544 226 OFFCURVE",
"535 221 OFFCURVE",
"529 205 CURVE SMOOTH",
"477 86 OFFCURVE",
"399 50 OFFCURVE",
"292 50 CURVE SMOOTH",
"170 50 OFFCURVE",
"108 115 OFFCURVE",
"136 266 CURVE SMOOTH",
"146 323 OFFCURVE",
"158 379 OFFCURVE",
"171 434 CURVE SMOOTH",
"208 585 OFFCURVE",
"297 650 OFFCURVE",
"419 650 CURVE SMOOTH",
"526 650 OFFCURVE",
"590 614 OFFCURVE",
"590 495 CURVE SMOOTH",
"590 479 OFFCURVE",
"597 474 OFFCURVE",
"608 474 CURVE SMOOTH",
"628 474 LINE SMOOTH",
"640 474 OFFCURVE",
"651 482 OFFCURVE",
"653 494 CURVE SMOOTH",
"668 589 OFFCURVE",
"622 710 OFFCURVE",
"432 710 CURVE SMOOTH",
"250 710 OFFCURVE",
"148 595 OFFCURVE",
"109 439 CURVE SMOOTH",
"95 382 OFFCURVE",
"81 315 OFFCURVE",
"71 261 CURVE SMOOTH",
"44 105 OFFCURVE",
"97 -10 OFFCURVE",
"279 -10 CURVE SMOOTH"
);
}
);
width = 651;
},
{
guideLines = (
{
position = "{-100, 434}";
},
{
position = "{-100, 266}";
},
{
position = "{-100, 710}";
},
{
position = "{-100, -10}";
},
{
angle = 90;
position = "{283, 0}";
}
);
hints = (
{
horizontal = 1;
place = "{9223372036854775808.000000, 0.000000}";
type = Tag;
name = hr00;
}
);
layerId = "EC64484B-0978-4CB1-9EE9-C40A2D8C4059";
name = "Bold Italic";
paths = (
{
closed = 1;
nodes = (
"490 -10 OFFCURVE",
"670 64 OFFCURVE",
"711 246 CURVE SMOOTH",
"714 258 OFFCURVE",
"706 268 OFFCURVE",
"694 268 CURVE",
"490 268 LINE",
"468 268 OFFCURVE",
"459 262 OFFCURVE",
"447 239 CURVE SMOOTH",
"425 199 OFFCURVE",
"394 185 OFFCURVE",
"360 185 CURVE SMOOTH",
"316 185 OFFCURVE",
"293 205 OFFCURVE",
"304 266 CURVE SMOOTH",
"314 323 OFFCURVE",
"326 379 OFFCURVE",
"339 434 CURVE",
"354 495 OFFCURVE",
"386 515 OFFCURVE",
"430 515 CURVE SMOOTH",
"464 515 OFFCURVE",
"488 504 OFFCURVE",
"494 461 CURVE SMOOTH",
"497 439 OFFCURVE",
"503 432 OFFCURVE",
"525 432 CURVE",
"729 432 LINE",
"741 432 OFFCURVE",
"753 442 OFFCURVE",
"756 454 CURVE SMOOTH",
"791 636 OFFCURVE",
"643 710 OFFCURVE",
"473 710 CURVE SMOOTH",
"286 710 OFFCURVE",
"128 625 OFFCURVE",
"80 439 CURVE",
"66 382 OFFCURVE",
"52 315 OFFCURVE",
"42 261 CURVE",
"10 70 OFFCURVE",
"128 -10 OFFCURVE",
"320 -10 CURVE SMOOTH"
);
}
);
width = 733;
}
);
leftKerningGroup = O;
rightKerningGroup = C;
unicode = 0043;
userData = {
com.typemytype.robofont.guides = (
{
angle = 0;
isGlobal = 0;
magnetic = 5;
x = 0;
y = 434;
},
{
angle = 0;
isGlobal = 0;
magnetic = 5;
x = 0;
y = 266;
},
{
angle = 0;
isGlobal = 0;
magnetic = 5;
x = 0;
y = 710;
},
{
angle = 0;
isGlobal = 0;
magnetic = 5;
x = 0;
y = "-10";
},
{
angle = 90;
isGlobal = 0;
magnetic = 5;
x = 599;
y = 0;
},
{
angle = 90;
isGlobal = 0;
magnetic = 5;
x = 209;
y = 0;
},
{
angle = 90;
isGlobal = 0;
magnetic = 5;
x = 149;
y = 0;
},
{
angle = 90;
isGlobal = 0;
magnetic = 5;
x = 332;
y = 0;
}
);
};
},
{
glyphname = Ccedilla;
lastChange = "2015-11-17 17:19:16 +0000";
layers = (
{
guideLines = (
{
position = "{-230, -174}";
},
{
position = "{-230, -220}";
},
{
position = "{-230, -96}";
},
{
position = "{-230, -50}";
},
{
position = "{-230, -135}";
},
{
angle = 90;
position = "{101, 0}";
},
{
angle = 90;
position = "{112, 0}";
}
);
hints = (
{
horizontal = 1;
place = "{224.000000, 0.000000}";
type = Tag;
name = hr00;
}
);
layerId = "581BC726-83A6-4935-8633-5A6508251040";
name = "Light Italic";
paths = (
{
closed = 1;
nodes = (
"294 -221 OFFCURVE",
"334 -180 OFFCURVE",
"344 -132 CURVE SMOOTH",
"354 -84 OFFCURVE",
"329 -50 OFFCURVE",
"285 -50 CURVE SMOOTH",
"270 -50 OFFCURVE",
"255 -53 OFFCURVE",
"246 -58 CURVE",
"279 -10 LINE",
"469 -10 OFFCURVE",
"567 111 OFFCURVE",
"592 206 CURVE SMOOTH",
"595 218 OFFCURVE",
"587 226 OFFCURVE",
"575 226 CURVE",
"555 226 LINE",
"544 226 OFFCURVE",
"535 221 OFFCURVE",
"529 205 CURVE SMOOTH",
"477 86 OFFCURVE",
"399 50 OFFCURVE",
"292 50 CURVE SMOOTH",
"170 50 OFFCURVE",
"108 115 OFFCURVE",
"136 266 CURVE SMOOTH",
"146 323 OFFCURVE",
"158 379 OFFCURVE",
"171 434 CURVE SMOOTH",
"208 585 OFFCURVE",
"297 650 OFFCURVE",
"419 650 CURVE SMOOTH",
"526 650 OFFCURVE",
"590 614 OFFCURVE",
"590 495 CURVE SMOOTH",
"590 479 OFFCURVE",
"597 474 OFFCURVE",
"608 474 CURVE",
"628 474 LINE",
"640 474 OFFCURVE",
"651 482 OFFCURVE",
"653 494 CURVE SMOOTH",
"668 589 OFFCURVE",
"622 710 OFFCURVE",
"432 710 CURVE SMOOTH",
"250 710 OFFCURVE",
"148 595 OFFCURVE",
"109 439 CURVE SMOOTH",
"95 382 OFFCURVE",
"81 315 OFFCURVE",
"71 261 CURVE SMOOTH",
"47 121 OFFCURVE",
"86 15 OFFCURVE",
"226 -6 CURVE",
"196 -53 LINE",
"190 -63 OFFCURVE",
"179 -75 OFFCURVE",
"184 -83 CURVE",
"197 -100 LINE",
"208 -116 OFFCURVE",
"226 -96 OFFCURVE",
"258 -96 CURVE SMOOTH",
"281 -96 OFFCURVE",
"298 -110 OFFCURVE",
"293 -134 CURVE SMOOTH",
"287 -159 OFFCURVE",
"264 -174 OFFCURVE",
"241 -174 CURVE SMOOTH",
"197 -174 OFFCURVE",
"197 -140 OFFCURVE",
"177 -156 CURVE",
"160 -169 LINE",
"141 -184 OFFCURVE",
"174 -219 OFFCURVE",
"231 -220 CURVE SMOOTH"
);
}
);
width = 651;
},
{
guideLines = (
{
position = "{-100, -220}";
},
{
angle = 90;
position = "{619, 0}";
}
);
hints = (
{
horizontal = 1;
place = "{9223372036854775808.000000, 0.000000}";
type = Tag;
name = hr00;
}
);
layerId = "EC64484B-0978-4CB1-9EE9-C40A2D8C4059";
name = "Bold Italic";
paths = (
{
closed = 1;
nodes = (
"329 -220 OFFCURVE",
"376 -183 OFFCURVE",
"387 -130 CURVE SMOOTH",
"399 -77 OFFCURVE",
"376 -40 OFFCURVE",
"325 -40 CURVE SMOOTH",
"321 -40 OFFCURVE",
"303 -42 OFFCURVE",
"294 -45 CURVE",
"320 -10 LINE",
"490 -10 OFFCURVE",
"670 64 OFFCURVE",
"711 246 CURVE SMOOTH",
"714 258 OFFCURVE",
"706 268 OFFCURVE",
"694 268 CURVE",
"490 268 LINE",
"468 268 OFFCURVE",
"459 262 OFFCURVE",
"447 239 CURVE SMOOTH",
"425 199 OFFCURVE",
"394 185 OFFCURVE",
"360 185 CURVE SMOOTH",
"316 185 OFFCURVE",
"293 205 OFFCURVE",
"304 266 CURVE SMOOTH",
"314 323 OFFCURVE",
"326 379 OFFCURVE",
"339 434 CURVE SMOOTH",
"354 495 OFFCURVE",
"386 515 OFFCURVE",
"430 515 CURVE SMOOTH",
"464 515 OFFCURVE",
"488 504 OFFCURVE",
"494 461 CURVE SMOOTH",
"497 439 OFFCURVE",
"503 432 OFFCURVE",
"525 432 CURVE",
"729 432 LINE",
"741 432 OFFCURVE",
"753 442 OFFCURVE",
"756 454 CURVE SMOOTH",
"791 636 OFFCURVE",
"643 710 OFFCURVE",
"473 710 CURVE SMOOTH",
"286 710 OFFCURVE",
"128 625 OFFCURVE",
"80 439 CURVE SMOOTH",
"66 382 OFFCURVE",
"52 315 OFFCURVE",
"42 261 CURVE SMOOTH",
"13 91 OFFCURVE",
"103 10 OFFCURVE",
"258 -6 CURVE",
"228 -52 LINE",
"215 -71 OFFCURVE",
"216 -76 OFFCURVE",
"223 -85 CURVE",
"239 -106 LINE",
"250 -119 OFFCURVE",
"275 -106 OFFCURVE",
"293 -106 CURVE SMOOTH",
"313 -106 OFFCURVE",
"319 -118 OFFCURVE",
"316 -130 CURVE SMOOTH",
"314 -142 OFFCURVE",
"302 -154 OFFCURVE",
"283 -154 CURVE SMOOTH",
"249 -154 OFFCURVE",
"248 -136 OFFCURVE",
"228 -151 CURVE",
"203 -169 LINE",
"176 -189 OFFCURVE",
"216 -220 OFFCURVE",
"269 -220 CURVE SMOOTH"
);
}
);
width = 733;
}
);
leftKerningGroup = O;
rightKerningGroup = C;
unicode = 00C7;
userData = {
com.typemytype.robofont.guides = (
{
angle = 0;
isGlobal = 0;
magnetic = 5;
x = 0;
y = "-174";
},
{
angle = 0;
isGlobal = 0;
magnetic = 5;
x = 0;
y = "-220";
},
{
angle = 0;
isGlobal = 0;
magnetic = 5;
x = 0;
y = "-96";
},
{
angle = 0;
isGlobal = 0;
magnetic = 5;
x = 0;
y = "-50";
},
{
angle = 0;
isGlobal = 0;
magnetic = 5;
x = 0;
y = "-135";
},
{
angle = 90;
isGlobal = 0;
magnetic = 5;
x = 331;
y = 0;
},
{
angle = 90;
isGlobal = 0;
magnetic = 5;
x = 342;
y = 0;
}
);
};
},
{
glyphname = D;
lastChange = "2015-11-17 17:19:16 +0000";
layers = (
{
guideLines = (
{
position = "{-230, 425}";
},
{
position = "{-230, 276}";
},
{
position = "{-230, 9}";
},
{
angle = 90;
position = "{90, 0}";
},
{
angle = 90;
position = "{373, 0}";
},
{
angle = 90;
position = "{-136, 0}";
}
);
hints = (
{
horizontal = 1;
place = "{490.000000, 0.000000}";
type = Tag;
name = hr00;
}
);
layerId = "581BC726-83A6-4935-8633-5A6508251040";
name = "Light Italic";
paths = (
{
closed = 1;
nodes = (
"284 0 LINE SMOOTH",
"490 0 OFFCURVE",
"571 87 OFFCURVE",
"615 271 CURVE SMOOTH",
"628 331 OFFCURVE",
"637 370 OFFCURVE",
"648 430 CURVE SMOOTH",
"682 604 OFFCURVE",
"640 700 OFFCURVE",
"428 700 CURVE",
"215 700 LINE SMOOTH",
"202 700 OFFCURVE",
"191 691 OFFCURVE",
"188 677 CURVE SMOOTH",
"49 22 LINE SMOOTH",
"46 9 OFFCURVE",
"53 0 OFFCURVE",
"66 0 CURVE SMOOTH"
);
},
{
closed = 1;
nodes = (
"243 640 LINE",
"410 640 LINE SMOOTH",
"570 640 OFFCURVE",
"612 571 OFFCURVE",
"584 425 CURVE SMOOTH",
"573 365 OFFCURVE",
"566 336 OFFCURVE",
"553 276 CURVE SMOOTH",
"517 120 OFFCURVE",
"451 60 OFFCURVE",
"292 60 CURVE SMOOTH",
"120 60 LINE"
);
}
);
width = 677;
},
{
guideLines = (
{
angle = 90;
position = "{280, 0}";
}
);
hints = (
{
horizontal = 1;
place = "{9223372036854775808.000000, 0.000000}";
type = Tag;
name = hr00;
}
);
layerId = "EC64484B-0978-4CB1-9EE9-C40A2D8C4059";
name = "Bold Italic";
paths = (
{
closed = 1;
nodes = (
"325 0 LINE SMOOTH",
"516 0 OFFCURVE",
"664 87 OFFCURVE",
"713 276 CURVE SMOOTH",
"726 330 OFFCURVE",
"734 368 OFFCURVE",
"744 425 CURVE SMOOTH",
"775 604 OFFCURVE",
"656 700 OFFCURVE",
"469 700 CURVE",
"181 700 LINE SMOOTH",
"166 700 OFFCURVE",
"151 688 OFFCURVE",
"148 673 CURVE SMOOTH",
"11 27 LINE SMOOTH",
"8 12 OFFCURVE",
"17 0 OFFCURVE",
"32 0 CURVE SMOOTH"
);
},
{
closed = 1;
nodes = (
"362 505 LINE",
"422 505 LINE SMOOTH",
"467 505 OFFCURVE",
"499 481 OFFCURVE",
"490 425 CURVE SMOOTH",
"482 370 OFFCURVE",
"474 333 OFFCURVE",
"459 276 CURVE SMOOTH",
"444 220 OFFCURVE",
"405 195 OFFCURVE",
"361 195 CURVE SMOOTH",
"296 195 LINE"
);
}
);
width = 740;
}
);
leftKerningGroup = I;
rightKerningGroup = D;
unicode = 0044;
userData = {
com.typemytype.robofont.guides = (
{
angle = 0;
isGlobal = 0;
magnetic = 5;
x = 0;
y = 425;
},
{
angle = 0;
isGlobal = 0;
magnetic = 5;
x = 0;
y = 276;
},
{
angle = 0;
isGlobal = 0;
magnetic = 5;
x = 0;
y = 9;
},
{
angle = 90;
isGlobal = 0;
magnetic = 5;
x = 320;
y = 0;
},
{
angle = 90;
isGlobal = 0;
magnetic = 5;
x = 603;
y = 0;
},
{
angle = 90;
isGlobal = 0;
magnetic = 5;
x = 94;
y = 0;
}
);
};
},
{
glyphname = Eth;
lastChange = "2015-11-17 17:19:17 +0000";
layers = (
{
guideLines = (
{
position = "{-230, 350}";
}
);
hints = (
{
horizontal = 1;
place = "{490.000000, 0.000000}";
type = Tag;
name = hr00;
}
);
layerId = "581BC726-83A6-4935-8633-5A6508251040";
name = "Light Italic";
paths = (
{
closed = 1;
nodes = (
"290 0 LINE SMOOTH",
"496 0 OFFCURVE",
"577 87 OFFCURVE",
"621 271 CURVE SMOOTH",
"634 331 OFFCURVE",
"643 370 OFFCURVE",
"654 430 CURVE SMOOTH",
"688 604 OFFCURVE",
"646 700 OFFCURVE",
"434 700 CURVE",
"221 700 LINE SMOOTH",
"208 700 OFFCURVE",
"197 691 OFFCURVE",
"194 677 CURVE SMOOTH",
"131 382 LINE",
"68 382 LINE SMOOTH",
"55 382 OFFCURVE",
"44 373 OFFCURVE",
"42 360 CURVE SMOOTH",
"38 344 LINE SMOOTH",
"35 331 OFFCURVE",
"42 322 OFFCURVE",
"55 322 CURVE SMOOTH",
"118 322 LINE",
"55 22 LINE SMOOTH",
"52 9 OFFCURVE",
"59 0 OFFCURVE",
"72 0 CURVE SMOOTH"
);
},
{
closed = 1;
nodes = (
"181 322 LINE",
"331 322 LINE SMOOTH",
"344 322 OFFCURVE",
"355 331 OFFCURVE",
"358 344 CURVE SMOOTH",
"362 360 LINE SMOOTH",
"364 373 OFFCURVE",
"357 382 OFFCURVE",
"344 382 CURVE SMOOTH",
"194 382 LINE",
"249 640 LINE",
"416 640 LINE SMOOTH",
"576 640 OFFCURVE",
"618 571 OFFCURVE",
"590 425 CURVE SMOOTH",
"579 365 OFFCURVE",
"572 336 OFFCURVE",
"559 276 CURVE SMOOTH",
"523 120 OFFCURVE",
"457 60 OFFCURVE",
"298 60 CURVE SMOOTH",
"126 60 LINE"
);
}
);
width = 683;
},
{
guideLines = (
{
position = "{-100, 350}";
}
);
hints = (
{
horizontal = 1;
place = "{9223372036854775808.000000, 0.000000}";
type = Tag;
name = hr00;
}
);
layerId = "EC64484B-0978-4CB1-9EE9-C40A2D8C4059";
name = "Bold Italic";
paths = (
{
closed = 1;
nodes = (
"345 0 LINE SMOOTH",
"536 0 OFFCURVE",
"697 87 OFFCURVE",
"738 276 CURVE SMOOTH",
"769 425 LINE SMOOTH",
"807 604 OFFCURVE",
"680 700 OFFCURVE",
"493 700 CURVE SMOOTH",
"205 700 LINE SMOOTH",
"190 700 OFFCURVE",
"175 688 OFFCURVE",
"172 673 CURVE SMOOTH",
"120 429 LINE",
"82 429 LINE",
"67 429 OFFCURVE",
"53 417 OFFCURVE",
"49 402 CURVE SMOOTH",
"28 301 LINE SMOOTH",
"25 286 OFFCURVE",
"34 274 OFFCURVE",
"49 274 CURVE SMOOTH",
"87 274 LINE",
"35 27 LINE SMOOTH",
"32 12 OFFCURVE",
"41 0 OFFCURVE",
"56 0 CURVE SMOOTH"
);
},
{
closed = 1;
nodes = (
"337 274 LINE",
"393 274 LINE SMOOTH",
"408 274 OFFCURVE",
"423 286 OFFCURVE",
"426 301 CURVE SMOOTH",
"447 402 LINE SMOOTH",
"451 417 OFFCURVE",
"441 429 OFFCURVE",
"426 429 CURVE SMOOTH",
"370 429 LINE",
"386 505 LINE",
"451 505 LINE SMOOTH",
"496 505 OFFCURVE",
"521 481 OFFCURVE",
"509 425 CURVE SMOOTH",
"478 276 LINE SMOOTH",
"466 220 OFFCURVE",
"429 195 OFFCURVE",
"385 195 CURVE SMOOTH",
"320 195 LINE"
);
}
);
width = 766;
}
);
leftKerningGroup = I;
rightKerningGroup = D;
unicode = 00D0;
userData = {
com.typemytype.robofont.guides = (
{
angle = 0;
isGlobal = 0;
magnetic = 5;
x = 0;
y = 350;
}
);
};
},
{
glyphname = Dcroat;
lastChange = "2015-11-17 17:19:16 +0000";
layers = (
{
guideLines = (
{
position = "{-230, 352}";
},
{
angle = 90;
position = "{110, 0}";
},
{
angle = 90;
position = "{-125, 0}";
}
);
hints = (
{
horizontal = 1;
place = "{490.000000, 0.000000}";
type = Tag;
name = hr00;
}
);
layerId = "581BC726-83A6-4935-8633-5A6508251040";
name = "Light Italic";
paths = (
{
closed = 1;
nodes = (
"290 0 LINE SMOOTH",
"496 0 OFFCURVE",
"577 87 OFFCURVE",
"621 271 CURVE SMOOTH",
"634 331 OFFCURVE",
"643 370 OFFCURVE",
"654 430 CURVE SMOOTH",
"688 604 OFFCURVE",
"646 700 OFFCURVE",
"434 700 CURVE",
"221 700 LINE SMOOTH",
"208 700 OFFCURVE",
"197 691 OFFCURVE",
"194 677 CURVE SMOOTH",
"131 382 LINE",
"68 382 LINE SMOOTH",
"55 382 OFFCURVE",
"44 373 OFFCURVE",
"42 360 CURVE SMOOTH",
"38 344 LINE SMOOTH",
"35 331 OFFCURVE",
"42 322 OFFCURVE",
"55 322 CURVE SMOOTH",
"118 322 LINE",
"55 22 LINE SMOOTH",
"52 9 OFFCURVE",
"59 0 OFFCURVE",
"72 0 CURVE SMOOTH"
);
},
{
closed = 1;
nodes = (
"181 322 LINE",
"331 322 LINE SMOOTH",
"344 322 OFFCURVE",
"355 331 OFFCURVE",
"358 344 CURVE SMOOTH",
"362 360 LINE SMOOTH",
"364 373 OFFCURVE",
"357 382 OFFCURVE",
"344 382 CURVE SMOOTH",
"194 382 LINE",
"249 640 LINE",
"416 640 LINE SMOOTH",
"576 640 OFFCURVE",
"618 571 OFFCURVE",
"590 425 CURVE SMOOTH",
"579 365 OFFCURVE",
"572 336 OFFCURVE",
"559 276 CURVE SMOOTH",
"523 120 OFFCURVE",
"457 60 OFFCURVE",
"298 60 CURVE SMOOTH",
"126 60 LINE"
);
}
);
width = 683;
},
{
guideLines = (
{
position = "{-100, 352}";
}
);
hints = (
{
horizontal = 1;
place = "{9223372036854775808.000000, 0.000000}";
type = Tag;
name = hr00;
}
);
layerId = "EC64484B-0978-4CB1-9EE9-C40A2D8C4059";
name = "Bold Italic";
paths = (
{
closed = 1;
nodes = (
"345 0 LINE SMOOTH",
"536 0 OFFCURVE",
"688 87 OFFCURVE",
"737 276 CURVE SMOOTH",
"750 330 OFFCURVE",
"758 368 OFFCURVE",
"768 425 CURVE SMOOTH",
"799 604 OFFCURVE",
"680 700 OFFCURVE",
"493 700 CURVE",
"205 700 LINE SMOOTH",
"190 700 OFFCURVE",
"175 688 OFFCURVE",
"172 673 CURVE SMOOTH",
"120 430 LINE",
"82 430 LINE SMOOTH",
"67 430 OFFCURVE",
"53 418 OFFCURVE",
"50 403 CURVE SMOOTH",
"28 302 LINE SMOOTH",
"25 287 OFFCURVE",
"34 275 OFFCURVE",
"49 275 CURVE SMOOTH",
"87 275 LINE",
"35 27 LINE SMOOTH",
"32 12 OFFCURVE",
"41 0 OFFCURVE",
"56 0 CURVE SMOOTH"
);
},
{
closed = 1;
nodes = (
"337 275 LINE",
"393 275 LINE SMOOTH",
"408 275 OFFCURVE",
"423 287 OFFCURVE",
"426 302 CURVE SMOOTH",
"448 403 LINE SMOOTH",
"451 418 OFFCURVE",
"441 430 OFFCURVE",
"426 430 CURVE SMOOTH",
"370 430 LINE",
"386 505 LINE",
"451 505 LINE SMOOTH",
"496 505 OFFCURVE",
"523 481 OFFCURVE",
"514 425 CURVE SMOOTH",
"506 370 OFFCURVE",
"498 333 OFFCURVE",
"483 276 CURVE SMOOTH",
"468 220 OFFCURVE",
"429 195 OFFCURVE",
"385 195 CURVE SMOOTH",
"320 195 LINE"
);
}
);
width = 764;
}
);
leftKerningGroup = I;
rightKerningGroup = D;
unicode = 0110;
userData = {
com.typemytype.robofont.guides = (
{
angle = 0;
isGlobal = 0;
magnetic = 5;
x = 0;
y = 352;
},
{
angle = 90;
isGlobal = 0;
magnetic = 5;
x = 340;
y = 0;
},
{
angle = 90;
isGlobal = 0;
magnetic = 5;
x = 105;
y = 0;
}
);
};
},
{
glyphname = E;
lastChange = "2015-11-17 17:19:16 +0000";
layers = (
{
guideLines = (
{
position = "{-230, 334}";
},
{
position = "{-230, 9}";
},
{
position = "{-230, 376}";
},
{
position = "{-230, 691}";
},
{
position = "{-230, 649}";
},
{
angle = 90;
position = "{434, 0}";
},
{
angle = 90;
position = "{-136, 0}";
},
{
angle = 90;
position = "{281, 0}";
}
);
hints = (
{
horizontal = 1;
place = "{-150.000000, 0.000000}";
type = Tag;
name = hr00;
}
);
layerId = "581BC726-83A6-4935-8633-5A6508251040";
name = "Light Italic";
paths = (
{
closed = 1;
nodes = (
"464 0 LINE SMOOTH",
"478 0 OFFCURVE",
"489 9 OFFCURVE",
"492 22 CURVE SMOOTH",
"495 37 LINE SMOOTH",
"498 51 OFFCURVE",
"491 60 OFFCURVE",
"477 60 CURVE",
"120 60 LINE",
"176 325 LINE",
"503 325 LINE SMOOTH",
"517 325 OFFCURVE",
"528 334 OFFCURVE",
"531 347 CURVE SMOOTH",
"534 362 LINE SMOOTH",
"537 376 OFFCURVE",
"530 385 OFFCURVE",
"516 385 CURVE SMOOTH",
"189 385 LINE",
"243 640 LINE",
"592 640 LINE SMOOTH",
"606 640 OFFCURVE",
"617 649 OFFCURVE",
"620 662 CURVE SMOOTH",
"623 677 LINE SMOOTH",
"626 691 OFFCURVE",
"619 700 OFFCURVE",
"605 700 CURVE SMOOTH",
"215 700 LINE SMOOTH",
"202 700 OFFCURVE",
"191 691 OFFCURVE",
"188 677 CURVE SMOOTH",
"49 22 LINE SMOOTH",
"46 9 OFFCURVE",
"53 0 OFFCURVE",
"66 0 CURVE SMOOTH"
);
}
);
width = 592;
},
{
guideLines = (
{
position = "{-100, 350}";
}
);
hints = (
{
horizontal = 1;
place = "{9223372036854775808.000000, 0.000000}";
type = Tag;
name = hr00;
}
);
layerId = "EC64484B-0978-4CB1-9EE9-C40A2D8C4059";
name = "Bold Italic";
paths = (
{
closed = 1;
nodes = (
"553 0 LINE SMOOTH",
"568 0 OFFCURVE",
"583 12 OFFCURVE",
"586 27 CURVE SMOOTH",
"616 168 LINE SMOOTH",
"619 183 OFFCURVE",
"609 195 OFFCURVE",
"594 195 CURVE SMOOTH",
"286 195 LINE",
"300 258 LINE",
"578 258 LINE SMOOTH",
"593 258 OFFCURVE",
"607 270 OFFCURVE",
"611 285 CURVE SMOOTH",
"638 415 LINE SMOOTH",
"641 430 OFFCURVE",
"632 442 OFFCURVE",
"617 442 CURVE SMOOTH",
"339 442 LINE",
"352 505 LINE",
"652 505 LINE SMOOTH",
"667 505 OFFCURVE",
"682 517 OFFCURVE",
"685 532 CURVE SMOOTH",
"715 673 LINE SMOOTH",
"718 688 OFFCURVE",
"709 700 OFFCURVE",
"694 700 CURVE SMOOTH",
"181 700 LINE SMOOTH",
"166 700 OFFCURVE",
"151 688 OFFCURVE",
"148 673 CURVE SMOOTH",
"11 27 LINE SMOOTH",
"8 12 OFFCURVE",
"17 0 OFFCURVE",
"32 0 CURVE SMOOTH"
);
}
);
width = 667;
}
);
leftKerningGroup = I;
rightKerningGroup = E;
unicode = 0045;
userData = {
com.typemytype.robofont.guides = (
{
angle = 0;
isGlobal = 0;
magnetic = 5;
x = 0;
y = 334;
},
{
angle = 0;
isGlobal = 0;
magnetic = 5;
x = 0;
y = 9;
},
{
angle = 0;
isGlobal = 0;
magnetic = 5;
x = 0;
y = 376;
},
{
angle = 0;
isGlobal = 0;
magnetic = 5;
x = 0;
y = 691;
},
{
angle = 0;
isGlobal = 0;
magnetic = 5;
x = 0;
y = 649;
},
{
angle = 90;
isGlobal = 0;
magnetic = 5;
x = 664;
y = 0;
},
{
angle = 90;
isGlobal = 0;
magnetic = 5;
x = 94;
y = 0;
},
{
angle = 90;
isGlobal = 0;
magnetic = 5;
x = 511;
y = 0;
}
);
};
},
{
glyphname = Eogonek;
lastChange = "2015-11-17 17:19:16 +0000";
layers = (
{
guideLines = (
{
angle = 90;
position = "{125, 0}";
}
);
hints = (
{
horizontal = 1;
place = "{-292.000000, 0.000000}";
type = Tag;
name = hr01;
}
);
layerId = "581BC726-83A6-4935-8633-5A6508251040";
name = "Light Italic";
paths = (
{
closed = 1;
nodes = (
"418 -220 LINE SMOOTH",
"431 -220 OFFCURVE",
"442 -211 OFFCURVE",
"445 -198 CURVE SMOOTH",
"448 -185 LINE SMOOTH",
"450 -172 OFFCURVE",
"443 -163 OFFCURVE",
"430 -163 CURVE SMOOTH",
"415 -163 LINE SMOOTH",
"371 -163 OFFCURVE",
"346 -133 OFFCURVE",
"357 -82 CURVE SMOOTH",
"367 -33 OFFCURVE",
"402 -3 OFFCURVE",
"443 0 CURVE",
"464 0 LINE SMOOTH",
"478 0 OFFCURVE",
"489 9 OFFCURVE",
"492 22 CURVE SMOOTH",
"495 37 LINE SMOOTH",
"498 51 OFFCURVE",
"491 60 OFFCURVE",
"477 60 CURVE SMOOTH",
"120 60 LINE",
"176 325 LINE",
"503 325 LINE SMOOTH",
"517 325 OFFCURVE",
"528 334 OFFCURVE",
"531 347 CURVE SMOOTH",
"534 362 LINE SMOOTH",
"537 376 OFFCURVE",
"530 385 OFFCURVE",
"516 385 CURVE SMOOTH",
"189 385 LINE",
"243 640 LINE",
"592 640 LINE SMOOTH",
"606 640 OFFCURVE",
"617 649 OFFCURVE",
"620 662 CURVE SMOOTH",
"623 677 LINE SMOOTH",
"626 691 OFFCURVE",
"619 700 OFFCURVE",
"605 700 CURVE SMOOTH",
"215 700 LINE SMOOTH",
"202 700 OFFCURVE",
"191 691 OFFCURVE",
"188 677 CURVE SMOOTH",
"49 22 LINE SMOOTH",
"46 9 OFFCURVE",
"53 0 OFFCURVE",
"66 0 CURVE SMOOTH",
"335 0 LINE",
"316 -22 OFFCURVE",
"303 -50 OFFCURVE",
"297 -82 CURVE SMOOTH",
"279 -167 OFFCURVE",
"318 -220 OFFCURVE",
"399 -220 CURVE SMOOTH"
);
}
);
width = 592;
},
{
guideLines = (
{
position = "{-100, -220}";
}
);
hints = (
{
horizontal = 1;
place = "{9223372036854775808.000000, 0.000000}";
type = Tag;
name = hr01;
}
);
layerId = "EC64484B-0978-4CB1-9EE9-C40A2D8C4059";
name = "Bold Italic";
paths = (
{
closed = 1;
nodes = (
"506 -220 LINE SMOOTH",
"521 -220 OFFCURVE",
"536 -208 OFFCURVE",
"539 -193 CURVE SMOOTH",
"553 -125 LINE SMOOTH",
"557 -110 OFFCURVE",
"547 -98 OFFCURVE",
"532 -98 CURVE SMOOTH",
"522 -98 LINE SMOOTH",
"483 -98 OFFCURVE",
"478 -70 OFFCURVE",
"483 -49 CURVE SMOOTH",
"487 -28 OFFCURVE",
"504 0 OFFCURVE",
"543 0 CURVE SMOOTH",
"553 0 LINE SMOOTH",
"568 0 OFFCURVE",
"583 12 OFFCURVE",
"586 27 CURVE SMOOTH",
"616 168 LINE SMOOTH",
"619 183 OFFCURVE",
"609 195 OFFCURVE",
"594 195 CURVE SMOOTH",
"286 195 LINE",
"300 258 LINE",
"578 258 LINE SMOOTH",
"593 258 OFFCURVE",
"607 270 OFFCURVE",
"611 285 CURVE SMOOTH",
"638 415 LINE SMOOTH",
"641 430 OFFCURVE",
"632 442 OFFCURVE",
"617 442 CURVE SMOOTH",
"339 442 LINE",
"352 505 LINE",
"652 505 LINE SMOOTH",
"667 505 OFFCURVE",
"682 517 OFFCURVE",
"685 532 CURVE SMOOTH",
"715 673 LINE SMOOTH",
"718 688 OFFCURVE",
"709 700 OFFCURVE",
"694 700 CURVE SMOOTH",
"181 700 LINE SMOOTH",
"166 700 OFFCURVE",
"151 688 OFFCURVE",
"148 673 CURVE SMOOTH",
"11 27 LINE SMOOTH",
"8 12 OFFCURVE",
"17 0 OFFCURVE",
"32 0 CURVE SMOOTH",
"372 0 LINE",
"366 -16 OFFCURVE",
"360 -31 OFFCURVE",
"357 -49 CURVE SMOOTH",
"336 -144 OFFCURVE",
"371 -220 OFFCURVE",
"492 -220 CURVE SMOOTH"
);
}
);
width = 667;
}
);
leftKerningGroup = I;
rightKerningGroup = E;
unicode = 0118;
userData = {
com.typemytype.robofont.guides = (
{
angle = 90;
isGlobal = 0;
magnetic = 5;
x = 355;
y = 0;
}
);
};
},
{
glyphname = F;
lastChange = "2015-11-17 17:19:16 +0000";
layers = (
{
guideLines = (
{
position = "{-230, 320}";
},
{
position = "{-230, 691}";
},
{
position = "{-230, 649}";
},
{
position = "{-230, 362}";
},
{
position = "{-230, 9}";
},
{
angle = 90;
position = "{531, 0}";
},
{
angle = 90;
position = "{-136, 0}";
},
{
angle = 90;
position = "{257, 0}";
},
{
angle = 90;
position = "{-91, 0}";
}
);
hints = (
{
horizontal = 1;
place = "{490.000000, 0.000000}";
type = Tag;
name = hr00;
}
);
layerId = "581BC726-83A6-4935-8633-5A6508251040";
name = "Light Italic";
paths = (
{
closed = 1;
nodes = (
"84 0 LINE SMOOTH",
"98 0 OFFCURVE",
"109 9 OFFCURVE",
"112 22 CURVE SMOOTH",
"173 311 LINE",
"498 311 LINE SMOOTH",
"512 311 OFFCURVE",
"523 320 OFFCURVE",
"526 333 CURVE SMOOTH",
"529 348 LINE SMOOTH",
"532 362 OFFCURVE",
"525 371 OFFCURVE",
"511 371 CURVE SMOOTH",
"186 371 LINE",
"243 640 LINE",
"588 640 LINE SMOOTH",
"602 640 OFFCURVE",
"613 649 OFFCURVE",
"616 662 CURVE SMOOTH",
"619 677 LINE SMOOTH",
"622 691 OFFCURVE",
"615 700 OFFCURVE",
"601 700 CURVE SMOOTH",
"215 700 LINE",
"202 700 OFFCURVE",
"191 691 OFFCURVE",
"188 677 CURVE SMOOTH",
"49 22 LINE SMOOTH",
"46 9 OFFCURVE",
"53 0 OFFCURVE",
"66 0 CURVE SMOOTH"
);
}
);
width = 570;
},
{
guideLines = (
{
position = "{-100, 350}";
},
{
angle = 90;
position = "{545, 0}";
}
);
hints = (
{
horizontal = 1;
place = "{9223372036854775808.000000, 0.000000}";
type = Tag;
name = hr00;
}
);
layerId = "EC64484B-0978-4CB1-9EE9-C40A2D8C4059";
name = "Bold Italic";
paths = (
{
closed = 1;
nodes = (
"223 0 LINE SMOOTH",
"238 0 OFFCURVE",
"253 12 OFFCURVE",
"256 27 CURVE SMOOTH",
"296 215 LINE",
"562 215 LINE SMOOTH",
"577 215 OFFCURVE",
"591 227 OFFCURVE",
"594 242 CURVE SMOOTH",
"627 393 LINE SMOOTH",
"630 408 OFFCURVE",
"620 420 OFFCURVE",
"605 420 CURVE SMOOTH",
"339 420 LINE",
"355 494 LINE",
"641 494 LINE SMOOTH",
"656 494 OFFCURVE",
"671 506 OFFCURVE",
"674 521 CURVE SMOOTH",
"706 673 LINE SMOOTH",
"709 688 OFFCURVE",
"700 700 OFFCURVE",
"685 700 CURVE SMOOTH",
"181 700 LINE SMOOTH",
"166 700 OFFCURVE",
"151 688 OFFCURVE",
"148 673 CURVE SMOOTH",
"11 27 LINE SMOOTH",
"8 12 OFFCURVE",
"17 0 OFFCURVE",
"32 0 CURVE SMOOTH"
);
}
);
width = 646;
}
);
leftKerningGroup = I;
unicode = 0046;
userData = {
com.typemytype.robofont.guides = (
{
angle = 0;
isGlobal = 0;
magnetic = 5;
x = 0;
y = 320;
},
{
angle = 0;
isGlobal = 0;
magnetic = 5;
x = 0;
y = 691;
},
{
angle = 0;
isGlobal = 0;
magnetic = 5;
x = 0;
y = 649;
},
{
angle = 0;
isGlobal = 0;
magnetic = 5;
x = 0;
y = 362;
},
{
angle = 0;
isGlobal = 0;
magnetic = 5;
x = 0;
y = 9;
},
{
angle = 90;
isGlobal = 0;
magnetic = 5;
x = 761;
y = 0;
},
{
angle = 90;
isGlobal = 0;
magnetic = 5;
x = 94;
y = 0;
},
{
angle = 90;
isGlobal = 0;
magnetic = 5;
x = 487;
y = 0;
},
{
angle = 90;
isGlobal = 0;
magnetic = 5;
x = 139;
y = 0;
}
);
};
},
{
glyphname = G;
lastChange = "2015-11-17 17:19:16 +0000";
layers = (
{
guideLines = (
{
position = "{-230, -10}";
},
{
position = "{-230, 260}";
},
{
position = "{-230, 440}";
},
{
angle = 90;
position = "{104, 0}";
},
{
angle = 90;
position = "{-97, 0}";
},
{
angle = 90;
position = "{374, 0}";
},
{
angle = 90;
position = "{-163, 0}";
}
);
hints = (
{
horizontal = 1;
place = "{440.000000, 0.000000}";
type = Tag;
name = hr00;
}
);
layerId = "581BC726-83A6-4935-8633-5A6508251040";
name = "Light Italic";
paths = (
{
closed = 1;
nodes = (
"454 -10 OFFCURVE",
"575 100 OFFCURVE",
"609 260 CURVE SMOOTH",
"628 348 LINE SMOOTH",
"631 362 OFFCURVE",
"624 371 OFFCURVE",
"610 371 CURVE SMOOTH",
"396 371 LINE SMOOTH",
"383 371 OFFCURVE",
"372 362 OFFCURVE",
"369 348 CURVE SMOOTH",
"366 334 LINE SMOOTH",
"363 320 OFFCURVE",
"370 311 OFFCURVE",
"383 311 CURVE SMOOTH",
"557 311 LINE",
"546 260 LINE SMOOTH",
"515 115 OFFCURVE",
"413 50 OFFCURVE",
"295 50 CURVE SMOOTH",
"176 50 OFFCURVE",
"108 110 OFFCURVE",
"135 260 CURVE SMOOTH",
"146 320 OFFCURVE",
"159 380 OFFCURVE",
"174 440 CURVE SMOOTH",
"210 590 OFFCURVE",
"303 650 OFFCURVE",
"422 650 CURVE SMOOTH",
"541 650 OFFCURVE",
"585 587 OFFCURVE",
"592 525 CURVE SMOOTH",
"593 510 OFFCURVE",
"596 505 OFFCURVE",
"608 505 CURVE SMOOTH",
"630 505 LINE SMOOTH",
"643 505 OFFCURVE",
"654 513 OFFCURVE",
"656 525 CURVE SMOOTH",
"665 582 OFFCURVE",
"620 710 OFFCURVE",
"435 710 CURVE SMOOTH",
"264 710 OFFCURVE",
"150 602 OFFCURVE",
"112 445 CURVE SMOOTH",
"97 385 OFFCURVE",
"82 315 OFFCURVE",
"71 255 CURVE SMOOTH",
"43 99 OFFCURVE",
"110 -10 OFFCURVE",
"282 -10 CURVE SMOOTH"
);
}
);
width = 664;
},
{
guideLines = (
{
position = "{-100, 710}";
},
{
position = "{-100, -10}";
},
{
position = "{-100, 440}";
},
{
position = "{-100, 270}";
},
{
angle = 90;
position = "{284, 0}";
},
{
angle = 90;
position = "{628, 0}";
}
);
hints = (
{
horizontal = 1;
place = "{9223372036854775808.000000, 0.000000}";
type = Tag;
name = hr01;
}
);
layerId = "EC64484B-0978-4CB1-9EE9-C40A2D8C4059";
name = "Bold Italic";
paths = (
{
closed = 1;
nodes = (
"524 -10 OFFCURVE",
"686 85 OFFCURVE",
"724 265 CURVE SMOOTH",
"752 395 LINE SMOOTH",
"755 410 OFFCURVE",
"746 422 OFFCURVE",
"731 422 CURVE SMOOTH",
"456 422 LINE SMOOTH",
"441 422 OFFCURVE",
"426 410 OFFCURVE",
"423 395 CURVE SMOOTH",
"399 284 LINE SMOOTH",
"396 269 OFFCURVE",
"406 257 OFFCURVE",
"421 257 CURVE SMOOTH",
"468 257 LINE",
"457 205 OFFCURVE",
"417 185 OFFCURVE",
"367 185 CURVE SMOOTH",
"318 185 OFFCURVE",
"294 210 OFFCURVE",
"304 270 CURVE",
"315 327 OFFCURVE",
"327 385 OFFCURVE",
"341 440 CURVE",
"353 490 OFFCURVE",
"384 515 OFFCURVE",
"433 515 CURVE SMOOTH",
"482 515 OFFCURVE",
"491 486 OFFCURVE",
"497 476 CURVE SMOOTH",
"502 469 OFFCURVE",
"509 465 OFFCURVE",
"524 465 CURVE SMOOTH",
"745 465 LINE SMOOTH",
"757 465 OFFCURVE",
"769 475 OFFCURVE",
"772 487 CURVE SMOOTH",
"794 608 OFFCURVE",
"686 710 OFFCURVE",
"475 710 CURVE SMOOTH",
"278 710 OFFCURVE",
"126 622 OFFCURVE",
"82 445 CURVE",
"67 388 OFFCURVE",
"53 319 OFFCURVE",
"43 265 CURVE SMOOTH",
"12 79 OFFCURVE",
"120 -10 OFFCURVE",
"322 -10 CURVE SMOOTH"
);
}
);
width = 753;
}
);
leftKerningGroup = O;
rightKerningGroup = G;
unicode = 0047;
userData = {
com.typemytype.robofont.guides = (
{
angle = 0;
isGlobal = 0;
magnetic = 5;
x = 0;
y = "-10";
},
{
angle = 0;
isGlobal = 0;
magnetic = 5;
x = 0;
y = 260;
},
{
angle = 0;
isGlobal = 0;
magnetic = 5;
x = 0;
y = 440;
},
{
angle = 90;
isGlobal = 0;
magnetic = 5;
x = 334;
y = 0;
},
{
angle = 90;
isGlobal = 0;
magnetic = 5;
x = 133;
y = 0;
},
{
angle = 90;
isGlobal = 0;
magnetic = 5;
x = 604;
y = 0;
},
{
angle = 90;
isGlobal = 0;
magnetic = 5;
x = 67;
y = 0;
}
);
};
},
{
glyphname = H;
lastChange = "2015-11-17 17:19:17 +0000";
layers = (
{
guideLines = (
{
position = "{-230, 350}";
},
{
position = "{-230, 9}";
},
{
position = "{-230, 691}";
},
{
angle = 90;
position = "{-136, 0}";
},
{
angle = 90;
position = "{-91, 0}";
},
{
angle = 90;
position = "{313, 0}";
},
{
angle = 90;
position = "{358, 0}";
}
);
hints = (
{
horizontal = 1;
place = "{490.000000, 0.000000}";
type = Tag;
name = hr00;
}
);
layerId = "581BC726-83A6-4935-8633-5A6508251040";
name = "Light Italic";
paths = (
{
closed = 1;
nodes = (
"84 0 LINE SMOOTH",
"98 0 OFFCURVE",
"109 9 OFFCURVE",
"112 22 CURVE SMOOTH",
"176 325 LINE",
"562 325 LINE",
"498 22 LINE SMOOTH",
"495 9 OFFCURVE",
"502 0 OFFCURVE",
"515 0 CURVE SMOOTH",
"533 0 LINE SMOOTH",
"547 0 OFFCURVE",
"558 9 OFFCURVE",
"561 22 CURVE SMOOTH",
"700 677 LINE SMOOTH",
"703 691 OFFCURVE",
"696 700 OFFCURVE",
"682 700 CURVE SMOOTH",
"664 700 LINE",
"651 700 OFFCURVE",
"640 691 OFFCURVE",
"637 677 CURVE SMOOTH",
"575 385 LINE",
"189 385 LINE",
"251 677 LINE SMOOTH",
"254 691 OFFCURVE",
"247 700 OFFCURVE",
"233 700 CURVE SMOOTH",
"215 700 LINE SMOOTH",
"202 700 OFFCURVE",
"191 691 OFFCURVE",
"188 677 CURVE SMOOTH",
"49 22 LINE SMOOTH",
"46 9 OFFCURVE",
"53 0 OFFCURVE",
"66 0 CURVE SMOOTH"
);
}
);
width = 700;
},
{
hints = (
{
horizontal = 1;
place = "{9223372036854775808.000000, 0.000000}";
type = Tag;
name = hr00;
}
);
layerId = "EC64484B-0978-4CB1-9EE9-C40A2D8C4059";
name = "Bold Italic";
paths = (
{
closed = 1;
nodes = (
"228 0 LINE SMOOTH",
"243 0 OFFCURVE",
"258 12 OFFCURVE",
"261 27 CURVE SMOOTH",
"307 243 LINE",
"469 243 LINE",
"423 27 LINE SMOOTH",
"420 12 OFFCURVE",
"429 0 OFFCURVE",
"444 0 CURVE SMOOTH",
"640 0 LINE SMOOTH",
"655 0 OFFCURVE",
"670 12 OFFCURVE",
"673 27 CURVE SMOOTH",
"810 673 LINE SMOOTH",
"813 688 OFFCURVE",
"804 700 OFFCURVE",
"789 700 CURVE SMOOTH",
"593 700 LINE SMOOTH",
"578 700 OFFCURVE",
"563 688 OFFCURVE",
"560 673 CURVE SMOOTH",
"515 463 LINE",
"353 463 LINE",
"398 673 LINE SMOOTH",
"401 688 OFFCURVE",
"392 700 OFFCURVE",
"377 700 CURVE SMOOTH",
"181 700 LINE SMOOTH",
"166 700 OFFCURVE",
"151 688 OFFCURVE",
"148 673 CURVE SMOOTH",
"11 27 LINE SMOOTH",
"7 11 OFFCURVE",
"17 0 OFFCURVE",
"32 0 CURVE SMOOTH"
);
}
);
width = 772;
}
);
leftKerningGroup = I;
rightKerningGroup = I;
unicode = 0048;
userData = {
com.typemytype.robofont.guides = (
{
angle = 0;
isGlobal = 0;
magnetic = 5;
x = 0;
y = 350;
},
{
angle = 0;
isGlobal = 0;
magnetic = 5;
x = 0;
y = 9;
},
{
angle = 0;
isGlobal = 0;
magnetic = 5;
x = 0;
y = 691;
},
{
angle = 90;
isGlobal = 0;
magnetic = 5;
x = 94;
y = 0;
},
{
angle = 90;
isGlobal = 0;
magnetic = 5;
x = 139;
y = 0;
},
{
angle = 90;
isGlobal = 0;
magnetic = 5;
x = 543;
y = 0;
},
{
angle = 90;
isGlobal = 0;
magnetic = 5;
x = 588;
y = 0;
}
);
};
},
{
glyphname = Hbar;
lastChange = "2015-11-17 17:19:16 +0000";
layers = (
{
hints = (
{
horizontal = 1;
place = "{361.000000, 0.000000}";
type = Tag;
name = hr00;
}
);
layerId = "581BC726-83A6-4935-8633-5A6508251040";
name = "Light Italic";
paths = (
{
closed = 1;
nodes = (
"89 0 LINE SMOOTH",
"103 0 OFFCURVE",
"114 9 OFFCURVE",
"117 22 CURVE SMOOTH",
"181 325 LINE",
"567 325 LINE",
"503 22 LINE SMOOTH",
"500 9 OFFCURVE",
"507 0 OFFCURVE",
"520 0 CURVE SMOOTH",
"538 0 LINE SMOOTH",
"552 0 OFFCURVE",
"563 9 OFFCURVE",
"566 22 CURVE SMOOTH",
"670 511 LINE",
"727 511 LINE SMOOTH",
"741 511 OFFCURVE",
"752 520 OFFCURVE",
"754 533 CURVE SMOOTH",
"757 548 LINE SMOOTH",
"760 562 OFFCURVE",
"753 571 OFFCURVE",
"739 571 CURVE SMOOTH",
"682 571 LINE",
"705 677 LINE SMOOTH",
"708 691 OFFCURVE",
"701 700 OFFCURVE",
"687 700 CURVE SMOOTH",
"669 700 LINE SMOOTH",
"656 700 OFFCURVE",
"645 691 OFFCURVE",
"642 677 CURVE SMOOTH",
"619 571 LINE",
"233 571 LINE",
"256 677 LINE SMOOTH",
"259 691 OFFCURVE",
"252 700 OFFCURVE",
"238 700 CURVE SMOOTH",
"220 700 LINE SMOOTH",
"207 700 OFFCURVE",
"196 691 OFFCURVE",
"193 677 CURVE SMOOTH",
"170 571 LINE",
"112 571 LINE SMOOTH",
"99 571 OFFCURVE",
"88 562 OFFCURVE",
"85 548 CURVE SMOOTH",
"82 533 LINE SMOOTH",
"80 520 OFFCURVE",
"87 511 OFFCURVE",
"100 511 CURVE SMOOTH",
"158 511 LINE",
"54 22 LINE SMOOTH",
"51 9 OFFCURVE",
"58 0 OFFCURVE",
"71 0 CURVE SMOOTH"
);
},
{
closed = 1;
nodes = (
"221 511 LINE",
"607 511 LINE",
"580 385 LINE",
"194 385 LINE"
);
}
);
width = 710;
},
{
guideLines = (
{
position = "{-100, 581}";
}
);
hints = (
{
horizontal = 1;
place = "{9223372036854775808.000000, 0.000000}";
type = Tag;
name = hr00;
}
);
layerId = "EC64484B-0978-4CB1-9EE9-C40A2D8C4059";
name = "Bold Italic";
paths = (
{
closed = 1;
nodes = (
"228 0 LINE SMOOTH",
"243 0 OFFCURVE",
"258 12 OFFCURVE",
"261 27 CURVE SMOOTH",
"307 243 LINE",
"469 243 LINE",
"423 27 LINE SMOOTH",
"420 12 OFFCURVE",
"429 0 OFFCURVE",
"444 0 CURVE SMOOTH",
"640 0 LINE SMOOTH",
"655 0 OFFCURVE",
"670 12 OFFCURVE",
"673 27 CURVE SMOOTH",
"810 673 LINE SMOOTH",
"813 688 OFFCURVE",
"804 700 OFFCURVE",
"789 700 CURVE SMOOTH",
"593 700 LINE",
"578 700 OFFCURVE",
"563 688 OFFCURVE",
"560 673 CURVE SMOOTH",
"554 644 LINE",
"392 644 LINE",
"398 673 LINE SMOOTH",
"401 688 OFFCURVE",
"392 700 OFFCURVE",
"377 700 CURVE SMOOTH",
"181 700 LINE SMOOTH",
"166 700 OFFCURVE",
"151 688 OFFCURVE",
"148 673 CURVE SMOOTH",
"11 27 LINE SMOOTH",
"7 11 OFFCURVE",
"17 0 OFFCURVE",
"32 0 CURVE SMOOTH"
);
},
{
closed = 1;
nodes = (
"365 519 LINE",
"527 519 LINE",
"515 463 LINE",
"353 463 LINE"
);
}
);
width = 772;
}
);
leftKerningGroup = I;
rightKerningGroup = I;
unicode = 0126;
},
{
glyphname = I;
lastChange = "2015-11-17 17:19:17 +0000";
layers = (
{
guideLines = (
{
angle = 90;
position = "{-145, 0}";
},
{
angle = 90;
position = "{-82, 0}";
}
);
hints = (
{
horizontal = 1;
place = "{468.000000, 0.000000}";
type = Tag;
name = hr00;
}
);
layerId = "581BC726-83A6-4935-8633-5A6508251040";
name = "Light Italic";
paths = (
{
closed = 1;
nodes = (
"85 0 LINE SMOOTH",
"98 0 OFFCURVE",
"109 9 OFFCURVE",
"112 22 CURVE SMOOTH",
"251 678 LINE SMOOTH",
"254 691 OFFCURVE",
"247 700 OFFCURVE",
"234 700 CURVE SMOOTH",
"215 700 LINE SMOOTH",
"202 700 OFFCURVE",
"191 691 OFFCURVE",
"188 678 CURVE SMOOTH",
"49 22 LINE SMOOTH",
"46 9 OFFCURVE",
"53 0 OFFCURVE",
"66 0 CURVE SMOOTH"
);
}
);
width = 251;
},
{
guideLines = (
{
angle = 90;
position = "{218, 0}";
},
{
angle = 90;
position = "{-30, 0}";
}
);
hints = (
{
horizontal = 1;
place = "{9223372036854775808.000000, 0.000000}";
type = Tag;
name = hr00;
}
);
layerId = "EC64484B-0978-4CB1-9EE9-C40A2D8C4059";
name = "Bold Italic";
paths = (
{
closed = 1;
nodes = (
"236 0 LINE SMOOTH",
"251 0 OFFCURVE",
"266 12 OFFCURVE",
"269 27 CURVE SMOOTH",
"406 673 LINE SMOOTH",
"409 688 OFFCURVE",
"400 700 OFFCURVE",
"385 700 CURVE SMOOTH",
"181 700 LINE SMOOTH",
"166 700 OFFCURVE",
"151 688 OFFCURVE",
"148 673 CURVE SMOOTH",
"11 27 LINE SMOOTH",
"8 12 OFFCURVE",
"17 0 OFFCURVE",
"32 0 CURVE SMOOTH"
);
}
);
width = 368;
}
);
leftKerningGroup = I;
rightKerningGroup = I;
unicode = 0049;
userData = {
com.typemytype.robofont.guides = (
{
angle = 90;
isGlobal = 0;
magnetic = 5;
x = 85;
y = 0;
},
{
angle = 90;
isGlobal = 0;
magnetic = 5;
x = 148;
y = 0;
}
);
};
},
{
color = (255,153,153,1);
glyphname = IJ;
lastChange = "2015-11-17 17:19:16 +0000";
layers = (
{
guideLines = (
{
angle = 90;
position = "{412, 0}";
}
);
hints = (
{
horizontal = 1;
place = "{-210.000000, 0.000000}";
type = Tag;
name = hr01;
}
);
layerId = "581BC726-83A6-4935-8633-5A6508251040";
name = "Light Italic";
paths = (
{
closed = 1;
nodes = (
"364 -10 OFFCURVE",
"472 99 OFFCURVE",
"505 255 CURVE",
"595 677 LINE",
"598 691 OFFCURVE",
"591 700 OFFCURVE",
"577 700 CURVE",
"559 700 LINE",
"546 700 OFFCURVE",
"535 691 OFFCURVE",
"532 678 CURVE",
"442 256 LINE",
"417 135 OFFCURVE",
"337 50 OFFCURVE",
"220 50 CURVE SMOOTH",
"207 50 OFFCURVE",
"196 41 OFFCURVE",
"193 27 CURVE",
"190 12 LINE",
"187 -1 OFFCURVE",
"194 -10 OFFCURVE",
"207 -10 CURVE SMOOTH"
);
},
{
closed = 1;
nodes = (
"85 0 LINE",
"98 0 OFFCURVE",
"109 9 OFFCURVE",
"112 22 CURVE",
"251 678 LINE",
"254 691 OFFCURVE",
"247 700 OFFCURVE",
"234 700 CURVE",
"215 700 LINE",
"202 700 OFFCURVE",
"191 691 OFFCURVE",
"188 678 CURVE",
"49 22 LINE",
"46 9 OFFCURVE",
"53 0 OFFCURVE",
"66 0 CURVE"
);
}
);
width = 589;
},
{
hints = (
{
horizontal = 1;
place = "{9223372036854775808.000000, 0.000000}";
type = Tag;
name = hr01;
}
);
layerId = "EC64484B-0978-4CB1-9EE9-C40A2D8C4059";
name = "Bold Italic";
paths = (
{
closed = 1;
nodes = (
"576 -10 OFFCURVE",
"718 45 OFFCURVE",
"763 258 CURVE SMOOTH",
"851 673 LINE SMOOTH",
"854 688 OFFCURVE",
"845 700 OFFCURVE",
"830 700 CURVE SMOOTH",
"625 700 LINE SMOOTH",
"610 700 OFFCURVE",
"595 688 OFFCURVE",
"592 673 CURVE",
"512 298 LINE SMOOTH",
"497 227 OFFCURVE",
"470 205 OFFCURVE",
"414 205 CURVE SMOOTH",
"399 205 OFFCURVE",
"384 193 OFFCURVE",
"381 178 CURVE SMOOTH",
"347 17 LINE SMOOTH",
"343 2 OFFCURVE",
"353 -10 OFFCURVE",
"368 -10 CURVE SMOOTH"
);
},
{
closed = 1;
nodes = (
"236 0 LINE SMOOTH",
"251 0 OFFCURVE",
"266 12 OFFCURVE",
"269 27 CURVE SMOOTH",
"406 673 LINE SMOOTH",
"409 688 OFFCURVE",
"400 700 OFFCURVE",
"385 700 CURVE SMOOTH",
"181 700 LINE SMOOTH",
"166 700 OFFCURVE",
"151 688 OFFCURVE",
"148 673 CURVE SMOOTH",
"11 27 LINE SMOOTH",
"8 12 OFFCURVE",
"17 0 OFFCURVE",
"32 0 CURVE SMOOTH"
);
}
);
width = 807;
}
);
leftKerningGroup = I;
unicode = 0132;
userData = {
com.typemytype.robofont.guides = (
{
angle = 90;
isGlobal = 0;
magnetic = 5;
x = 642;
y = 0;
}
);
com.typemytype.robofont.mark = (
1,
0.6,
0.6,
1
);
};
},
{
glyphname = Iogonek;
lastChange = "2015-11-17 17:19:16 +0000";
layers = (
{
guideLines = (
{
angle = 90;
position = "{-120, 0}";
}
);
hints = (
{
horizontal = 1;
place = "{-210.000000, 0.000000}";
type = Tag;
name = hr01;
}
);
layerId = "581BC726-83A6-4935-8633-5A6508251040";
name = "Light Italic";
paths = (
{
closed = 1;
nodes = (
"56 -220 LINE SMOOTH",
"69 -220 OFFCURVE",
"80 -211 OFFCURVE",
"83 -198 CURVE SMOOTH",
"86 -185 LINE SMOOTH",
"88 -172 OFFCURVE",
"81 -163 OFFCURVE",
"68 -163 CURVE SMOOTH",
"53 -163 LINE SMOOTH",
"9 -163 OFFCURVE",
"-16 -133 OFFCURVE",
"-5 -82 CURVE SMOOTH",
"5 -31 OFFCURVE",
"44 0 OFFCURVE",
"88 0 CURVE SMOOTH",
"103 0 LINE SMOOTH",
"116 0 OFFCURVE",
"127 9 OFFCURVE",
"130 22 CURVE SMOOTH",
"269 678 LINE SMOOTH",
"272 691 OFFCURVE",
"265 700 OFFCURVE",
"252 700 CURVE SMOOTH",
"233 700 LINE SMOOTH",
"220 700 OFFCURVE",
"209 691 OFFCURVE",
"206 678 CURVE SMOOTH",
"74 55 LINE",
"4 46 OFFCURVE",
"-49 -5 OFFCURVE",
"-65 -82 CURVE SMOOTH",
"-83 -167 OFFCURVE",
"-44 -220 OFFCURVE",
"37 -220 CURVE SMOOTH"
);
}
);
width = 269;
},
{
hints = (
{
horizontal = 1;
place = "{9223372036854775808.000000, 0.000000}";
type = Tag;
name = hr01;
}
);
layerId = "EC64484B-0978-4CB1-9EE9-C40A2D8C4059";
name = "Bold Italic";
paths = (
{
closed = 1;
nodes = (
"189 -222 LINE SMOOTH",
"204 -222 OFFCURVE",
"218 -210 OFFCURVE",
"222 -195 CURVE SMOOTH",
"236 -127 LINE SMOOTH",
"239 -112 OFFCURVE",
"230 -100 OFFCURVE",
"215 -100 CURVE SMOOTH",
"205 -100 LINE",
"166 -100 OFFCURVE",
"161 -71 OFFCURVE",
"165 -50 CURVE SMOOTH",
"170 -29 OFFCURVE",
"187 0 OFFCURVE",
"226 0 CURVE SMOOTH",
"236 0 LINE SMOOTH",
"251 0 OFFCURVE",
"266 12 OFFCURVE",
"269 27 CURVE SMOOTH",
"406 673 LINE SMOOTH",
"409 688 OFFCURVE",
"400 700 OFFCURVE",
"385 700 CURVE SMOOTH",
"181 700 LINE SMOOTH",
"166 700 OFFCURVE",
"151 688 OFFCURVE",
"148 673 CURVE SMOOTH",
"11 27 LINE SMOOTH",
"8 12 OFFCURVE",
"17 0 OFFCURVE",
"32 0 CURVE SMOOTH",
"55 0 LINE",
"49 -16 OFFCURVE",
"43 -32 OFFCURVE",
"39 -50 CURVE SMOOTH",
"19 -145 OFFCURVE",
"54 -222 OFFCURVE",
"175 -222 CURVE SMOOTH"
);
}
);
width = 368;
}
);
leftKerningGroup = I;
rightKerningGroup = I;
unicode = 012E;
userData = {
com.typemytype.robofont.guides = (
{
angle = 90;
isGlobal = 0;
magnetic = 5;
x = 110;
y = 0;
}
);
};
},
{
glyphname = J;
lastChange = "2015-11-17 17:19:17 +0000";
layers = (
{
guideLines = (
{
position = "{-230, -10}";
},
{
position = "{-230, 133}";
},
{
position = "{-230, 677}";
},
{
angle = 90;
position = "{73, 0}";
},
{
angle = 90;
position = "{-170, 0}";
},
{
angle = 90;
position = "{-139, 0}";
}
);
hints = (
{
horizontal = 1;
place = "{45.000000, 0.000000}";
type = Tag;
name = hr00;
}
);
layerId = "581BC726-83A6-4935-8633-5A6508251040";
name = "Light Italic";
paths = (
{
closed = 1;
nodes = (
"393 -10 OFFCURVE",
"501 99 OFFCURVE",
"534 255 CURVE",
"624 677 LINE SMOOTH",
"627 691 OFFCURVE",
"620 700 OFFCURVE",
"606 700 CURVE SMOOTH",
"197 700 LINE SMOOTH",
"184 700 OFFCURVE",
"173 691 OFFCURVE",
"170 678 CURVE SMOOTH",
"167 662 LINE SMOOTH",
"164 649 OFFCURVE",
"171 640 OFFCURVE",
"184 640 CURVE SMOOTH",
"553 640 LINE",
"471 256 LINE SMOOTH",
"446 135 OFFCURVE",
"366 50 OFFCURVE",
"249 50 CURVE SMOOTH",
"157 50 OFFCURVE",
"85 91 OFFCURVE",
"99 195 CURVE SMOOTH",
"101 207 OFFCURVE",
"95 216 OFFCURVE",
"82 216 CURVE SMOOTH",
"62 216 LINE SMOOTH",
"48 216 OFFCURVE",
"39 206 OFFCURVE",
"36 194 CURVE SMOOTH",
"11 52 OFFCURVE",
"106 -10 OFFCURVE",
"236 -10 CURVE SMOOTH"
);
}
);
width = 618;
},
{
guideLines = (
{
position = "{-100, -10}";
},
{
angle = 90;
position = "{324, 0}";
},
{
angle = 90;
position = "{207, 0}";
},
{
angle = 90;
position = "{70, 0}";
}
);
hints = (
{
horizontal = 1;
place = "{9223372036854775808.000000, 0.000000}";
type = Tag;
name = hr00;
}
);
layerId = "EC64484B-0978-4CB1-9EE9-C40A2D8C4059";
name = "Bold Italic";
paths = (
{
closed = 1;
nodes = (
"457 -10 OFFCURVE",
"619 73 OFFCURVE",
"658 258 CURVE SMOOTH",
"746 673 LINE SMOOTH",
"749 688 OFFCURVE",
"740 700 OFFCURVE",
"725 700 CURVE SMOOTH",
"196 700 LINE SMOOTH",
"181 700 OFFCURVE",
"166 688 OFFCURVE",
"163 673 CURVE SMOOTH",
"131 524 LINE SMOOTH",
"128 509 OFFCURVE",
"138 497 OFFCURVE",
"153 497 CURVE SMOOTH",
"450 497 LINE",
"401 266 LINE SMOOTH",
"388 205 OFFCURVE",
"360 185 OFFCURVE",
"324 185 CURVE SMOOTH",
"291 185 OFFCURVE",
"282 198 OFFCURVE",
"275 225 CURVE SMOOTH",
"270 247 OFFCURVE",
"263 257 OFFCURVE",
"241 257 CURVE SMOOTH",
"37 257 LINE SMOOTH",
"25 257 OFFCURVE",
"13 247 OFFCURVE",
"10 235 CURVE SMOOTH",
"-20 78 OFFCURVE",
"110 -10 OFFCURVE",
"275 -10 CURVE SMOOTH"
);
}
);
width = 702;
}
);
leftKerningGroup = J;
rightKerningGroup = U;
unicode = 004A;
userData = {
com.typemytype.robofont.guides = (
{
angle = 0;
isGlobal = 0;
magnetic = 5;
x = 0;
y = "-10";
},
{
angle = 0;
isGlobal = 0;
magnetic = 5;
x = 0;
y = 133;
},
{
angle = 0;
isGlobal = 0;
magnetic = 5;
x = 0;
y = 677;
},
{
angle = 90;
isGlobal = 0;
magnetic = 5;
x = 303;
y = 0;
},
{
angle = 90;
isGlobal = 0;
magnetic = 5;
x = 60;
y = 0;
},
{
angle = 90;
isGlobal = 0;
magnetic = 5;
x = 91;
y = 0;
}
);
};
},
{
glyphname = K;
lastChange = "2015-11-17 17:19:17 +0000";
layers = (
{
guideLines = (
{
position = "{-230, 365}";
},
{
angle = 90;
position = "{317, 0}";
},
{
angle = 90;
position = "{-136, 0}";
},
{
angle = 90;
position = "{-91, 0}";
}
);
hints = (
{
horizontal = 1;
place = "{467.000000, 0.000000}";
type = Tag;
name = hr00;
}
);
layerId = "581BC726-83A6-4935-8633-5A6508251040";
name = "Light Italic";
paths = (
{
closed = 1;
nodes = (
"84 0 LINE SMOOTH",
"98 0 OFFCURVE",
"109 9 OFFCURVE",
"112 22 CURVE SMOOTH",
"173 311 LINE",
"434 15 LINE SMOOTH",
"438 11 OFFCURVE",
"448 0 OFFCURVE",
"469 0 CURVE SMOOTH",
"486 0 LINE SMOOTH",
"497 0 OFFCURVE",
"508 9 OFFCURVE",
"510 20 CURVE SMOOTH",
"511 24 OFFCURVE",
"511 29 OFFCURVE",
"507 34 CURVE SMOOTH",
"218 365 LINE",
"621 667 LINE SMOOTH",
"626 671 OFFCURVE",
"628 676 OFFCURVE",
"629 680 CURVE SMOOTH",
"631 691 OFFCURVE",
"624 700 OFFCURVE",
"613 700 CURVE SMOOTH",
"597 700 LINE SMOOTH",
"576 700 OFFCURVE",
"561 689 OFFCURVE",
"556 685 CURVE SMOOTH",
"196 417 LINE",
"251 677 LINE SMOOTH",
"254 691 OFFCURVE",
"247 700 OFFCURVE",
"233 700 CURVE SMOOTH",
"215 700 LINE SMOOTH",
"202 700 OFFCURVE",
"191 691 OFFCURVE",
"188 677 CURVE SMOOTH",
"49 22 LINE SMOOTH",
"46 9 OFFCURVE",
"53 0 OFFCURVE",
"66 0 CURVE SMOOTH"
);
}
);
width = 575;
},
{
hints = (
{
horizontal = 1;
place = "{9223372036854775808.000000, 0.000000}";
type = Tag;
name = hr00;
}
);
layerId = "EC64484B-0978-4CB1-9EE9-C40A2D8C4059";
name = "Bold Italic";
paths = (
{
closed = 1;
nodes = (
"223 0 LINE SMOOTH",
"238 0 OFFCURVE",
"253 12 OFFCURVE",
"256 27 CURVE SMOOTH",
"301 241 LINE",
"377 23 LINE SMOOTH",
"379 17 OFFCURVE",
"386 0 OFFCURVE",
"413 0 CURVE SMOOTH",
"641 0 LINE SMOOTH",
"653 0 OFFCURVE",
"665 10 OFFCURVE",
"668 22 CURVE SMOOTH",
"668 25 OFFCURVE",
"668 30 OFFCURVE",
"667 33 CURVE SMOOTH",
"541 365 LINE",
"785 667 LINE SMOOTH",
"787 670 OFFCURVE",
"789 674 OFFCURVE",
"790 678 CURVE SMOOTH",
"793 690 OFFCURVE",
"785 700 OFFCURVE",
"773 700 CURVE SMOOTH",
"552 700 LINE SMOOTH",
"530 700 OFFCURVE",
"515 689 OFFCURVE",
"507 678 CURVE SMOOTH",
"351 475 LINE",
"393 673 LINE SMOOTH",
"396 688 OFFCURVE",
"387 700 OFFCURVE",
"372 700 CURVE SMOOTH",
"181 700 LINE SMOOTH",
"166 700 OFFCURVE",
"151 688 OFFCURVE",
"148 673 CURVE SMOOTH",
"11 27 LINE SMOOTH",
"8 12 OFFCURVE",
"17 0 OFFCURVE",
"32 0 CURVE SMOOTH"
);
}
);
width = 715;
}
);
leftKerningGroup = I;
rightKerningGroup = K;
unicode = 004B;
userData = {
com.typemytype.robofont.guides = (
{
angle = 0;
isGlobal = 0;
magnetic = 5;
x = 0;
y = 365;
},
{
angle = 90;
isGlobal = 0;
magnetic = 5;
x = 547;
y = 0;
},
{
angle = 90;
isGlobal = 0;
magnetic = 5;
x = 94;
y = 0;
},
{
angle = 90;
isGlobal = 0;
magnetic = 5;
x = 139;
y = 0;
}
);
};
},
{
glyphname = L;
lastChange = "2015-11-17 17:19:16 +0000";
layers = (
{
hints = (
{
horizontal = 1;
place = "{468.000000, 0.000000}";
type = Tag;
name = hr00;
}
);
layerId = "581BC726-83A6-4935-8633-5A6508251040";
name = "Light Italic";
paths = (
{
closed = 1;
nodes = (
"452 0 LINE",
"466 0 OFFCURVE",
"477 9 OFFCURVE",
"480 22 CURVE",
"483 37 LINE",
"486 51 OFFCURVE",
"479 60 OFFCURVE",
"465 60 CURVE",
"120 60 LINE",
"251 678 LINE",
"254 691 OFFCURVE",
"247 700 OFFCURVE",
"234 700 CURVE",
"215 700 LINE",
"202 700 OFFCURVE",
"191 691 OFFCURVE",
"188 678 CURVE",
"49 22 LINE",
"46 9 OFFCURVE",
"53 0 OFFCURVE",
"66 0 CURVE"
);
}
);
width = 548;
},
{
hints = (
{
horizontal = 1;
place = "{9223372036854775808.000000, 0.000000}";
type = Tag;
name = hr00;
}
);
layerId = "EC64484B-0978-4CB1-9EE9-C40A2D8C4059";
name = "Bold Italic";
paths = (
{
closed = 1;
nodes = (
"536 0 LINE SMOOTH",
"551 0 OFFCURVE",
"566 12 OFFCURVE",
"569 27 CURVE SMOOTH",
"601 178 LINE SMOOTH",
"604 193 OFFCURVE",
"595 205 OFFCURVE",
"580 205 CURVE SMOOTH",
"303 205 LINE",
"402 673 LINE SMOOTH",
"405 688 OFFCURVE",
"396 700 OFFCURVE",
"381 700 CURVE SMOOTH",
"181 700 LINE SMOOTH",
"166 700 OFFCURVE",
"151 688 OFFCURVE",
"148 673 CURVE SMOOTH",
"11 27 LINE SMOOTH",
"8 12 OFFCURVE",
"17 0 OFFCURVE",
"32 0 CURVE SMOOTH"
);
}
);
width = 626;
}
);
leftKerningGroup = I;
rightKerningGroup = L;
unicode = 004C;
},
{
glyphname = Lcaron;
lastChange = "2015-11-17 17:19:17 +0000";
layers = (
{
components = (
{
name = L;
},
{
name = commaaccentcomb.cap;
transform = "{1, 0, 0, 1, 350, 760}";
}
);
layerId = "581BC726-83A6-4935-8633-5A6508251040";
name = "Light Italic";
width = 548;
},
{
components = (
{
name = commaaccentcomb.cap;
transform = "{1, 0, 0, 1, 484, 760}";
}
);
hints = (
{
horizontal = 1;
place = "{9223372036854775808.000000, 0.000000}";
type = Tag;
name = hr00;
}
);
layerId = "EC64484B-0978-4CB1-9EE9-C40A2D8C4059";
name = "Bold Italic";
paths = (
{
closed = 1;
nodes = (
"536 0 LINE SMOOTH",
"551 0 OFFCURVE",
"566 12 OFFCURVE",
"569 27 CURVE SMOOTH",
"601 178 LINE SMOOTH",
"604 193 OFFCURVE",
"595 205 OFFCURVE",
"580 205 CURVE SMOOTH",
"303 205 LINE",
"402 673 LINE SMOOTH",
"405 688 OFFCURVE",
"396 700 OFFCURVE",
"381 700 CURVE SMOOTH",
"181 700 LINE SMOOTH",
"166 700 OFFCURVE",
"151 688 OFFCURVE",
"148 673 CURVE SMOOTH",
"11 27 LINE SMOOTH",
"8 12 OFFCURVE",
"17 0 OFFCURVE",
"32 0 CURVE SMOOTH"
);
}
);
width = 632;
}
);
leftKerningGroup = I;
rightKerningGroup = L;
unicode = 013D;
},
{
glyphname = Ldot;
lastChange = "2015-11-17 17:19:16 +0000";
layers = (
{
components = (
{
name = L;
},
{
name = dotaccent;
transform = "{1, 0, 0, 1, 144, -304}";
}
);
guideLines = (
{
position = "{0, 360}";
}
);
layerId = "581BC726-83A6-4935-8633-5A6508251040";
name = "Light Italic";
width = 548;
},
{
components = (
{
name = L;
}
);
guideLines = (
{
position = "{-100, 400}";
}
);
hints = (
{
horizontal = 1;
place = "{9223372036854775808.000000, 0.000000}";
type = Tag;
name = hr00;
}
);
layerId = "EC64484B-0978-4CB1-9EE9-C40A2D8C4059";
name = "Bold Italic";
paths = (
{
closed = 1;
nodes = (
"540 309 LINE SMOOTH",
"553 309 OFFCURVE",
"565 319 OFFCURVE",
"568 332 CURVE SMOOTH",
"596 468 LINE SMOOTH",
"599 481 OFFCURVE",
"591 491 OFFCURVE",
"578 491 CURVE SMOOTH",
"442 491 LINE SMOOTH",
"429 491 OFFCURVE",
"417 481 OFFCURVE",
"414 468 CURVE SMOOTH",
"386 332 LINE SMOOTH",
"383 319 OFFCURVE",
"391 309 OFFCURVE",
"404 309 CURVE SMOOTH"
);
}
);
width = 627;
}
);
leftKerningGroup = I;
rightKerningGroup = L;
unicode = 013F;
userData = {
com.typemytype.robofont.guides = (
{
angle = 0;
isGlobal = 0;
magnetic = 5;
x = 0;
y = 360;
}
);
};
},
{
glyphname = Lslash;
lastChange = "2015-11-17 17:19:16 +0000";
layers = (
{
guideLines = (
{
position = "{-230, 215}";
},
{
position = "{-230, 548}";
},
{
position = "{-230, 438}";
},
{
position = "{-230, 267}";
},
{
position = "{-230, 353}";
},
{
angle = 90;
position = "{-101, 0}";
},
{
angle = 90;
position = "{95, 0}";
},
{
angle = 90;
position = "{-235, 0}";
}
);
hints = (
{
horizontal = 1;
place = "{-210.000000, 0.000000}";
type = Tag;
name = hr00;
}
);
layerId = "581BC726-83A6-4935-8633-5A6508251040";
name = "Light Italic";
paths = (
{
closed = 1;
nodes = (
"461 0 LINE SMOOTH",
"474 0 OFFCURVE",
"485 9 OFFCURVE",
"488 22 CURVE SMOOTH",
"491 38 LINE SMOOTH",
"494 51 OFFCURVE",
"487 60 OFFCURVE",
"474 60 CURVE SMOOTH",
"128 60 LINE",
"182 317 LINE",
"350 377 LINE SMOOTH",
"367 383 OFFCURVE",
"374 387 OFFCURVE",
"377 402 CURVE SMOOTH",
"381 421 LINE SMOOTH",
"384 433 OFFCURVE",
"377 439 OFFCURVE",
"366 439 CURVE SMOOTH",
"362 439 OFFCURVE",
"358 438 OFFCURVE",
"353 436 CURVE SMOOTH",
"196 380 LINE",
"259 678 LINE SMOOTH",
"262 691 OFFCURVE",
"255 700 OFFCURVE",
"242 700 CURVE SMOOTH",
"223 700 LINE SMOOTH",
"210 700 OFFCURVE",
"199 691 OFFCURVE",
"196 678 CURVE SMOOTH",
"127 355 LINE",
"54 329 LINE SMOOTH",
"37 323 OFFCURVE",
"30 319 OFFCURVE",
"27 304 CURVE SMOOTH",
"23 285 LINE SMOOTH",
"20 273 OFFCURVE",
"27 267 OFFCURVE",
"38 267 CURVE SMOOTH",
"42 267 OFFCURVE",
"46 268 OFFCURVE",
"51 270 CURVE SMOOTH",
"114 292 LINE",
"57 22 LINE SMOOTH",
"54 9 OFFCURVE",
"61 0 OFFCURVE",
"74 0 CURVE SMOOTH"
);
}
);
width = 556;
},
{
guideLines = (
{
position = "{-100, 215}";
},
{
position = "{-100, 380}";
},
{
angle = 90;
position = "{-35, 0}";
},
{
angle = 90;
position = "{-85, 0}";
}
);
hints = (
{
horizontal = 1;
place = "{9223372036854775808.000000, 0.000000}";
type = Tag;
name = hr00;
}
);
layerId = "EC64484B-0978-4CB1-9EE9-C40A2D8C4059";
name = "Bold Italic";
paths = (
{
closed = 1;
nodes = (
"544 0 LINE SMOOTH",
"559 0 OFFCURVE",
"574 12 OFFCURVE",
"577 27 CURVE SMOOTH",
"609 178 LINE SMOOTH",
"612 193 OFFCURVE",
"603 205 OFFCURVE",
"588 205 CURVE SMOOTH",
"311 205 LINE",
"336 325 LINE",
"504 386 LINE SMOOTH",
"521 392 OFFCURVE",
"529 401 OFFCURVE",
"533 419 CURVE SMOOTH",
"556 527 LINE SMOOTH",
"559 539 OFFCURVE",
"551 548 OFFCURVE",
"539 548 CURVE SMOOTH",
"537 548 OFFCURVE",
"533 547 OFFCURVE",
"528 545 CURVE SMOOTH",
"371 488 LINE",
"410 673 LINE SMOOTH",
"413 688 OFFCURVE",
"404 700 OFFCURVE",
"389 700 CURVE SMOOTH",
"189 700 LINE SMOOTH",
"174 700 OFFCURVE",
"159 688 OFFCURVE",
"156 673 CURVE SMOOTH",
"95 388 LINE",
"65 377 LINE SMOOTH",
"48 371 OFFCURVE",
"40 362 OFFCURVE",
"36 344 CURVE SMOOTH",
"13 236 LINE SMOOTH",
"11 224 OFFCURVE",
"18 215 OFFCURVE",
"30 215 CURVE SMOOTH",
"32 215 OFFCURVE",
"36 216 OFFCURVE",
"41 218 CURVE SMOOTH",
"61 225 LINE",
"19 27 LINE SMOOTH",
"16 12 OFFCURVE",
"25 0 OFFCURVE",
"40 0 CURVE SMOOTH"
);
}
);
width = 634;
}
);
leftKerningGroup = I;
rightKerningGroup = L;
unicode = 0141;
userData = {
com.typemytype.robofont.guides = (
{
angle = 0;
isGlobal = 0;
magnetic = 5;
x = 0;
y = 215;
},
{
angle = 0;
isGlobal = 0;
magnetic = 5;
x = 0;
y = 548;
},
{
angle = 0;
isGlobal = 0;
magnetic = 5;
x = 0;
y = 438;
},
{
angle = 0;
isGlobal = 0;
magnetic = 5;
x = 0;
y = 267;
},
{
angle = 0;
isGlobal = 0;
magnetic = 5;
x = 0;
y = 353;
},
{
angle = 90;
isGlobal = 0;
magnetic = 5;
x = 129;
y = 0;
},
{
angle = 90;
isGlobal = 0;
magnetic = 5;
x = 325;
y = 0;
},
{
angle = 90;
isGlobal = 0;
magnetic = 5;
x = "-5";
y = 0;
}
);
};
},
{
glyphname = M;
lastChange = "2015-11-17 17:19:16 +0000";
layers = (
{
guideLines = (
{
position = "{-230, 168}";
},
{
position = "{-230, 9}";
},
{
position = "{-230, 691}";
},
{
angle = 90;
position = "{-104, 0}";
},
{
angle = 90;
position = "{406, 0}";
}
);
hints = (
{
horizontal = 1;
place = "{-42.000000, 0.000000}";
type = Tag;
name = hr00;
}
);
layerId = "581BC726-83A6-4935-8633-5A6508251040";
name = "Light Italic";
paths = (
{
closed = 1;
nodes = (
"85 0 LINE SMOOTH",
"98 0 OFFCURVE",
"109 9 OFFCURVE",
"112 22 CURVE SMOOTH",
"227 564 LINE",
"338 188 LINE SMOOTH",
"341 175 OFFCURVE",
"349 168 OFFCURVE",
"365 168 CURVE SMOOTH",
"387 168 LINE SMOOTH",
"403 168 OFFCURVE",
"413 175 OFFCURVE",
"422 188 CURVE SMOOTH",
"693 564 LINE",
"578 22 LINE SMOOTH",
"575 9 OFFCURVE",
"582 0 OFFCURVE",
"595 0 CURVE SMOOTH",
"613 0 LINE SMOOTH",
"627 0 OFFCURVE",
"638 9 OFFCURVE",
"641 22 CURVE SMOOTH",
"780 677 LINE SMOOTH",
"783 691 OFFCURVE",
"776 700 OFFCURVE",
"762 700 CURVE SMOOTH",
"738 700 LINE SMOOTH",
"725 700 OFFCURVE",
"717 691 OFFCURVE",
"714 687 CURVE SMOOTH",
"392 245 LINE",
"259 687 LINE SMOOTH",
"258 691 OFFCURVE",
"254 700 OFFCURVE",
"241 700 CURVE SMOOTH",
"216 700 LINE SMOOTH",
"202 700 OFFCURVE",
"191 691 OFFCURVE",
"188 677 CURVE SMOOTH",
"49 22 LINE SMOOTH",
"46 9 OFFCURVE",
"53 0 OFFCURVE",
"67 0 CURVE SMOOTH"
);
}
);
width = 780;
},
{
guideLines = (
{
position = "{-100, 193}";
},
{
angle = 90;
position = "{338, 0}";
},
{
angle = 90;
position = "{373, 0}";
},
{
angle = 90;
position = "{303, 0}";
},
{
angle = 90;
position = "{200, 0}";
},
{
angle = 90;
position = "{476, 0}";
},
{
angle = 90;
position = "{150, 0}";
}
);
hints = (
{
horizontal = 1;
place = "{9223372036854775808.000000, 0.000000}";
type = Tag;
name = hr00;
}
);
layerId = "EC64484B-0978-4CB1-9EE9-C40A2D8C4059";
name = "Bold Italic";
paths = (
{
closed = 1;
nodes = (
"213 0 LINE SMOOTH",
"228 0 OFFCURVE",
"243 12 OFFCURVE",
"246 27 CURVE SMOOTH",
"304 301 LINE",
"347 193 LINE SMOOTH",
"352 182 OFFCURVE",
"359 168 OFFCURVE",
"379 168 CURVE SMOOTH",
"449 168 LINE SMOOTH",
"469 168 OFFCURVE",
"482 182 OFFCURVE",
"491 193 CURVE SMOOTH",
"580 301 LINE",
"522 27 LINE SMOOTH",
"519 12 OFFCURVE",
"528 0 OFFCURVE",
"543 0 CURVE SMOOTH",
"724 0 LINE SMOOTH",
"739 0 OFFCURVE",
"754 12 OFFCURVE",
"757 27 CURVE SMOOTH",
"894 673 LINE SMOOTH",
"897 688 OFFCURVE",
"888 700 OFFCURVE",
"873 700 CURVE SMOOTH",
"715 700 LINE SMOOTH",
"688 700 OFFCURVE",
"672 680 OFFCURVE",
"666 673 CURVE SMOOTH",
"470 433 LINE",
"376 673 LINE SMOOTH",
"374 680 OFFCURVE",
"366 700 OFFCURVE",
"339 700 CURVE SMOOTH",
"181 700 LINE SMOOTH",
"166 700 OFFCURVE",
"151 688 OFFCURVE",
"148 673 CURVE SMOOTH",
"11 27 LINE SMOOTH",
"8 12 OFFCURVE",
"17 0 OFFCURVE",
"32 0 CURVE SMOOTH"
);
}
);
width = 856;
}
);
leftKerningGroup = I;
rightKerningGroup = I;
unicode = 004D;
userData = {
com.typemytype.robofont.guides = (
{
angle = 0;
isGlobal = 0;
magnetic = 5;
x = 0;
y = 168;
},
{
angle = 0;
isGlobal = 0;
magnetic = 5;
x = 0;
y = 9;
},
{
angle = 0;
isGlobal = 0;
magnetic = 5;
x = 0;
y = 691;
},
{
angle = 90;
isGlobal = 0;
magnetic = 5;
x = 126;
y = 0;
},
{
angle = 90;
isGlobal = 0;
magnetic = 5;
x = 636;
y = 0;
}
);
};
},
{
glyphname = N;
lastChange = "2015-11-17 17:19:16 +0000";
layers = (
{
guideLines = (
{
position = "{-230, 9}";
},
{
position = "{-230, 691}";
},
{
angle = 90;
position = "{310, 0}";
},
{
angle = 90;
position = "{-105, 0}";
}
);
hints = (
{
horizontal = 1;
place = "{-198.000000, 0.000000}";
type = Tag;
name = hr00;
}
);
layerId = "581BC726-83A6-4935-8633-5A6508251040";
name = "Light Italic";
paths = (
{
closed = 1;
nodes = (
"84 0 LINE SMOOTH",
"98 0 OFFCURVE",
"109 9 OFFCURVE",
"112 22 CURVE SMOOTH",
"229 574 LINE",
"478 12 LINE",
"479 9 OFFCURVE",
"483 0 OFFCURVE",
"496 0 CURVE SMOOTH",
"518 0 LINE SMOOTH",
"531 0 OFFCURVE",
"542 9 OFFCURVE",
"545 23 CURVE SMOOTH",
"684 677 LINE SMOOTH",
"687 691 OFFCURVE",
"680 700 OFFCURVE",
"666 700 CURVE SMOOTH",
"648 700 LINE SMOOTH",
"635 700 OFFCURVE",
"624 691 OFFCURVE",
"621 677 CURVE SMOOTH",
"503 124 LINE",
"254 688 LINE SMOOTH",
"253 691 OFFCURVE",
"249 700 OFFCURVE",
"236 700 CURVE SMOOTH",
"215 700 LINE SMOOTH",
"202 700 OFFCURVE",
"191 691 OFFCURVE",
"188 677 CURVE SMOOTH",
"49 22 LINE SMOOTH",
"46 9 OFFCURVE",
"53 0 OFFCURVE",
"66 0 CURVE SMOOTH"
);
}
);
width = 684;
},
{
guideLines = (
{
angle = 90;
position = "{360, 0}";
},
{
angle = 90;
position = "{200, 0}";
}
);
hints = (
{
horizontal = 1;
place = "{9223372036854775808.000000, 0.000000}";
type = Tag;
name = hr00;
}
);
layerId = "EC64484B-0978-4CB1-9EE9-C40A2D8C4059";
name = "Bold Italic";
paths = (
{
closed = 1;
nodes = (
"213 0 LINE SMOOTH",
"228 0 OFFCURVE",
"243 12 OFFCURVE",
"246 27 CURVE SMOOTH",
"299 278 LINE",
"414 23 LINE SMOOTH",
"417 17 OFFCURVE",
"423 0 OFFCURVE",
"450 0 CURVE SMOOTH",
"608 0 LINE SMOOTH",
"623 0 OFFCURVE",
"638 12 OFFCURVE",
"641 27 CURVE SMOOTH",
"778 673 LINE SMOOTH",
"781 688 OFFCURVE",
"772 700 OFFCURVE",
"757 700 CURVE SMOOTH",
"576 700 LINE SMOOTH",
"561 700 OFFCURVE",
"546 688 OFFCURVE",
"543 673 CURVE SMOOTH",
"485 400 LINE",
"375 677 LINE SMOOTH",
"372 684 OFFCURVE",
"366 700 OFFCURVE",
"339 700 CURVE SMOOTH",
"181 700 LINE SMOOTH",
"166 700 OFFCURVE",
"151 688 OFFCURVE",
"148 673 CURVE SMOOTH",
"11 27 LINE SMOOTH",
"8 12 OFFCURVE",
"17 0 OFFCURVE",
"32 0 CURVE SMOOTH"
);
}
);
width = 740;
}
);
leftKerningGroup = I;
rightKerningGroup = I;
unicode = 004E;
userData = {
com.typemytype.robofont.guides = (
{
angle = 0;
isGlobal = 0;
magnetic = 5;
x = 0;
y = 9;
},
{
angle = 0;
isGlobal = 0;
magnetic = 5;
x = 0;
y = 691;
},
{
angle = 90;
isGlobal = 0;
magnetic = 5;
x = 540;
y = 0;
},
{
angle = 90;
isGlobal = 0;
magnetic = 5;
x = 125;
y = 0;
}
);
};
},
{
glyphname = Eng;
lastChange = "2015-11-17 17:19:16 +0000";
layers = (
{
hints = (
{
horizontal = 1;
place = "{-267.000000, 0.000000}";
type = Tag;
name = hr00;
}
);
layerId = "581BC726-83A6-4935-8633-5A6508251040";
name = "Light Italic";
paths = (
{
closed = 1;
nodes = (
"341 -225 LINE",
"466 -225 OFFCURVE",
"508 -151 OFFCURVE",
"528 -57 CURVE",
"684 677 LINE",
"687 691 OFFCURVE",
"680 700 OFFCURVE",
"666 700 CURVE",
"648 700 LINE",
"635 700 OFFCURVE",
"624 691 OFFCURVE",
"621 677 CURVE",
"503 124 LINE",
"254 688 LINE",
"253 691 OFFCURVE",
"249 700 OFFCURVE",
"236 700 CURVE",
"215 700 LINE",
"202 700 OFFCURVE",
"191 691 OFFCURVE",
"188 677 CURVE",
"49 22 LINE",
"46 9 OFFCURVE",
"53 0 OFFCURVE",
"66 0 CURVE",
"84 0 LINE",
"98 0 OFFCURVE",
"109 9 OFFCURVE",
"112 22 CURVE",
"229 574 LINE",
"479 8 LINE",
"465 -57 LINE",
"452 -118 OFFCURVE",
"430 -165 OFFCURVE",
"354 -165 CURVE",
"350 -165 LINE",
"337 -165 OFFCURVE",
"326 -174 OFFCURVE",
"323 -187 CURVE",
"320 -203 LINE",
"317 -216 OFFCURVE",
"324 -225 OFFCURVE",
"337 -225 CURVE"
);
}
);
width = 684;
},
{
guideLines = (
{
position = "{-100, 26}";
}
);
hints = (
{
horizontal = 1;
place = "{9223372036854775808.000000, 0.000000}";
type = Tag;
name = hr00;
}
);
layerId = "EC64484B-0978-4CB1-9EE9-C40A2D8C4059";
name = "Bold Italic";
paths = (
{
closed = 1;
nodes = (
"261 -225 LINE SMOOTH",
"443 -225 OFFCURVE",
"604 -145 OFFCURVE",
"641 26 CURVE SMOOTH",
"778 673 LINE SMOOTH",
"781 688 OFFCURVE",
"772 700 OFFCURVE",
"757 700 CURVE SMOOTH",
"576 700 LINE SMOOTH",
"561 700 OFFCURVE",
"546 688 OFFCURVE",
"543 673 CURVE SMOOTH",
"485 400 LINE",
"375 677 LINE SMOOTH",
"372 684 OFFCURVE",
"366 700 OFFCURVE",
"339 700 CURVE SMOOTH",
"181 700 LINE SMOOTH",
"166 700 OFFCURVE",
"151 688 OFFCURVE",
"148 673 CURVE SMOOTH",
"11 27 LINE SMOOTH",
"8 12 OFFCURVE",
"17 0 OFFCURVE",
"32 0 CURVE SMOOTH",
"213 0 LINE SMOOTH",
"228 0 OFFCURVE",
"243 12 OFFCURVE",
"246 27 CURVE SMOOTH",
"299 278 LINE",
"408 36 LINE",
"400 2 OFFCURVE",
"371 -22 OFFCURVE",
"328 -22 CURVE SMOOTH",
"288 -22 LINE SMOOTH",
"273 -22 OFFCURVE",
"259 -34 OFFCURVE",
"256 -49 CURVE",
"224 -198 LINE SMOOTH",
"221 -213 OFFCURVE",
"230 -225 OFFCURVE",
"245 -225 CURVE SMOOTH"
);
}
);
width = 740;
}
);
leftKerningGroup = I;
rightKerningGroup = I;
unicode = 014A;
},
{
glyphname = O;
lastChange = "2015-11-17 17:19:17 +0000";
layers = (
{
guideLines = (
{
position = "{-230, -10}";
},
{
position = "{-230, 710}";
},
{
position = "{-230, 335}";
},
{
position = "{-230, 434}";
},
{
position = "{-230, 266}";
},
{
angle = 90;
position = "{266, 0}";
}
);
hints = (
{
horizontal = 1;
place = "{500.000000, 0.000000}";
type = Tag;
name = hr00;
}
);
layerId = "581BC726-83A6-4935-8633-5A6508251040";
name = "Light Italic";
paths = (
{
closed = 1;
nodes = (
"445 -10 OFFCURVE",
"556 77 OFFCURVE",
"602 266 CURVE SMOOTH",
"616 326 OFFCURVE",
"626 374 OFFCURVE",
"637 434 CURVE SMOOTH",
"672 620 OFFCURVE",
"588 710 OFFCURVE",
"432 710 CURVE SMOOTH",
"276 710 OFFCURVE",
"154 620 OFFCURVE",
"109 434 CURVE SMOOTH",
"94 374 OFFCURVE",
"84 326 OFFCURVE",
"74 266 CURVE SMOOTH",
"38 77 OFFCURVE",
"113 -10 OFFCURVE",
"279 -10 CURVE SMOOTH"
);
},
{
closed = 1;
nodes = (
"178 50 OFFCURVE",
"109 115 OFFCURVE",
"138 271 CURVE SMOOTH",
"148 331 OFFCURVE",
"156 369 OFFCURVE",
"171 429 CURVE SMOOTH",
"209 585 OFFCURVE",
"306 650 OFFCURVE",
"419 650 CURVE SMOOTH",
"532 650 OFFCURVE",
"601 585 OFFCURVE",
"573 429 CURVE SMOOTH",
"562 369 OFFCURVE",
"554 331 OFFCURVE",
"540 271 CURVE SMOOTH",
"501 115 OFFCURVE",
"406 50 OFFCURVE",
"292 50 CURVE SMOOTH"
);
}
);
width = 662;
},
{
guideLines = (
{
position = "{-100, -10}";
},
{
position = "{-100, 710}";
},
{
position = "{-100, 515}";
},
{
position = "{-100, 434}";
}
);
hints = (
{
horizontal = 1;
place = "{9223372036854775808.000000, 0.000000}";
type = Tag;
name = hr00;
}
);
layerId = "EC64484B-0978-4CB1-9EE9-C40A2D8C4059";
name = "Bold Italic";
paths = (
{
closed = 1;
nodes = (
"515 -10 OFFCURVE",
"664 81 OFFCURVE",
"710 260 CURVE SMOOTH",
"724 314 OFFCURVE",
"738 379 OFFCURVE",
"748 436 CURVE SMOOTH",
"778 611 OFFCURVE",
"668 710 OFFCURVE",
"472 710 CURVE SMOOTH",
"276 710 OFFCURVE",
"124 611 OFFCURVE",
"80 436 CURVE SMOOTH",
"66 379 OFFCURVE",
"52 314 OFFCURVE",
"42 260 CURVE SMOOTH",
"12 81 OFFCURVE",
"123 -10 OFFCURVE",
"319 -10 CURVE SMOOTH"
);
},
{
closed = 1;
nodes = (
"316 185 OFFCURVE",
"294 210 OFFCURVE",
"304 266 CURVE SMOOTH",
"314 323 OFFCURVE",
"326 379 OFFCURVE",
"339 434 CURVE SMOOTH",
"353 490 OFFCURVE",
"387 515 OFFCURVE",
"430 515 CURVE SMOOTH",
"473 515 OFFCURVE",
"497 490 OFFCURVE",
"487 434 CURVE SMOOTH",
"478 379 OFFCURVE",
"466 323 OFFCURVE",
"452 266 CURVE SMOOTH",
"438 210 OFFCURVE",
"404 185 OFFCURVE",
"360 185 CURVE SMOOTH"
);
}
);
width = 742;
}
);
leftKerningGroup = O;
rightKerningGroup = O;
unicode = 004F;
userData = {
com.typemytype.robofont.guides = (
{
angle = 0;
isGlobal = 0;
magnetic = 5;
x = 0;
y = "-10";
},
{
angle = 0;
isGlobal = 0;
magnetic = 5;
x = 0;
y = 710;
},
{
angle = 0;
isGlobal = 0;
magnetic = 5;
x = 0;
y = 335;
},
{
angle = 0;
isGlobal = 0;
magnetic = 5;
x = 0;
y = 434;
},
{
angle = 0;
isGlobal = 0;
magnetic = 5;
x = 0;
y = 266;
},
{
angle = 90;
isGlobal = 0;
magnetic = 5;
x = 496;
y = 0;
}
);
};
},
{
glyphname = Oslash;
lastChange = "2015-11-17 17:19:17 +0000";
layers = (
{
guideLines = (
{
position = "{-230, 145}";
},
{
angle = 90;
position = "{121, 0}";
},
{
angle = 90;
position = "{449, 0}";
},
{
angle = 90;
position = "{-145, 0}";
},
{
angle = 90;
position = "{-210, 0}";
}
);
hints = (
{
horizontal = 1;
place = "{500.000000, 0.000000}";
type = Tag;
name = hr00;
}
);
layerId = "581BC726-83A6-4935-8633-5A6508251040";
name = "Light Italic";
paths = (
{
closed = 1;
nodes = (
"456 -10 OFFCURVE",
"567 77 OFFCURVE",
"613 266 CURVE SMOOTH",
"627 323 OFFCURVE",
"637 370 OFFCURVE",
"647 427 CURVE",
"692 443 LINE SMOOTH",
"709 449 OFFCURVE",
"716 453 OFFCURVE",
"719 468 CURVE SMOOTH",
"724 487 LINE SMOOTH",
"726 499 OFFCURVE",
"719 505 OFFCURVE",
"708 505 CURVE SMOOTH",
"704 505 OFFCURVE",
"700 504 OFFCURVE",
"695 502 CURVE SMOOTH",
"655 488 LINE",
"664 637 OFFCURVE",
"583 710 OFFCURVE",
"443 710 CURVE SMOOTH",
"287 710 OFFCURVE",
"165 620 OFFCURVE",
"120 434 CURVE SMOOTH",
"107 380 OFFCURVE",
"96 336 OFFCURVE",
"87 284 CURVE",
"40 267 LINE SMOOTH",
"22 261 OFFCURVE",
"16 257 OFFCURVE",
"12 242 CURVE SMOOTH",
"8 223 LINE SMOOTH",
"6 211 OFFCURVE",
"13 205 OFFCURVE",
"24 205 CURVE SMOOTH",
"28 205 OFFCURVE",
"32 206 OFFCURVE",
"37 208 CURVE SMOOTH",
"78 222 LINE",
"61 63 OFFCURVE",
"137 -10 OFFCURVE",
"290 -10 CURVE SMOOTH"
);
},
{
closed = 1;
nodes = (
"195 50 OFFCURVE",
"128 108 OFFCURVE",
"144 246 CURVE",
"580 403 LINE",
"571 357 OFFCURVE",
"562 322 OFFCURVE",
"551 271 CURVE SMOOTH",
"512 115 OFFCURVE",
"417 50 OFFCURVE",
"303 50 CURVE SMOOTH"
);
},
{
closed = 1;
nodes = (
"162 349 OFFCURVE",
"170 383 OFFCURVE",
"182 429 CURVE SMOOTH",
"220 585 OFFCURVE",
"317 650 OFFCURVE",
"430 650 CURVE SMOOTH",
"534 650 OFFCURVE",
"600 595 OFFCURVE",
"589 464 CURVE",
"155 309 LINE"
);
}
);
width = 682;
},
{
hints = (
{
horizontal = 1;
place = "{9223372036854775808.000000, 0.000000}";
type = Tag;
name = hr00;
}
);
layerId = "EC64484B-0978-4CB1-9EE9-C40A2D8C4059";
name = "Bold Italic";
paths = (
{
closed = 1;
nodes = (
"537 -10 OFFCURVE",
"686 81 OFFCURVE",
"732 260 CURVE",
"743 305 OFFCURVE",
"755 359 OFFCURVE",
"765 409 CURVE",
"787 417 LINE",
"804 423 OFFCURVE",
"812 432 OFFCURVE",
"816 450 CURVE",
"839 558 LINE",
"841 570 OFFCURVE",
"834 579 OFFCURVE",
"822 579 CURVE SMOOTH",
"820 579 OFFCURVE",
"816 578 OFFCURVE",
"810 576 CURVE",
"765 559 LINE",
"734 656 OFFCURVE",
"637 710 OFFCURVE",
"494 710 CURVE SMOOTH",
"298 710 OFFCURVE",
"146 611 OFFCURVE",
"102 436 CURVE SMOOTH",
"91 395 OFFCURVE",
"82 351 OFFCURVE",
"73 309 CURVE",
"48 300 LINE",
"30 294 OFFCURVE",
"23 285 OFFCURVE",
"19 267 CURVE",
"-4 159 LINE",
"-7 147 OFFCURVE",
"0 138 OFFCURVE",
"12 138 CURVE SMOOTH",
"14 138 OFFCURVE",
"19 139 OFFCURVE",
"24 141 CURVE",
"64 155 LINE",
"86 45 OFFCURVE",
"187 -10 OFFCURVE",
"341 -10 CURVE SMOOTH"
);
},
{
closed = 1;
nodes = (
"342 185 OFFCURVE",
"321 205 OFFCURVE",
"323 249 CURVE",
"483 307 LINE",
"480 293 OFFCURVE",
"477 280 OFFCURVE",
"474 266 CURVE SMOOTH",
"460 210 OFFCURVE",
"426 185 OFFCURVE",
"382 185 CURVE SMOOTH"
);
},
{
closed = 1;
nodes = (
"357 418 OFFCURVE",
"359 426 OFFCURVE",
"361 434 CURVE",
"375 490 OFFCURVE",
"409 515 OFFCURVE",
"452 515 CURVE SMOOTH",
"485 515 OFFCURVE",
"507 500 OFFCURVE",
"510 467 CURVE",
"355 411 LINE"
);
}
);
width = 780;
}
);
leftKerningGroup = O;
rightKerningGroup = O;
unicode = 00D8;
userData = {
com.typemytype.robofont.guides = (
{
angle = 0;
isGlobal = 0;
magnetic = 5;
x = 0;
y = 145;
},
{
angle = 90;
isGlobal = 0;
magnetic = 5;
x = 351;
y = 0;
},
{
angle = 90;
isGlobal = 0;
magnetic = 5;
x = 679;
y = 0;
},
{
angle = 90;
isGlobal = 0;
magnetic = 5;
x = 85;
y = 0;
},
{
angle = 90;
isGlobal = 0;
magnetic = 5;
x = 20;
y = 0;
}
);
};
},
{
glyphname = OE;
lastChange = "2015-11-17 17:19:15 +0000";
layers = (
{
guideLines = (
{
angle = 90;
position = "{612, 0}";
},
{
angle = 90;
position = "{-164, 0}";
},
{
angle = 90;
position = "{209, 0}";
},
{
angle = 90;
position = "{272, 0}";
}
);
hints = (
{
horizontal = 1;
place = "{-210.000000, 0.000000}";
type = Tag;
name = hr00;
}
);
layerId = "581BC726-83A6-4935-8633-5A6508251040";
name = "Light Italic";
paths = (
{
closed = 1;
nodes = (
"773 0 LINE",
"787 0 OFFCURVE",
"798 9 OFFCURVE",
"801 22 CURVE",
"804 37 LINE",
"807 51 OFFCURVE",
"800 60 OFFCURVE",
"786 60 CURVE",
"469 60 LINE",
"525 325 LINE",
"812 325 LINE",
"826 325 OFFCURVE",
"837 334 OFFCURVE",
"840 347 CURVE",
"843 362 LINE",
"846 376 OFFCURVE",
"839 385 OFFCURVE",
"825 385 CURVE",
"538 385 LINE",
"592 640 LINE",
"901 640 LINE",
"915 640 OFFCURVE",
"926 649 OFFCURVE",
"929 662 CURVE",
"932 677 LINE",
"935 691 OFFCURVE",
"928 700 OFFCURVE",
"914 700 CURVE",
"447 700 LINE",
"235 700 OFFCURVE",
"151 604 OFFCURVE",
"111 430 CURVE SMOOTH",
"98 370 OFFCURVE",
"89 331 OFFCURVE",
"78 271 CURVE SMOOTH",
"42 87 OFFCURVE",
"87 0 OFFCURVE",
"293 0 CURVE"
);
},
{
closed = 1;
nodes = (
"152 60 OFFCURVE",
"112 120 OFFCURVE",
"142 276 CURVE SMOOTH",
"153 336 OFFCURVE",
"160 365 OFFCURVE",
"173 425 CURVE SMOOTH",
"207 571 OFFCURVE",
"279 640 OFFCURVE",
"439 640 CURVE",
"529 640 LINE",
"406 60 LINE",
"311 60 LINE"
);
}
);
width = 900;
},
{
guideLines = (
{
angle = 90;
position = "{322, 0}";
},
{
angle = 90;
position = "{-52, 0}";
}
);
hints = (
{
horizontal = 1;
place = "{9223372036854775808.000000, 0.000000}";
type = Tag;
name = hr00;
}
);
layerId = "EC64484B-0978-4CB1-9EE9-C40A2D8C4059";
name = "Bold Italic";
paths = (
{
closed = 1;
nodes = (
"887 0 LINE",
"902 0 OFFCURVE",
"917 12 OFFCURVE",
"920 27 CURVE",
"950 168 LINE",
"953 183 OFFCURVE",
"943 195 OFFCURVE",
"928 195 CURVE",
"640 195 LINE",
"654 258 LINE",
"912 258 LINE",
"927 258 OFFCURVE",
"941 270 OFFCURVE",
"945 285 CURVE",
"972 415 LINE",
"975 430 OFFCURVE",
"966 442 OFFCURVE",
"951 442 CURVE",
"693 442 LINE",
"706 505 LINE",
"986 505 LINE",
"1001 505 OFFCURVE",
"1016 517 OFFCURVE",
"1019 532 CURVE",
"1049 673 LINE",
"1052 688 OFFCURVE",
"1043 700 OFFCURVE",
"1028 700 CURVE",
"468 700 LINE",
"281 700 OFFCURVE",
"120 604 OFFCURVE",
"75 425 CURVE SMOOTH",
"61 368 OFFCURVE",
"53 330 OFFCURVE",
"44 276 CURVE SMOOTH",
"11 87 OFFCURVE",
"123 0 OFFCURVE",
"314 0 CURVE"
);
},
{
closed = 1;
nodes = (
"316 195 OFFCURVE",
"289 220 OFFCURVE",
"298 276 CURVE SMOOTH",
"307 333 OFFCURVE",
"315 370 OFFCURVE",
"329 425 CURVE SMOOTH",
"344 481 OFFCURVE",
"386 505 OFFCURVE",
"431 505 CURVE",
"467 505 LINE",
"401 195 LINE",
"360 195 LINE"
);
}
);
width = 1002;
}
);
leftKerningGroup = O;
rightKerningGroup = E;
unicode = 0152;
userData = {
com.typemytype.robofont.guides = (
{
angle = 90;
isGlobal = 0;
magnetic = 5;
x = 842;
y = 0;
},
{
angle = 90;
isGlobal = 0;
magnetic = 5;
x = 66;
y = 0;
},
{
angle = 90;
isGlobal = 0;
magnetic = 5;
x = 439;
y = 0;
},
{
angle = 90;
isGlobal = 0;
magnetic = 5;
x = 502;
y = 0;
}
);
};
},
{
glyphname = P;
lastChange = "2015-11-17 17:19:16 +0000";
layers = (
{
guideLines = (
{
position = "{-230, 493}";
},
{
position = "{-230, 403}";
},
{
position = "{-230, 218}";
},
{
position = "{-230, 310}";
},
{
position = "{-230, 9}";
},
{
position = "{-230, 691}";
},
{
angle = 90;
position = "{115, 0}";
},
{
angle = 90;
position = "{-136, 0}";
},
{
angle = 90;
position = "{-91, 0}";
}
);
hints = (
{
horizontal = 1;
place = "{490.000000, 0.000000}";
type = Tag;
name = hr00;
}
);
layerId = "581BC726-83A6-4935-8633-5A6508251040";
name = "Light Italic";
paths = (
{
closed = 1;
nodes = (
"84 0 LINE SMOOTH",
"98 0 OFFCURVE",
"109 9 OFFCURVE",
"112 22 CURVE SMOOTH",
"168 286 LINE",
"370 286 LINE SMOOTH",
"510 286 OFFCURVE",
"615 357 OFFCURVE",
"644 493 CURVE SMOOTH",
"673 629 OFFCURVE",
"598 700 OFFCURVE",
"458 700 CURVE SMOOTH",
"215 700 LINE SMOOTH",
"202 700 OFFCURVE",
"191 691 OFFCURVE",
"188 677 CURVE SMOOTH",
"49 22 LINE SMOOTH",
"46 9 OFFCURVE",
"53 0 OFFCURVE",
"66 0 CURVE SMOOTH"
);
},
{
closed = 1;
nodes = (
"243 640 LINE",
"440 640 LINE SMOOTH",
"556 640 OFFCURVE",
"601 588 OFFCURVE",
"581 493 CURVE SMOOTH",
"561 398 OFFCURVE",
"494 346 OFFCURVE",
"378 346 CURVE SMOOTH",
"181 346 LINE"
);
}
);
width = 628;
},
{
guideLines = (
{
position = "{-100, 459}";
},
{
angle = 90;
position = "{290, 0}";
}
);
hints = (
{
horizontal = 1;
place = "{9223372036854775808.000000, 0.000000}";
type = Tag;
name = hr00;
}
);
layerId = "EC64484B-0978-4CB1-9EE9-C40A2D8C4059";
name = "Bold Italic";
paths = (
{
closed = 1;
nodes = (
"238 0 LINE SMOOTH",
"253 0 OFFCURVE",
"268 12 OFFCURVE",
"271 27 CURVE SMOOTH",
"311 218 LINE",
"381 218 LINE SMOOTH",
"562 218 OFFCURVE",
"697 289 OFFCURVE",
"733 455 CURVE SMOOTH",
"768 621 OFFCURVE",
"665 700 OFFCURVE",
"484 700 CURVE SMOOTH",
"181 700 LINE SMOOTH",
"166 700 OFFCURVE",
"151 688 OFFCURVE",
"148 673 CURVE SMOOTH",
"11 27 LINE SMOOTH",
"8 12 OFFCURVE",
"17 0 OFFCURVE",
"32 0 CURVE SMOOTH"
);
},
{
closed = 1;
nodes = (
"369 514 LINE",
"439 514 LINE SMOOTH",
"475 514 OFFCURVE",
"478 482 OFFCURVE",
"473 457 CURVE SMOOTH",
"465 418 OFFCURVE",
"437 403 OFFCURVE",
"416 403 CURVE SMOOTH",
"346 403 LINE"
);
}
);
width = 705;
}
);
leftKerningGroup = I;
unicode = 0050;
userData = {
com.typemytype.robofont.guides = (
{
angle = 0;
isGlobal = 0;
magnetic = 5;
x = 0;
y = 493;
},
{
angle = 0;
isGlobal = 0;
magnetic = 5;
x = 0;
y = 403;
},
{
angle = 0;
isGlobal = 0;
magnetic = 5;
x = 0;
y = 218;
},
{
angle = 0;
isGlobal = 0;
magnetic = 5;
x = 0;
y = 310;
},
{
angle = 0;
isGlobal = 0;
magnetic = 5;
x = 0;
y = 9;
},
{
angle = 0;
isGlobal = 0;
magnetic = 5;
x = 0;
y = 691;
},
{
angle = 90;
isGlobal = 0;
magnetic = 5;
x = 345;
y = 0;
},
{
angle = 90;
isGlobal = 0;
magnetic = 5;
x = 94;
y = 0;
},
{
angle = 90;
isGlobal = 0;
magnetic = 5;
x = 139;
y = 0;
}
);
};
},
{
glyphname = Thorn;
lastChange = "2015-11-17 17:19:16 +0000";
layers = (
{
guideLines = (
{
position = "{-230, 119}";
},
{
position = "{-230, 601}";
},
{
position = "{-230, 570}";
},
{
position = "{-230, 350}";
}
);
hints = (
{
horizontal = 1;
place = "{468.000000, 0.000000}";
type = Tag;
name = hr00;
}
);
layerId = "581BC726-83A6-4935-8633-5A6508251040";
name = "Light Italic";
paths = (
{
closed = 1;
nodes = (
"84 0 LINE",
"98 0 OFFCURVE",
"109 9 OFFCURVE",
"112 22 CURVE",
"137 143 LINE",
"339 143 LINE",
"479 143 OFFCURVE",
"584 214 OFFCURVE",
"613 350 CURVE SMOOTH",
"642 486 OFFCURVE",
"567 557 OFFCURVE",
"427 557 CURVE",
"225 557 LINE",
"251 678 LINE",
"254 691 OFFCURVE",
"247 700 OFFCURVE",
"234 700 CURVE",
"215 700 LINE",
"202 700 OFFCURVE",
"191 691 OFFCURVE",
"188 678 CURVE",
"49 22 LINE",
"46 9 OFFCURVE",
"53 0 OFFCURVE",
"66 0 CURVE"
);
},
{
closed = 1;
nodes = (
"213 497 LINE",
"410 497 LINE",
"526 497 OFFCURVE",
"571 445 OFFCURVE",
"550 350 CURVE SMOOTH",
"530 255 OFFCURVE",
"463 203 OFFCURVE",
"347 203 CURVE",
"150 203 LINE"
);
}
);
width = 633;
},
{
guideLines = (
{
position = "{-100, 119}";
},
{
position = "{-100, 601}";
}
);
hints = (
{
horizontal = 1;
place = "{9223372036854775808.000000, 0.000000}";
type = Tag;
name = hr00;
}
);
layerId = "EC64484B-0978-4CB1-9EE9-C40A2D8C4059";
name = "Bold Italic";
paths = (
{
closed = 1;
nodes = (
"238 0 LINE SMOOTH",
"253 0 OFFCURVE",
"268 12 OFFCURVE",
"271 27 CURVE SMOOTH",
"290 119 LINE",
"355 119 LINE SMOOTH",
"541 119 OFFCURVE",
"676 190 OFFCURVE",
"712 356 CURVE SMOOTH",
"747 522 OFFCURVE",
"644 601 OFFCURVE",
"458 601 CURVE",
"393 601 LINE",
"408 673 LINE SMOOTH",
"411 688 OFFCURVE",
"402 700 OFFCURVE",
"387 700 CURVE SMOOTH",
"181 700 LINE",
"166 700 OFFCURVE",
"151 688 OFFCURVE",
"148 673 CURVE SMOOTH",
"11 27 LINE SMOOTH",
"8 12 OFFCURVE",
"17 0 OFFCURVE",
"32 0 CURVE SMOOTH"
);
},
{
closed = 1;
nodes = (
"348 415 LINE",
"418 415 LINE SMOOTH",
"454 415 OFFCURVE",
"457 383 OFFCURVE",
"452 358 CURVE SMOOTH",
"444 319 OFFCURVE",
"416 304 OFFCURVE",
"395 304 CURVE SMOOTH",
"325 304 LINE"
);
}
);
width = 705;
}
);
leftKerningGroup = I;
unicode = 00DE;
userData = {
com.typemytype.robofont.guides = (
{
angle = 0;
isGlobal = 0;
magnetic = 5;
x = 0;
y = 119;
},
{
angle = 0;
isGlobal = 0;
magnetic = 5;
x = 0;
y = 601;
},
{
angle = 0;
isGlobal = 0;
magnetic = 5;
x = 0;
y = 570;
},
{
angle = 0;
isGlobal = 0;
magnetic = 5;
x = 0;
y = 350;
}
);
};
},
{
glyphname = Q;
lastChange = "2015-11-17 17:19:17 +0000";
layers = (
{
guideLines = (
{
position = "{-230, 710}";
},
{
position = "{-230, -10}";
},
{
position = "{-230, -56}";
},
{
angle = 90;
position = "{-148, 0}";
},
{
angle = 90;
position = "{520, 0}";
},
{
angle = 90;
position = "{350, 0}";
}
);
hints = (
{
horizontal = 1;
place = "{500.000000, 0.000000}";
type = Tag;
name = hr00;
}
);
layerId = "581BC726-83A6-4935-8633-5A6508251040";
name = "Light Italic";
paths = (
{
closed = 1;
nodes = (
"505 -65 LINE",
"516 -65 OFFCURVE",
"527 -56 OFFCURVE",
"529 -45 CURVE SMOOTH",
"531 -39 OFFCURVE",
"529 -36 OFFCURVE",
"529 -34 CURVE",
"484 56 LINE",
"539 101 OFFCURVE",
"578 171 OFFCURVE",
"602 266 CURVE SMOOTH",
"616 326 OFFCURVE",
"626 374 OFFCURVE",
"637 434 CURVE SMOOTH",
"672 620 OFFCURVE",
"588 710 OFFCURVE",
"432 710 CURVE SMOOTH",
"276 710 OFFCURVE",
"154 620 OFFCURVE",
"109 434 CURVE SMOOTH",
"94 374 OFFCURVE",
"84 326 OFFCURVE",
"74 266 CURVE SMOOTH",
"38 77 OFFCURVE",
"113 -10 OFFCURVE",
"279 -10 CURVE SMOOTH",
"334 -10 OFFCURVE",
"382 0 OFFCURVE",
"425 19 CURVE",
"456 -42 LINE",
"460 -50 OFFCURVE",
"468 -65 OFFCURVE",
"483 -65 CURVE"
);
},
{
closed = 1;
nodes = (
"178 50 OFFCURVE",
"109 115 OFFCURVE",
"138 271 CURVE SMOOTH",
"148 331 OFFCURVE",
"156 369 OFFCURVE",
"171 429 CURVE SMOOTH",
"209 585 OFFCURVE",
"306 650 OFFCURVE",
"419 650 CURVE SMOOTH",
"532 650 OFFCURVE",
"601 585 OFFCURVE",
"573 429 CURVE SMOOTH",
"562 369 OFFCURVE",
"554 331 OFFCURVE",
"540 271 CURVE SMOOTH",
"501 115 OFFCURVE",
"406 50 OFFCURVE",
"292 50 CURVE SMOOTH"
);
}
);
width = 662;
},
{
guideLines = (
{
position = "{-100, 710}";
},
{
position = "{-100, -10}";
},
{
position = "{-100, -42}";
},
{
angle = 90;
position = "{-53, 0}";
},
{
angle = 90;
position = "{615, 0}";
}
);
hints = (
{
horizontal = 1;
place = "{9223372036854775808.000000, 0.000000}";
type = Tag;
name = hr01;
}
);
layerId = "EC64484B-0978-4CB1-9EE9-C40A2D8C4059";
name = "Bold Italic";
paths = (
{
closed = 1;
nodes = (
"630 -65 LINE",
"642 -65 OFFCURVE",
"654 -55 OFFCURVE",
"655 -43 CURVE SMOOTH",
"655 -40 OFFCURVE",
"654 -36 OFFCURVE",
"654 -34 CURVE",
"599 79 LINE",
"651 123 OFFCURVE",
"689 184 OFFCURVE",
"709 260 CURVE SMOOTH",
"723 314 OFFCURVE",
"737 379 OFFCURVE",
"747 436 CURVE SMOOTH",
"777 611 OFFCURVE",
"667 710 OFFCURVE",
"471 710 CURVE SMOOTH",
"275 710 OFFCURVE",
"123 611 OFFCURVE",
"79 436 CURVE SMOOTH",
"65 379 OFFCURVE",
"51 314 OFFCURVE",
"41 260 CURVE SMOOTH",
"11 81 OFFCURVE",
"122 -10 OFFCURVE",
"318 -10 CURVE SMOOTH",
"338 -10 OFFCURVE",
"358 -9 OFFCURVE",
"377 -7 CURVE",
"397 -42 LINE",
"401 -50 OFFCURVE",
"409 -65 OFFCURVE",
"434 -65 CURVE"
);
},
{
closed = 1;
nodes = (
"315 185 OFFCURVE",
"293 210 OFFCURVE",
"303 266 CURVE SMOOTH",
"313 323 OFFCURVE",
"325 379 OFFCURVE",
"338 434 CURVE SMOOTH",
"352 490 OFFCURVE",
"386 515 OFFCURVE",
"429 515 CURVE SMOOTH",
"472 515 OFFCURVE",
"496 490 OFFCURVE",
"486 434 CURVE SMOOTH",
"477 379 OFFCURVE",
"465 323 OFFCURVE",
"451 266 CURVE SMOOTH",
"437 210 OFFCURVE",
"403 185 OFFCURVE",
"359 185 CURVE SMOOTH"
);
}
);
width = 742;
}
);
leftKerningGroup = O;
rightKerningGroup = O;
unicode = 0051;
userData = {
com.typemytype.robofont.guides = (
{
angle = 0;
isGlobal = 0;
magnetic = 5;
x = 0;
y = 710;
},
{
angle = 0;
isGlobal = 0;
magnetic = 5;
x = 0;
y = "-10";
},
{
angle = 0;
isGlobal = 0;
magnetic = 5;
x = 0;
y = "-56";
},
{
angle = 90;
isGlobal = 0;
magnetic = 5;
x = 82;
y = 0;
},
{
angle = 90;
isGlobal = 0;
magnetic = 5;
x = 750;
y = 0;
},
{
angle = 90;
isGlobal = 0;
magnetic = 5;
x = 580;
y = 0;
}
);
};
},
{
glyphname = R;
lastChange = "2015-11-17 17:19:17 +0000";
layers = (
{
guideLines = (
{
position = "{-230, 691}";
},
{
position = "{-230, 9}";
},
{
angle = 90;
position = "{386, 0}";
},
{
angle = 90;
position = "{344, 0}";
},
{
angle = 90;
position = "{-136, 0}";
},
{
angle = 90;
position = "{-91, 0}";
}
);
hints = (
{
horizontal = 1;
place = "{490.000000, 0.000000}";
type = Tag;
name = hr00;
}
);
layerId = "581BC726-83A6-4935-8633-5A6508251040";
name = "Light Italic";
paths = (
{
closed = 1;
nodes = (
"84 0 LINE SMOOTH",
"98 0 OFFCURVE",
"109 9 OFFCURVE",
"112 22 CURVE SMOOTH",
"170 296 LINE",
"376 296 LINE",
"478 27 LINE SMOOTH",
"483 13 OFFCURVE",
"488 0 OFFCURVE",
"510 0 CURVE SMOOTH",
"522 0 LINE SMOOTH",
"533 0 OFFCURVE",
"544 9 OFFCURVE",
"546 20 CURVE SMOOTH",
"547 24 OFFCURVE",
"547 27 OFFCURVE",
"546 31 CURVE SMOOTH",
"443 305 LINE",
"543 327 OFFCURVE",
"612 391 OFFCURVE",
"635 498 CURVE SMOOTH",
"664 634 OFFCURVE",
"588 700 OFFCURVE",
"448 700 CURVE SMOOTH",
"215 700 LINE SMOOTH",
"202 700 OFFCURVE",
"191 691 OFFCURVE",
"188 677 CURVE SMOOTH",
"49 22 LINE SMOOTH",
"46 9 OFFCURVE",
"53 0 OFFCURVE",
"66 0 CURVE SMOOTH"
);
},
{
closed = 1;
nodes = (
"243 640 LINE",
"430 640 LINE SMOOTH",
"546 640 OFFCURVE",
"592 593 OFFCURVE",
"572 498 CURVE SMOOTH",
"552 403 OFFCURVE",
"486 356 OFFCURVE",
"370 356 CURVE SMOOTH",
"183 356 LINE"
);
}
);
width = 640;
},
{
guideLines = (
{
angle = 90;
position = "{288, 0}";
},
{
angle = 90;
position = "{594, 0}";
}
);
hints = (
{
horizontal = 1;
place = "{9223372036854775808.000000, 0.000000}";
type = Tag;
name = hr00;
}
);
layerId = "EC64484B-0978-4CB1-9EE9-C40A2D8C4059";
name = "Bold Italic";
paths = (
{
closed = 1;
nodes = (
"228 0 LINE SMOOTH",
"243 0 OFFCURVE",
"258 12 OFFCURVE",
"261 27 CURVE SMOOTH",
"301 218 LINE",
"342 218 LINE",
"388 27 LINE SMOOTH",
"390 18 OFFCURVE",
"398 0 OFFCURVE",
"425 0 CURVE SMOOTH",
"630 0 LINE SMOOTH",
"642 0 OFFCURVE",
"654 10 OFFCURVE",
"657 22 CURVE SMOOTH",
"658 27 OFFCURVE",
"657 29 OFFCURVE",
"656 33 CURVE SMOOTH",
"581 261 LINE",
"653 301 OFFCURVE",
"712 367 OFFCURVE",
"731 457 CURVE SMOOTH",
"763 608 OFFCURVE",
"669 700 OFFCURVE",
"477 700 CURVE SMOOTH",
"181 700 LINE SMOOTH",
"166 700 OFFCURVE",
"151 688 OFFCURVE",
"148 673 CURVE SMOOTH",
"11 27 LINE SMOOTH",
"8 12 OFFCURVE",
"17 0 OFFCURVE",
"32 0 CURVE SMOOTH"
);
},
{
closed = 1;
nodes = (
"364 514 LINE",
"437 514 LINE SMOOTH",
"470 514 OFFCURVE",
"477 485 OFFCURVE",
"472 459 CURVE SMOOTH",
"466 432 OFFCURVE",
"446 408 OFFCURVE",
"415 408 CURVE SMOOTH",
"342 408 LINE"
);
}
);
width = 722;
}
);
leftKerningGroup = I;
rightKerningGroup = R;
unicode = 0052;
userData = {
com.typemytype.robofont.guides = (
{
angle = 0;
isGlobal = 0;
magnetic = 5;
x = 0;
y = 691;
},
{
angle = 0;
isGlobal = 0;
magnetic = 5;
x = 0;
y = 9;
},
{
angle = 90;
isGlobal = 0;
magnetic = 5;
x = 616;
y = 0;
},
{
angle = 90;
isGlobal = 0;
magnetic = 5;
x = 574;
y = 0;
},
{
angle = 90;
isGlobal = 0;
magnetic = 5;
x = 94;
y = 0;
},
{
angle = 90;
isGlobal = 0;
magnetic = 5;
x = 139;
y = 0;
}
);
};
},
{
glyphname = S;
lastChange = "2015-11-17 17:19:16 +0000";
layers = (
{
guideLines = (
{
position = "{-230, 355}";
},
{
angle = 90;
position = "{76, 0}";
}
);
hints = (
{
horizontal = 1;
place = "{500.000000, 0.000000}";
type = Tag;
name = hr00;
}
);
layerId = "581BC726-83A6-4935-8633-5A6508251040";
name = "Light Italic";
paths = (
{
closed = 1;
nodes = (
"407 -10 OFFCURVE",
"518 60 OFFCURVE",
"543 181 CURVE SMOOTH",
"567 291 OFFCURVE",
"504 329 OFFCURVE",
"364 377 CURVE SMOOTH",
"231 423 OFFCURVE",
"177 450 OFFCURVE",
"194 530 CURVE SMOOTH",
"211 612 OFFCURVE",
"288 650 OFFCURVE",
"387 650 CURVE SMOOTH",
"485 650 OFFCURVE",
"542 601 OFFCURVE",
"536 535 CURVE SMOOTH",
"534 519 OFFCURVE",
"546 515 OFFCURVE",
"553 515 CURVE SMOOTH",
"573 515 LINE SMOOTH",
"587 515 OFFCURVE",
"597 525 OFFCURVE",
"599 535 CURVE SMOOTH",
"612 612 OFFCURVE",
"558 710 OFFCURVE",
"400 710 CURVE SMOOTH",
"252 710 OFFCURVE",
"152 631 OFFCURVE",
"131 530 CURVE SMOOTH",
"107 420 OFFCURVE",
"162 379 OFFCURVE",
"295 333 CURVE SMOOTH",
"434 285 OFFCURVE",
"497 260 OFFCURVE",
"480 181 CURVE SMOOTH",
"463 101 OFFCURVE",
"395 50 OFFCURVE",
"265 50 CURVE SMOOTH",
"135 50 OFFCURVE",
"93 114 OFFCURVE",
"97 170 CURVE SMOOTH",
"97 181 OFFCURVE",
"92 190 OFFCURVE",
"79 190 CURVE SMOOTH",
"59 190 LINE SMOOTH",
"47 190 OFFCURVE",
"36 181 OFFCURVE",
"34 170 CURVE SMOOTH",
"18 79 OFFCURVE",
"90 -10 OFFCURVE",
"252 -10 CURVE SMOOTH"
);
}
);
width = 605;
},
{
guideLines = (
{
position = "{-100, 710}";
},
{
position = "{-100, -10}";
},
{
position = "{-100, 487}";
},
{
position = "{-100, 226}";
},
{
angle = 90;
position = "{-1344, 0}";
}
);
hints = (
{
horizontal = 1;
place = "{9223372036854775808.000000, 0.000000}";
type = Tag;
name = hr01;
},
{
horizontal = 1;
place = "{9223372036854775808.000000, 0.000000}";
type = Tag;
name = hr02;
}
);
layerId = "EC64484B-0978-4CB1-9EE9-C40A2D8C4059";
name = "Bold Italic";
paths = (
{
closed = 1;
nodes = (
"484 -10 OFFCURVE",
"646 80 OFFCURVE",
"677 226 CURVE SMOOTH",
"705 356 OFFCURVE",
"642 419 OFFCURVE",
"447 444 CURVE SMOOTH",
"360 455 OFFCURVE",
"341 468 OFFCURVE",
"346 487 CURVE SMOOTH",
"349 504 OFFCURVE",
"365 515 OFFCURVE",
"399 515 CURVE SMOOTH",
"427 515 OFFCURVE",
"443 503 OFFCURVE",
"449 497 CURVE SMOOTH",
"458 486 OFFCURVE",
"466 481 OFFCURVE",
"485 481 CURVE SMOOTH",
"685 481 LINE SMOOTH",
"696 481 OFFCURVE",
"708 491 OFFCURVE",
"711 503 CURVE SMOOTH",
"726 590 OFFCURVE",
"641 710 OFFCURVE",
"441 710 CURVE SMOOTH",
"259 710 OFFCURVE",
"116 616 OFFCURVE",
"87 480 CURVE SMOOTH",
"59 347 OFFCURVE",
"145 281 OFFCURVE",
"298 260 CURVE SMOOTH",
"395 247 OFFCURVE",
"422 237 OFFCURVE",
"417 213 CURVE SMOOTH",
"413 195 OFFCURVE",
"381 185 OFFCURVE",
"336 185 CURVE SMOOTH",
"303 185 OFFCURVE",
"283 193 OFFCURVE",
"267 208 CURVE SMOOTH",
"256 219 OFFCURVE",
"249 225 OFFCURVE",
"228 225 CURVE SMOOTH",
"38 225 LINE SMOOTH",
"26 225 OFFCURVE",
"14 215 OFFCURVE",
"11 203 CURVE SMOOTH",
"-9 92 OFFCURVE",
"74 -10 OFFCURVE",
"295 -10 CURVE SMOOTH"
);
}
);
width = 697;
}
);
leftKerningGroup = S;
rightKerningGroup = S;
unicode = 0053;
userData = {
com.typemytype.robofont.guides = (
{
angle = 0;
isGlobal = 0;
magnetic = 5;
x = 0;
y = 355;
},
{
angle = 90;
isGlobal = 0;
magnetic = 5;
x = 306;
y = 0;
}
);
};
},
{
glyphname = Scedilla;
lastChange = "2015-11-17 17:19:16 +0000";
layers = (
{
guideLines = (
{
angle = 90;
position = "{76, 0}";
}
);
hints = (
{
horizontal = 1;
place = "{500.000000, 0.000000}";
type = Tag;
name = hr00;
}
);
layerId = "581BC726-83A6-4935-8633-5A6508251040";
name = "Light Italic";
paths = (
{
closed = 1;
nodes = (
"267 -221 OFFCURVE",
"307 -180 OFFCURVE",
"317 -132 CURVE SMOOTH",
"327 -84 OFFCURVE",
"302 -50 OFFCURVE",
"258 -50 CURVE SMOOTH",
"243 -50 OFFCURVE",
"228 -53 OFFCURVE",
"219 -58 CURVE",
"252 -10 LINE",
"407 -10 OFFCURVE",
"518 60 OFFCURVE",
"543 181 CURVE SMOOTH",
"567 291 OFFCURVE",
"504 329 OFFCURVE",
"364 377 CURVE SMOOTH",
"231 423 OFFCURVE",
"177 450 OFFCURVE",
"194 530 CURVE SMOOTH",
"211 612 OFFCURVE",
"288 650 OFFCURVE",
"387 650 CURVE SMOOTH",
"485 650 OFFCURVE",
"542 601 OFFCURVE",
"536 535 CURVE SMOOTH",
"534 519 OFFCURVE",
"546 515 OFFCURVE",
"553 515 CURVE",
"573 515 LINE",
"587 515 OFFCURVE",
"597 525 OFFCURVE",
"599 535 CURVE SMOOTH",
"612 612 OFFCURVE",
"558 710 OFFCURVE",
"400 710 CURVE SMOOTH",
"252 710 OFFCURVE",
"152 631 OFFCURVE",
"131 530 CURVE SMOOTH",
"107 420 OFFCURVE",
"162 379 OFFCURVE",
"295 333 CURVE SMOOTH",
"434 285 OFFCURVE",
"497 260 OFFCURVE",
"480 181 CURVE SMOOTH",
"463 101 OFFCURVE",
"395 50 OFFCURVE",
"265 50 CURVE SMOOTH",
"135 50 OFFCURVE",
"93 114 OFFCURVE",
"97 170 CURVE SMOOTH",
"97 181 OFFCURVE",
"92 190 OFFCURVE",
"79 190 CURVE",
"59 190 LINE",
"47 190 OFFCURVE",
"36 181 OFFCURVE",
"34 170 CURVE SMOOTH",
"19 89 OFFCURVE",
"74 10 OFFCURVE",
"199 -6 CURVE",
"169 -53 LINE",
"163 -63 OFFCURVE",
"152 -75 OFFCURVE",
"157 -83 CURVE",
"170 -100 LINE",
"181 -116 OFFCURVE",
"199 -96 OFFCURVE",
"231 -96 CURVE SMOOTH",
"254 -96 OFFCURVE",
"271 -110 OFFCURVE",
"266 -134 CURVE SMOOTH",
"260 -159 OFFCURVE",
"237 -174 OFFCURVE",
"214 -174 CURVE SMOOTH",
"170 -174 OFFCURVE",
"170 -140 OFFCURVE",
"150 -156 CURVE",
"133 -169 LINE",
"114 -184 OFFCURVE",
"147 -219 OFFCURVE",
"204 -220 CURVE SMOOTH"
);
}
);
width = 605;
},
{
hints = (
{
horizontal = 1;
place = "{9223372036854775808.000000, 0.000000}";
type = Tag;
name = hr01;
}
);
layerId = "EC64484B-0978-4CB1-9EE9-C40A2D8C4059";
name = "Bold Italic";
paths = (
{
closed = 1;
nodes = (
"308 -220 OFFCURVE",
"355 -183 OFFCURVE",
"366 -130 CURVE SMOOTH",
"378 -77 OFFCURVE",
"355 -40 OFFCURVE",
"304 -40 CURVE SMOOTH",
"300 -40 OFFCURVE",
"282 -42 OFFCURVE",
"273 -45 CURVE",
"299 -10 LINE",
"486 -8 OFFCURVE",
"646 81 OFFCURVE",
"677 226 CURVE SMOOTH",
"705 356 OFFCURVE",
"642 419 OFFCURVE",
"447 444 CURVE SMOOTH",
"360 455 OFFCURVE",
"341 468 OFFCURVE",
"346 487 CURVE SMOOTH",
"349 504 OFFCURVE",
"365 515 OFFCURVE",
"399 515 CURVE SMOOTH",
"427 515 OFFCURVE",
"443 503 OFFCURVE",
"449 497 CURVE SMOOTH",
"458 486 OFFCURVE",
"466 481 OFFCURVE",
"485 481 CURVE",
"685 481 LINE",
"696 481 OFFCURVE",
"708 491 OFFCURVE",
"711 503 CURVE SMOOTH",
"726 590 OFFCURVE",
"641 710 OFFCURVE",
"441 710 CURVE SMOOTH",
"259 710 OFFCURVE",
"116 616 OFFCURVE",
"87 480 CURVE SMOOTH",
"59 347 OFFCURVE",
"145 281 OFFCURVE",
"298 260 CURVE SMOOTH",
"395 247 OFFCURVE",
"422 237 OFFCURVE",
"417 213 CURVE SMOOTH",
"413 195 OFFCURVE",
"381 185 OFFCURVE",
"336 185 CURVE SMOOTH",
"303 185 OFFCURVE",
"283 193 OFFCURVE",
"267 208 CURVE SMOOTH",
"256 219 OFFCURVE",
"249 225 OFFCURVE",
"228 225 CURVE",
"38 225 LINE",
"26 225 OFFCURVE",
"14 215 OFFCURVE",
"11 203 CURVE SMOOTH",
"-8 102 OFFCURVE",
"59 9 OFFCURVE",
"237 -7 CURVE",
"207 -52 LINE",
"194 -71 OFFCURVE",
"195 -76 OFFCURVE",
"202 -85 CURVE",
"218 -106 LINE",
"229 -119 OFFCURVE",
"254 -106 OFFCURVE",
"272 -106 CURVE SMOOTH",
"292 -106 OFFCURVE",
"298 -118 OFFCURVE",
"295 -130 CURVE SMOOTH",
"293 -142 OFFCURVE",
"281 -154 OFFCURVE",
"262 -154 CURVE SMOOTH",
"228 -154 OFFCURVE",
"227 -136 OFFCURVE",
"207 -151 CURVE",
"182 -169 LINE",
"155 -189 OFFCURVE",
"195 -220 OFFCURVE",
"248 -220 CURVE SMOOTH"
);
}
);
width = 697;
}
);
leftKerningGroup = S;
rightKerningGroup = S;
unicode = 015E;
userData = {
com.typemytype.robofont.guides = (
{
angle = 90;
isGlobal = 0;
magnetic = 5;
x = 306;
y = 0;
}
);
};
},
{
glyphname = T;
lastChange = "2015-11-17 17:19:16 +0000";
layers = (
{
guideLines = (
{
position = "{-230, 495}";
},
{
position = "{-230, 9}";
},
{
position = "{-230, 691}";
},
{
position = "{-230, 649}";
},
{
angle = 90;
position = "{49, 0}";
},
{
angle = 90;
position = "{94, 0}";
},
{
angle = 90;
position = "{-171, 0}";
},
{
angle = 90;
position = "{314, 0}";
}
);
hints = (
{
horizontal = 1;
place = "{490.000000, 0.000000}";
type = Tag;
name = hr00;
}
);
layerId = "581BC726-83A6-4935-8633-5A6508251040";
name = "Light Italic";
paths = (
{
closed = 1;
nodes = (
"237 0 LINE SMOOTH",
"251 0 OFFCURVE",
"262 9 OFFCURVE",
"265 22 CURVE SMOOTH",
"396 640 LINE",
"593 640 LINE SMOOTH",
"607 640 OFFCURVE",
"618 649 OFFCURVE",
"621 662 CURVE SMOOTH",
"624 677 LINE SMOOTH",
"627 691 OFFCURVE",
"620 700 OFFCURVE",
"606 700 CURVE SMOOTH",
"148 700 LINE SMOOTH",
"135 700 OFFCURVE",
"124 691 OFFCURVE",
"121 677 CURVE SMOOTH",
"118 662 LINE SMOOTH",
"115 649 OFFCURVE",
"122 640 OFFCURVE",
"135 640 CURVE SMOOTH",
"333 640 LINE",
"202 22 LINE SMOOTH",
"199 9 OFFCURVE",
"206 0 OFFCURVE",
"219 0 CURVE SMOOTH"
);
}
);
width = 557;
},
{
guideLines = (
{
position = "{-100, 495}";
}
);
hints = (
{
horizontal = 1;
place = "{9223372036854775808.000000, 0.000000}";
type = Tag;
name = hr00;
}
);
layerId = "EC64484B-0978-4CB1-9EE9-C40A2D8C4059";
name = "Bold Italic";
paths = (
{
closed = 1;
nodes = (
"387 0 LINE SMOOTH",
"402 0 OFFCURVE",
"417 12 OFFCURVE",
"420 27 CURVE SMOOTH",
"517 485 LINE",
"683 485 LINE SMOOTH",
"698 485 OFFCURVE",
"713 497 OFFCURVE",
"716 512 CURVE SMOOTH",
"750 673 LINE SMOOTH",
"753 688 OFFCURVE",
"744 700 OFFCURVE",
"729 700 CURVE SMOOTH",
"143 700 LINE SMOOTH",
"128 700 OFFCURVE",
"113 688 OFFCURVE",
"110 673 CURVE SMOOTH",
"76 512 LINE SMOOTH",
"73 497 OFFCURVE",
"82 485 OFFCURVE",
"97 485 CURVE SMOOTH",
"263 485 LINE",
"166 27 LINE SMOOTH",
"163 12 OFFCURVE",
"172 0 OFFCURVE",
"187 0 CURVE SMOOTH"
);
}
);
width = 674;
}
);
leftKerningGroup = T;
rightKerningGroup = T;
unicode = 0054;
userData = {
com.typemytype.robofont.guides = (
{
angle = 0;
isGlobal = 0;
magnetic = 5;
x = 0;
y = 495;
},
{
angle = 0;
isGlobal = 0;
magnetic = 5;
x = 0;
y = 9;
},
{
angle = 0;
isGlobal = 0;
magnetic = 5;
x = 0;
y = 691;
},
{
angle = 0;
isGlobal = 0;
magnetic = 5;
x = 0;
y = 649;
},
{
angle = 90;
isGlobal = 0;
magnetic = 5;
x = 279;
y = 0;
},
{
angle = 90;
isGlobal = 0;
magnetic = 5;
x = 324;
y = 0;
},
{
angle = 90;
isGlobal = 0;
magnetic = 5;
x = 59;
y = 0;
},
{
angle = 90;
isGlobal = 0;
magnetic = 5;
x = 544;
y = 0;
}
);
};
},
{
glyphname = Tbar;
lastChange = "2015-11-17 17:19:16 +0000";
layers = (
{
guideLines = (
{
position = "{-230, 380}";
},
{
angle = 90;
position = "{71, 0}";
},
{
angle = 90;
position = "{-180, 0}";
}
);
hints = (
{
horizontal = 1;
place = "{200.000000, 0.000000}";
type = Tag;
name = hr00;
}
);
layerId = "581BC726-83A6-4935-8633-5A6508251040";
name = "Light Italic";
paths = (
{
closed = 1;
nodes = (
"242 0 LINE SMOOTH",
"256 0 OFFCURVE",
"267 9 OFFCURVE",
"270 22 CURVE SMOOTH",
"339 350 LINE",
"456 350 LINE SMOOTH",
"470 350 OFFCURVE",
"481 359 OFFCURVE",
"484 372 CURVE SMOOTH",
"487 387 LINE SMOOTH",
"490 401 OFFCURVE",
"483 410 OFFCURVE",
"469 410 CURVE SMOOTH",
"352 410 LINE",
"401 640 LINE",
"598 640 LINE SMOOTH",
"612 640 OFFCURVE",
"623 649 OFFCURVE",
"626 662 CURVE SMOOTH",
"629 677 LINE SMOOTH",
"632 691 OFFCURVE",
"625 700 OFFCURVE",
"611 700 CURVE SMOOTH",
"153 700 LINE SMOOTH",
"140 700 OFFCURVE",
"129 691 OFFCURVE",
"126 677 CURVE SMOOTH",
"123 662 LINE SMOOTH",
"120 649 OFFCURVE",
"127 640 OFFCURVE",
"140 640 CURVE SMOOTH",
"338 640 LINE",
"289 410 LINE",
"171 410 LINE SMOOTH",
"158 410 OFFCURVE",
"147 401 OFFCURVE",
"144 387 CURVE SMOOTH",
"141 372 LINE SMOOTH",
"138 359 OFFCURVE",
"145 350 OFFCURVE",
"158 350 CURVE SMOOTH",
"276 350 LINE",
"207 22 LINE SMOOTH",
"204 9 OFFCURVE",
"211 0 OFFCURVE",
"224 0 CURVE SMOOTH"
);
}
);
width = 567;
},
{
guideLines = (
{
position = "{-100, 320}";
},
{
angle = 90;
position = "{250, 0}";
}
);
hints = (
{
horizontal = 1;
place = "{9223372036854775808.000000, 0.000000}";
type = Tag;
name = hr00;
}
);
layerId = "EC64484B-0978-4CB1-9EE9-C40A2D8C4059";
name = "Bold Italic";
paths = (
{
closed = 1;
nodes = (
"391 0 LINE SMOOTH",
"406 0 OFFCURVE",
"421 12 OFFCURVE",
"424 27 CURVE SMOOTH",
"473 258 LINE",
"563 258 LINE SMOOTH",
"578 258 OFFCURVE",
"592 270 OFFCURVE",
"596 285 CURVE SMOOTH",
"611 356 LINE SMOOTH",
"614 371 OFFCURVE",
"604 383 OFFCURVE",
"589 383 CURVE SMOOTH",
"499 383 LINE",
"521 485 LINE",
"687 485 LINE SMOOTH",
"702 485 OFFCURVE",
"717 497 OFFCURVE",
"720 512 CURVE SMOOTH",
"754 673 LINE SMOOTH",
"757 688 OFFCURVE",
"748 700 OFFCURVE",
"733 700 CURVE SMOOTH",
"147 700 LINE SMOOTH",
"132 700 OFFCURVE",
"117 688 OFFCURVE",
"114 673 CURVE SMOOTH",
"80 512 LINE SMOOTH",
"77 497 OFFCURVE",
"86 485 OFFCURVE",
"101 485 CURVE SMOOTH",
"267 485 LINE",
"245 383 LINE",
"155 383 LINE SMOOTH",
"140 383 OFFCURVE",
"126 371 OFFCURVE",
"123 356 CURVE SMOOTH",
"108 285 LINE SMOOTH",
"104 270 OFFCURVE",
"114 258 OFFCURVE",
"129 258 CURVE SMOOTH",
"219 258 LINE",
"170 27 LINE SMOOTH",
"167 12 OFFCURVE",
"176 0 OFFCURVE",
"191 0 CURVE SMOOTH"
);
}
);
width = 682;
}
);
leftKerningGroup = T;
rightKerningGroup = T;
unicode = 0166;
userData = {
com.typemytype.robofont.guides = (
{
angle = 0;
isGlobal = 0;
magnetic = 5;
x = 0;
y = 380;
},
{
angle = 90;
isGlobal = 0;
magnetic = 5;
x = 301;
y = 0;
},
{
angle = 90;
isGlobal = 0;
magnetic = 5;
x = 50;
y = 0;
}
);
};
},
{
glyphname = U;
lastChange = "2015-11-17 17:19:16 +0000";
layers = (
{
guideLines = (
{
position = "{-230, 267}";
},
{
angle = 90;
position = "{103, 0}";
},
{
angle = 90;
position = "{305, 0}";
},
{
angle = 90;
position = "{350, 0}";
},
{
angle = 90;
position = "{-146, 0}";
},
{
angle = 90;
position = "{-101, 0}";
}
);
hints = (
{
horizontal = 1;
place = "{58.000000, 0.000000}";
type = Tag;
name = hr00;
}
);
layerId = "581BC726-83A6-4935-8633-5A6508251040";
name = "Light Italic";
paths = (
{
closed = 1;
nodes = (
"457 -10 OFFCURVE",
"569 77 OFFCURVE",
"611 271 CURVE",
"697 677 LINE",
"700 691 OFFCURVE",
"693 700 OFFCURVE",
"680 700 CURVE",
"662 700 LINE",
"648 700 OFFCURVE",
"637 691 OFFCURVE",
"634 677 CURVE",
"547 268 LINE",
"515 118 OFFCURVE",
"426 50 OFFCURVE",
"307 50 CURVE",
"187 50 OFFCURVE",
"126 118 OFFCURVE",
"158 268 CURVE",
"245 677 LINE",
"248 691 OFFCURVE",
"241 700 OFFCURVE",
"227 700 CURVE",
"209 700 LINE",
"196 700 OFFCURVE",
"185 691 OFFCURVE",
"182 677 CURVE",
"96 271 LINE",
"54 77 OFFCURVE",
"132 -10 OFFCURVE",
"294 -10 CURVE"
);
}
);
width = 691;
},
{
guideLines = (
{
position = "{-100, -10}";
},
{
position = "{-100, 268}";
},
{
angle = 90;
position = "{280, 0}";
}
);
hints = (
{
horizontal = 1;
place = "{9223372036854775808.000000, 0.000000}";
type = Tag;
name = hr00;
}
);
layerId = "EC64484B-0978-4CB1-9EE9-C40A2D8C4059";
name = "Bold Italic";
paths = (
{
closed = 1;
nodes = (
"512 -10 OFFCURVE",
"663 75 OFFCURVE",
"703 264 CURVE SMOOTH",
"790 673 LINE SMOOTH",
"793 688 OFFCURVE",
"784 700 OFFCURVE",
"769 700 CURVE SMOOTH",
"573 700 LINE SMOOTH",
"558 700 OFFCURVE",
"543 688 OFFCURVE",
"540 673 CURVE SMOOTH",
"454 268 LINE SMOOTH",
"443 218 OFFCURVE",
"413 191 OFFCURVE",
"364 191 CURVE SMOOTH",
"315 191 OFFCURVE",
"295 218 OFFCURVE",
"306 268 CURVE SMOOTH",
"392 673 LINE SMOOTH",
"395 688 OFFCURVE",
"386 700 OFFCURVE",
"371 700 CURVE SMOOTH",
"175 700 LINE SMOOTH",
"160 700 OFFCURVE",
"145 688 OFFCURVE",
"142 673 CURVE SMOOTH",
"55 264 LINE SMOOTH",
"15 75 OFFCURVE",
"130 -10 OFFCURVE",
"322 -10 CURVE SMOOTH"
);
}
);
width = 746;
}
);
leftKerningGroup = U;
rightKerningGroup = U;
unicode = 0055;
userData = {
com.typemytype.robofont.guides = (
{
angle = 0;
isGlobal = 0;
magnetic = 5;
x = 0;
y = 267;
},
{
angle = 90;
isGlobal = 0;
magnetic = 5;
x = 333;
y = 0;
},
{
angle = 90;
isGlobal = 0;
magnetic = 5;
x = 535;
y = 0;
},
{
angle = 90;
isGlobal = 0;
magnetic = 5;
x = 580;
y = 0;
},
{
angle = 90;
isGlobal = 0;
magnetic = 5;
x = 84;
y = 0;
},
{
angle = 90;
isGlobal = 0;
magnetic = 5;
x = 129;
y = 0;
}
);
};
},
{
glyphname = Uogonek;
lastChange = "2015-11-17 17:19:16 +0000";
layers = (
{
guideLines = (
{
position = "{-230, -187}";
},
{
angle = 90;
position = "{102, 0}";
}
);
hints = (
{
horizontal = 1;
place = "{58.000000, 0.000000}";
type = Tag;
name = hr00;
}
);
layerId = "581BC726-83A6-4935-8633-5A6508251040";
name = "Light Italic";
paths = (
{
closed = 1;
nodes = (
"331 -220 LINE",
"344 -220 OFFCURVE",
"355 -211 OFFCURVE",
"358 -198 CURVE",
"361 -185 LINE",
"363 -172 OFFCURVE",
"356 -163 OFFCURVE",
"343 -163 CURVE",
"328 -163 LINE",
"284 -163 OFFCURVE",
"259 -133 OFFCURVE",
"270 -82 CURVE SMOOTH",
"280 -31 OFFCURVE",
"316 -14 OFFCURVE",
"361 -5 CURVE",
"487 16 OFFCURVE",
"575 105 OFFCURVE",
"611 271 CURVE",
"697 677 LINE",
"700 691 OFFCURVE",
"693 700 OFFCURVE",
"680 700 CURVE",
"662 700 LINE",
"648 700 OFFCURVE",
"637 691 OFFCURVE",
"634 677 CURVE",
"547 268 LINE",
"515 118 OFFCURVE",
"426 50 OFFCURVE",
"307 50 CURVE SMOOTH",
"187 50 OFFCURVE",
"126 118 OFFCURVE",
"158 268 CURVE",
"245 677 LINE",
"248 691 OFFCURVE",
"241 700 OFFCURVE",
"227 700 CURVE",
"209 700 LINE",
"196 700 OFFCURVE",
"185 691 OFFCURVE",
"182 677 CURVE",
"96 271 LINE",
"59 99 OFFCURVE",
"115 11 OFFCURVE",
"241 -6 CURVE",
"227 -24 OFFCURVE",
"217 -47 OFFCURVE",
"210 -82 CURVE SMOOTH",
"192 -167 OFFCURVE",
"231 -220 OFFCURVE",
"312 -220 CURVE"
);
}
);
width = 691;
},
{
guideLines = (
{
position = "{-100, -220}";
},
{
angle = 90;
position = "{278, 0}";
}
);
hints = (
{
horizontal = 1;
place = "{9223372036854775808.000000, 0.000000}";
type = Tag;
name = hr01;
},
{
horizontal = 1;
place = "{9223372036854775808.000000, 0.000000}";
type = Tag;
name = hr02;
}
);
layerId = "EC64484B-0978-4CB1-9EE9-C40A2D8C4059";
name = "Bold Italic";
paths = (
{
closed = 1;
nodes = (
"374 -220 LINE",
"389 -220 OFFCURVE",
"404 -208 OFFCURVE",
"407 -193 CURVE",
"421 -125 LINE",
"425 -110 OFFCURVE",
"415 -98 OFFCURVE",
"400 -98 CURVE",
"390 -98 LINE",
"351 -98 OFFCURVE",
"346 -70 OFFCURVE",
"351 -49 CURVE SMOOTH",
"355 -30 OFFCURVE",
"364 -11 OFFCURVE",
"397 -5 CURVE SMOOTH",
"550 21 OFFCURVE",
"668 100 OFFCURVE",
"703 264 CURVE",
"790 673 LINE",
"793 688 OFFCURVE",
"784 700 OFFCURVE",
"769 700 CURVE",
"573 700 LINE",
"558 700 OFFCURVE",
"543 688 OFFCURVE",
"540 673 CURVE",
"454 268 LINE",
"443 218 OFFCURVE",
"413 191 OFFCURVE",
"364 191 CURVE SMOOTH",
"315 191 OFFCURVE",
"295 218 OFFCURVE",
"306 268 CURVE",
"392 673 LINE",
"395 688 OFFCURVE",
"386 700 OFFCURVE",
"371 700 CURVE",
"175 700 LINE",
"160 700 OFFCURVE",
"145 688 OFFCURVE",
"142 673 CURVE",
"55 264 LINE",
"21 104 OFFCURVE",
"98 19 OFFCURVE",
"238 -3 CURVE",
"232 -18 OFFCURVE",
"228 -33 OFFCURVE",
"225 -49 CURVE SMOOTH",
"204 -144 OFFCURVE",
"239 -220 OFFCURVE",
"360 -220 CURVE"
);
}
);
width = 746;
}
);
leftKerningGroup = U;
rightKerningGroup = U;
unicode = 0172;
userData = {
com.typemytype.robofont.guides = (
{
angle = 0;
isGlobal = 0;
magnetic = 5;
x = 0;
y = "-187";
},
{
angle = 90;
isGlobal = 0;
magnetic = 5;
x = 332;
y = 0;
}
);
};
},
{
glyphname = V;
lastChange = "2015-11-17 17:19:16 +0000";
layers = (
{
guideLines = (
{
position = "{-230, 24}";
}
);
hints = (
{
horizontal = 1;
place = "{-137.000000, 0.000000}";
type = Tag;
name = hr00;
}
);
layerId = "581BC726-83A6-4935-8633-5A6508251040";
name = "Light Italic";
paths = (
{
closed = 1;
nodes = (
"283 0 LINE SMOOTH",
"301 0 OFFCURVE",
"313 8 OFFCURVE",
"322 24 CURVE SMOOTH",
"691 669 LINE SMOOTH",
"693 672 OFFCURVE",
"695 678 OFFCURVE",
"696 680 CURVE SMOOTH",
"698 691 OFFCURVE",
"691 700 OFFCURVE",
"680 700 CURVE SMOOTH",
"659 700 LINE SMOOTH",
"646 700 OFFCURVE",
"637 690 OFFCURVE",
"634 685 CURVE SMOOTH",
"285 73 LINE",
"196 685 LINE SMOOTH",
"195 690 OFFCURVE",
"190 700 OFFCURVE",
"177 700 CURVE SMOOTH",
"156 700 LINE SMOOTH",
"145 700 OFFCURVE",
"134 691 OFFCURVE",
"132 680 CURVE SMOOTH",
"131 678 OFFCURVE",
"131 672 OFFCURVE",
"131 669 CURVE SMOOTH",
"226 24 LINE SMOOTH",
"229 8 OFFCURVE",
"237 0 OFFCURVE",
"255 0 CURVE SMOOTH"
);
}
);
width = 638;
},
{
hints = (
{
horizontal = 1;
place = "{9223372036854775808.000000, 0.000000}";
type = Tag;
name = hr00;
}
);
layerId = "EC64484B-0978-4CB1-9EE9-C40A2D8C4059";
name = "Bold Italic";
paths = (
{
closed = 1;
nodes = (
"427 0 LINE SMOOTH",
"454 0 OFFCURVE",
"472 18 OFFCURVE",
"479 33 CURVE SMOOTH",
"803 671 LINE SMOOTH",
"804 675 OFFCURVE",
"805 676 OFFCURVE",
"805 678 CURVE SMOOTH",
"808 690 OFFCURVE",
"800 700 OFFCURVE",
"788 700 CURVE SMOOTH",
"602 700 LINE SMOOTH",
"575 700 OFFCURVE",
"557 682 OFFCURVE",
"550 667 CURVE SMOOTH",
"376 295 LINE",
"360 667 LINE SMOOTH",
"359 682 OFFCURVE",
"349 700 OFFCURVE",
"322 700 CURVE SMOOTH",
"136 700 LINE SMOOTH",
"124 700 OFFCURVE",
"112 690 OFFCURVE",
"109 678 CURVE SMOOTH",
"109 676 OFFCURVE",
"108 675 OFFCURVE",
"109 671 CURVE SMOOTH",
"161 33 LINE SMOOTH",
"162 18 OFFCURVE",
"172 0 OFFCURVE",
"199 0 CURVE SMOOTH"
);
}
);
width = 726;
}
);
unicode = 0056;
userData = {
com.typemytype.robofont.guides = (
{
angle = 0;
isGlobal = 0;
magnetic = 5;
x = 0;
y = 24;
}
);
};
},
{
glyphname = W;
lastChange = "2015-11-17 17:19:16 +0000";
layers = (
{
guideLines = (
{
position = "{-230, 545}";
},
{
position = "{-230, 670}";
},
{
position = "{-230, 24}";
}
);
hints = (
{
horizontal = 1;
place = "{312.000000, 0.000000}";
type = Tag;
name = hr00;
}
);
layerId = "581BC726-83A6-4935-8633-5A6508251040";
name = "Light Italic";
paths = (
{
closed = 1;
nodes = (
"180 0 LINE",
"196 0 OFFCURVE",
"208 8 OFFCURVE",
"216 24 CURVE",
"439 446 LINE",
"482 24 LINE",
"484 8 OFFCURVE",
"492 0 OFFCURVE",
"508 0 CURVE",
"523 0 LINE",
"539 0 OFFCURVE",
"548 7 OFFCURVE",
"556 24 CURVE",
"830 668 LINE",
"832 673 OFFCURVE",
"834 678 OFFCURVE",
"835 680 CURVE SMOOTH",
"837 691 OFFCURVE",
"830 700 OFFCURVE",
"819 700 CURVE",
"798 700 LINE",
"785 700 OFFCURVE",
"777 694 OFFCURVE",
"773 685 CURVE",
"534 115 LINE",
"497 522 LINE",
"496 534 OFFCURVE",
"489 545 OFFCURVE",
"471 545 CURVE",
"449 545 LINE",
"431 545 OFFCURVE",
"420 534 OFFCURVE",
"413 522 CURVE",
"202 115 LINE",
"207 685 LINE",
"207 694 OFFCURVE",
"201 700 OFFCURVE",
"188 700 CURVE",
"167 700 LINE",
"156 700 OFFCURVE",
"145 691 OFFCURVE",
"143 680 CURVE SMOOTH",
"142 678 OFFCURVE",
"142 673 OFFCURVE",
"142 668 CURVE",
"142 24 LINE",
"142 7 OFFCURVE",
"149 0 OFFCURVE",
"165 0 CURVE"
);
}
);
width = 788;
},
{
guideLines = (
{
position = "{-100, 545}";
}
);
hints = (
{
horizontal = 1;
place = "{9223372036854775808.000000, 0.000000}";
type = Tag;
name = hr00;
}
);
layerId = "EC64484B-0978-4CB1-9EE9-C40A2D8C4059";
name = "Bold Italic";
paths = (
{
closed = 1;
nodes = (
"255 0 LINE SMOOTH",
"282 0 OFFCURVE",
"297 19 OFFCURVE",
"302 27 CURVE SMOOTH",
"427 232 LINE",
"466 27 LINE SMOOTH",
"467 19 OFFCURVE",
"474 0 OFFCURVE",
"501 0 CURVE SMOOTH",
"644 0 LINE SMOOTH",
"671 0 OFFCURVE",
"692 20 OFFCURVE",
"698 38 CURVE",
"925 675 LINE",
"926 676 OFFCURVE",
"926 677 OFFCURVE",
"926 678 CURVE SMOOTH",
"929 690 OFFCURVE",
"921 700 OFFCURVE",
"909 700 CURVE SMOOTH",
"723 700 LINE SMOOTH",
"700 700 OFFCURVE",
"687 693 OFFCURVE",
"681 673 CURVE SMOOTH",
"587 392 LINE",
"573 516 LINE SMOOTH",
"572 525 OFFCURVE",
"569 545 OFFCURVE",
"545 545 CURVE SMOOTH",
"443 545 LINE SMOOTH",
"419 545 OFFCURVE",
"408 525 OFFCURVE",
"403 516 CURVE SMOOTH",
"335 391 LINE",
"361 673 LINE SMOOTH",
"363 693 OFFCURVE",
"354 700 OFFCURVE",
"331 700 CURVE SMOOTH",
"145 700 LINE SMOOTH",
"133 700 OFFCURVE",
"121 690 OFFCURVE",
"118 678 CURVE SMOOTH",
"118 677 OFFCURVE",
"118 676 OFFCURVE",
"117 675 CURVE",
"74 38 LINE",
"72 20 OFFCURVE",
"85 0 OFFCURVE",
"112 0 CURVE SMOOTH"
);
}
);
width = 856;
}
);
leftKerningGroup = W;
rightKerningGroup = W;
unicode = 0057;
userData = {
com.typemytype.robofont.guides = (
{
angle = 0;
isGlobal = 0;
magnetic = 5;
x = 0;
y = 545;
},
{
angle = 0;
isGlobal = 0;
magnetic = 5;
x = 0;
y = 670;
},
{
angle = 0;
isGlobal = 0;
magnetic = 5;
x = 0;
y = 24;
}
);
};
},
{
glyphname = X;
lastChange = "2015-11-17 17:19:16 +0000";
layers = (
{
guideLines = (
{
position = "{-230, 350}";
},
{
angle = 90;
position = "{-202, 0}";
},
{
angle = 90;
position = "{350, 0}";
}
);
hints = (
{
horizontal = 1;
place = "{457.000000, 0.000000}";
type = Tag;
name = hr00;
}
);
layerId = "581BC726-83A6-4935-8633-5A6508251040";
name = "Light Italic";
paths = (
{
closed = 1;
nodes = (
"22 0 LINE",
"31 0 OFFCURVE",
"39 5 OFFCURVE",
"48 15 CURVE",
"319 304 LINE",
"466 15 LINE",
"471 5 OFFCURVE",
"477 0 OFFCURVE",
"486 0 CURVE",
"510 0 LINE",
"521 0 OFFCURVE",
"532 9 OFFCURVE",
"534 20 CURVE SMOOTH",
"535 25 OFFCURVE",
"534 30 OFFCURVE",
"533 33 CURVE",
"369 354 LINE",
"657 667 LINE",
"659 670 OFFCURVE",
"662 675 OFFCURVE",
"664 680 CURVE SMOOTH",
"666 691 OFFCURVE",
"659 700 OFFCURVE",
"648 700 CURVE",
"626 700 LINE",
"617 700 OFFCURVE",
"609 695 OFFCURVE",
"600 685 CURVE",
"343 405 LINE",
"202 685 LINE",
"197 695 OFFCURVE",
"191 700 OFFCURVE",
"182 700 CURVE",
"158 700 LINE",
"147 700 OFFCURVE",
"136 691 OFFCURVE",
"134 680 CURVE SMOOTH",
"132 675 OFFCURVE",
"133 670 OFFCURVE",
"135 667 CURVE",
"293 356 LINE",
"-9 33 LINE",
"-12 30 OFFCURVE",
"-15 25 OFFCURVE",
"-16 20 CURVE SMOOTH",
"-18 9 OFFCURVE",
"-11 0 OFFCURVE",
"0 0 CURVE"
);
}
);
width = 609;
},
{
guideLines = (
{
position = "{-100, 359}";
},
{
angle = 90;
position = "{283, 0}";
}
);
hints = (
{
horizontal = 1;
place = "{9223372036854775808.000000, 0.000000}";
type = Tag;
name = hr00;
}
);
layerId = "EC64484B-0978-4CB1-9EE9-C40A2D8C4059";
name = "Bold Italic";
paths = (
{
closed = 1;
nodes = (
"190 0 LINE SMOOTH",
"216 0 OFFCURVE",
"232 18 OFFCURVE",
"236 23 CURVE SMOOTH",
"347 157 LINE",
"406 23 LINE SMOOTH",
"408 18 OFFCURVE",
"416 0 OFFCURVE",
"442 0 CURVE SMOOTH",
"667 0 LINE SMOOTH",
"679 0 OFFCURVE",
"691 10 OFFCURVE",
"694 22 CURVE SMOOTH",
"694 24 OFFCURVE",
"695 28 OFFCURVE",
"693 33 CURVE SMOOTH",
"550 361 LINE",
"808 667 LINE SMOOTH",
"812 672 OFFCURVE",
"812 673 OFFCURVE",
"813 678 CURVE SMOOTH",
"816 690 OFFCURVE",
"808 700 OFFCURVE",
"796 700 CURVE SMOOTH",
"589 700 LINE SMOOTH",
"563 700 OFFCURVE",
"547 682 OFFCURVE",
"541 675 CURVE SMOOTH",
"440 553 LINE",
"395 675 LINE SMOOTH",
"393 682 OFFCURVE",
"385 700 OFFCURVE",
"359 700 CURVE SMOOTH",
"142 700 LINE SMOOTH",
"130 700 OFFCURVE",
"118 690 OFFCURVE",
"115 678 CURVE SMOOTH",
"114 673 OFFCURVE",
"115 671 OFFCURVE",
"116 667 CURVE SMOOTH",
"239 358 LINE",
"-40 33 LINE SMOOTH",
"-44 28 OFFCURVE",
"-45 24 OFFCURVE",
"-45 22 CURVE SMOOTH",
"-48 10 OFFCURVE",
"-40 0 OFFCURVE",
"-28 0 CURVE SMOOTH"
);
}
);
width = 739;
}
);
unicode = 0058;
userData = {
com.typemytype.robofont.guides = (
{
angle = 0;
isGlobal = 0;
magnetic = 5;
x = 0;
y = 350;
},
{
angle = 90;
isGlobal = 0;
magnetic = 5;
x = 28;
y = 0;
},
{
angle = 90;
isGlobal = 0;
magnetic = 5;
x = 580;
y = 0;
}
);
};
},
{
glyphname = Y;
lastChange = "2015-11-17 17:19:17 +0000";
layers = (
{
guideLines = (
{
angle = 90;
position = "{80, 0}";
}
);
hints = (
{
horizontal = 1;
place = "{475.000000, 0.000000}";
type = Tag;
name = hr00;
}
);
layerId = "581BC726-83A6-4935-8633-5A6508251040";
name = "Light Italic";
paths = (
{
closed = 1;
nodes = (
"275 0 LINE SMOOTH",
"289 0 OFFCURVE",
"300 9 OFFCURVE",
"303 22 CURVE SMOOTH",
"355 267 LINE",
"684 667 LINE SMOOTH",
"687 671 OFFCURVE",
"689 675 OFFCURVE",
"691 680 CURVE SMOOTH",
"693 691 OFFCURVE",
"686 700 OFFCURVE",
"675 700 CURVE SMOOTH",
"655 700 LINE SMOOTH",
"646 700 OFFCURVE",
"637 695 OFFCURVE",
"629 685 CURVE SMOOTH",
"337 332 LINE",
"195 685 LINE SMOOTH",
"191 695 OFFCURVE",
"184 700 OFFCURVE",
"175 700 CURVE SMOOTH",
"155 700 LINE SMOOTH",
"144 700 OFFCURVE",
"133 691 OFFCURVE",
"131 680 CURVE SMOOTH",
"129 675 OFFCURVE",
"131 671 OFFCURVE",
"132 667 CURVE SMOOTH",
"291 267 LINE",
"239 22 LINE SMOOTH",
"236 9 OFFCURVE",
"243 0 OFFCURVE",
"256 0 CURVE SMOOTH"
);
}
);
width = 632;
},
{
hints = (
{
horizontal = 1;
place = "{9223372036854775808.000000, 0.000000}";
type = Tag;
name = hr00;
}
);
layerId = "EC64484B-0978-4CB1-9EE9-C40A2D8C4059";
name = "Bold Italic";
paths = (
{
closed = 1;
nodes = (
"403 0 LINE SMOOTH",
"418 0 OFFCURVE",
"433 12 OFFCURVE",
"436 27 CURVE SMOOTH",
"478 224 LINE",
"797 669 LINE SMOOTH",
"799 671 OFFCURVE",
"800 675 OFFCURVE",
"801 678 CURVE SMOOTH",
"804 690 OFFCURVE",
"796 700 OFFCURVE",
"784 700 CURVE SMOOTH",
"596 700 LINE SMOOTH",
"569 700 OFFCURVE",
"553 681 OFFCURVE",
"548 675 CURVE SMOOTH",
"406 474 LINE",
"348 675 LINE SMOOTH",
"347 681 OFFCURVE",
"339 700 OFFCURVE",
"312 700 CURVE SMOOTH",
"124 700 LINE SMOOTH",
"112 700 OFFCURVE",
"100 690 OFFCURVE",
"97 678 CURVE SMOOTH",
"96 675 OFFCURVE",
"97 671 OFFCURVE",
"97 669 CURVE SMOOTH",
"228 224 LINE",
"186 27 LINE SMOOTH",
"183 12 OFFCURVE",
"192 0 OFFCURVE",
"207 0 CURVE SMOOTH"
);
}
);
width = 710;
}
);
leftKerningGroup = Y;
rightKerningGroup = Y;
unicode = 0059;
userData = {
com.typemytype.robofont.guides = (
{
angle = 90;
isGlobal = 0;
magnetic = 5;
x = 310;
y = 0;
}
);
};
},
{
glyphname = Z;
lastChange = "2015-11-17 17:19:16 +0000";
layers = (
{
guideLines = (
{
position = "{-230, 51}";
},
{
position = "{-230, 9}";
},
{
position = "{-230, 691}";
},
{
position = "{-230, 649}";
},
{
angle = 90;
position = "{-41, 0}";
},
{
angle = 90;
position = "{585, 0}";
},
{
angle = 90;
position = "{502, 0}";
},
{
angle = 90;
position = "{-661, 0}";
},
{
angle = 90;
position = "{-156, 0}";
},
{
angle = 90;
position = "{311, 0}";
}
);
hints = (
{
horizontal = 1;
place = "{-150.000000, 0.000000}";
type = Tag;
name = hr00;
}
);
layerId = "581BC726-83A6-4935-8633-5A6508251040";
name = "Light Italic";
paths = (
{
closed = 1;
nodes = (
"464 0 LINE SMOOTH",
"478 0 OFFCURVE",
"489 9 OFFCURVE",
"492 22 CURVE SMOOTH",
"495 37 LINE SMOOTH",
"498 51 OFFCURVE",
"491 60 OFFCURVE",
"477 60 CURVE SMOOTH",
"85 60 LINE",
"596 621 LINE SMOOTH",
"604 630 OFFCURVE",
"613 640 OFFCURVE",
"617 657 CURVE SMOOTH",
"621 677 LINE SMOOTH",
"624 691 OFFCURVE",
"617 700 OFFCURVE",
"603 700 CURVE SMOOTH",
"172 700 LINE SMOOTH",
"159 700 OFFCURVE",
"148 691 OFFCURVE",
"145 677 CURVE SMOOTH",
"142 662 LINE SMOOTH",
"139 649 OFFCURVE",
"146 640 OFFCURVE",
"159 640 CURVE SMOOTH",
"537 640 LINE",
"24 81 LINE SMOOTH",
"19 75 OFFCURVE",
"5 63 OFFCURVE",
"1 43 CURVE SMOOTH",
"-3 23 LINE SMOOTH",
"-6 9 OFFCURVE",
"1 0 OFFCURVE",
"14 0 CURVE SMOOTH"
);
}
);
width = 579;
},
{
guideLines = (
{
angle = 90;
position = "{-55, 0}";
},
{
angle = 90;
position = "{570, 0}";
}
);
hints = (
{
horizontal = 1;
place = "{9223372036854775808.000000, 0.000000}";
type = Tag;
name = hr00;
}
);
layerId = "EC64484B-0978-4CB1-9EE9-C40A2D8C4059";
name = "Bold Italic";
paths = (
{
closed = 1;
nodes = (
"583 0 LINE SMOOTH",
"598 0 OFFCURVE",
"613 12 OFFCURVE",
"616 27 CURVE SMOOTH",
"648 178 LINE SMOOTH",
"651 193 OFFCURVE",
"642 205 OFFCURVE",
"627 205 CURVE SMOOTH",
"363 205 LINE",
"690 498 LINE SMOOTH",
"700 506 OFFCURVE",
"707 517 OFFCURVE",
"710 531 CURVE SMOOTH",
"740 673 LINE SMOOTH",
"743 688 OFFCURVE",
"734 700 OFFCURVE",
"719 700 CURVE SMOOTH",
"171 700 LINE SMOOTH",
"156 700 OFFCURVE",
"141 688 OFFCURVE",
"138 673 CURVE SMOOTH",
"106 524 LINE SMOOTH",
"103 509 OFFCURVE",
"113 497 OFFCURVE",
"128 497 CURVE SMOOTH",
"386 497 LINE",
"44 206 LINE SMOOTH",
"38 201 OFFCURVE",
"25 190 OFFCURVE",
"21 171 CURVE SMOOTH",
"-9 27 LINE SMOOTH",
"-12 12 OFFCURVE",
"-3 0 OFFCURVE",
"12 0 CURVE SMOOTH"
);
}
);
width = 693;
}
);
leftKerningGroup = Z;
rightKerningGroup = Z;
unicode = 005A;
userData = {
com.typemytype.robofont.guides = (
{
angle = 0;
isGlobal = 0;
magnetic = 5;
x = 0;
y = 51;
},
{
angle = 0;
isGlobal = 0;
magnetic = 5;
x = 0;
y = 9;
},
{
angle = 0;
isGlobal = 0;
magnetic = 5;
x = 0;
y = 691;
},
{
angle = 0;
isGlobal = 0;
magnetic = 5;
x = 0;
y = 649;
},
{
angle = 90;
isGlobal = 0;
magnetic = 5;
x = 189;
y = 0;
},
{
angle = 90;
isGlobal = 0;
magnetic = 5;
x = 815;
y = 0;
},
{
angle = 90;
isGlobal = 0;
magnetic = 5;
x = 732;
y = 0;
},
{
angle = 90;
isGlobal = 0;
magnetic = 5;
x = "-431";
y = 0;
},
{
angle = 90;
isGlobal = 0;
magnetic = 5;
x = 74;
y = 0;
},
{
angle = 90;
isGlobal = 0;
magnetic = 5;
x = 541;
y = 0;
}
);
};
},
{
glyphname = a;
lastChange = "2015-11-17 17:19:16 +0000";
layers = (
{
hints = (
{
horizontal = 1;
place = "{-220.000000, 0.000000}";
type = Tag;
name = hr01;
},
{
horizontal = 1;
place = "{-162.000000, 0.000000}";
type = Tag;
name = hr03;
}
);
layerId = "581BC726-83A6-4935-8633-5A6508251040";
name = "Light Italic";
paths = (
{
closed = 1;
nodes = (
"272 -10 OFFCURVE",
"331 33 OFFCURVE",
"363 69 CURVE",
"353 22 LINE SMOOTH",
"350 9 OFFCURVE",
"357 0 OFFCURVE",
"370 0 CURVE",
"387 0 LINE SMOOTH",
"400 0 OFFCURVE",
"411 9 OFFCURVE",
"414 22 CURVE SMOOTH",
"484 355 LINE SMOOTH",
"501 435 OFFCURVE",
"483 530 OFFCURVE",
"325 530 CURVE SMOOTH",
"192 530 OFFCURVE",
"121 442 OFFCURVE",
"113 405 CURVE SMOOTH",
"111 393 OFFCURVE",
"118 383 OFFCURVE",
"130 383 CURVE SMOOTH",
"144 383 LINE SMOOTH",
"156 383 OFFCURVE",
"164 388 OFFCURVE",
"173 404 CURVE SMOOTH",
"191 437 OFFCURVE",
"238 472 OFFCURVE",
"312 472 CURVE SMOOTH",
"406 472 OFFCURVE",
"439 429 OFFCURVE",
"424 358 CURVE SMOOTH",
"417 323 LINE",
"254 301 LINE SMOOTH",
"134 285 OFFCURVE",
"41 229 OFFCURVE",
"22 139 CURVE SMOOTH",
"4 55 OFFCURVE",
"73 -10 OFFCURVE",
"169 -10 CURVE SMOOTH"
);
},
{
closed = 1;
nodes = (
"129 48 OFFCURVE",
"70 78 OFFCURVE",
"84 144 CURVE SMOOTH",
"95 198 OFFCURVE",
"160 235 OFFCURVE",
"272 250 CURVE SMOOTH",
"405 268 LINE",
"398 234 LINE SMOOTH",
"371 108 OFFCURVE",
"283 48 OFFCURVE",
"191 48 CURVE SMOOTH"
);
}
);
width = 536;
},
{
guideLines = (
{
position = "{-100, 530}";
},
{
position = "{-100, 335}";
},
{
position = "{-100, 390}";
},
{
position = "{-100, -10}";
},
{
position = "{-100, 55}";
}
);
hints = (
{
horizontal = 1;
place = "{9223372036854775808.000000, 0.000000}";
type = Tag;
name = hr01;
},
{
horizontal = 1;
place = "{9223372036854775808.000000, 0.000000}";
type = Tag;
name = hr02;
}
);
layerId = "EC64484B-0978-4CB1-9EE9-C40A2D8C4059";
name = "Bold Italic";
paths = (
{
closed = 1;
nodes = (
"221 -10 OFFCURVE",
"277 15 OFFCURVE",
"315 55 CURVE",
"309 27 LINE SMOOTH",
"306 12 OFFCURVE",
"315 0 OFFCURVE",
"330 0 CURVE SMOOTH",
"505 0 LINE SMOOTH",
"520 0 OFFCURVE",
"535 12 OFFCURVE",
"538 27 CURVE SMOOTH",
"599 314 LINE SMOOTH",
"628 451 OFFCURVE",
"558 530 OFFCURVE",
"377 530 CURVE SMOOTH",
"190 530 OFFCURVE",
"96 431 OFFCURVE",
"82 380 CURVE SMOOTH",
"78 367 OFFCURVE",
"86 358 OFFCURVE",
"99 358 CURVE SMOOTH",
"269 358 LINE SMOOTH",
"301 358 OFFCURVE",
"311 390 OFFCURVE",
"345 390 CURVE SMOOTH",
"373 390 OFFCURVE",
"372 375 OFFCURVE",
"364 339 CURVE",
"254 322 LINE",
"117 299 OFFCURVE",
"19 246 OFFCURVE",
"-1 149 CURVE SMOOTH",
"-20 59 OFFCURVE",
"44 -10 OFFCURVE",
"159 -10 CURVE SMOOTH"
);
},
{
closed = 1;
nodes = (
"234 138 OFFCURVE",
"224 151 OFFCURVE",
"227 166 CURVE SMOOTH",
"230 180 OFFCURVE",
"242 195 OFFCURVE",
"279 203 CURVE SMOOTH",
"341 216 LINE",
"329 162 OFFCURVE",
"298 138 OFFCURVE",
"259 138 CURVE SMOOTH"
);
}
);
width = 622;
}
);
leftKerningGroup = a;
rightKerningGroup = a;
unicode = 0061;
},
{
glyphname = aogonek;
lastChange = "2015-11-17 17:19:16 +0000";
layers = (
{
guideLines = (
{
position = "{-230, 22}";
},
{
position = "{-230, -220}";
},
{
angle = 90;
position = "{242, 0}";
}
);
hints = (
{
horizontal = 1;
place = "{-430.000000, 0.000000}";
type = Tag;
name = hr00;
}
);
layerId = "581BC726-83A6-4935-8633-5A6508251040";
name = "Light Italic";
paths = (
{
closed = 1;
nodes = (
"340 -220 LINE SMOOTH",
"353 -220 OFFCURVE",
"364 -211 OFFCURVE",
"367 -198 CURVE SMOOTH",
"370 -185 LINE SMOOTH",
"372 -172 OFFCURVE",
"365 -163 OFFCURVE",
"352 -163 CURVE SMOOTH",
"347 -163 LINE SMOOTH",
"313 -163 OFFCURVE",
"296 -141 OFFCURVE",
"307 -90 CURVE SMOOTH",
"317 -44 OFFCURVE",
"344 -20 OFFCURVE",
"393 0 CURVE SMOOTH",
"406 6 OFFCURVE",
"412 14 OFFCURVE",
"414 22 CURVE SMOOTH",
"484 355 LINE SMOOTH",
"501 435 OFFCURVE",
"483 530 OFFCURVE",
"325 530 CURVE SMOOTH",
"192 530 OFFCURVE",
"121 442 OFFCURVE",
"113 405 CURVE SMOOTH",
"111 393 OFFCURVE",
"118 383 OFFCURVE",
"130 383 CURVE SMOOTH",
"144 383 LINE SMOOTH",
"156 383 OFFCURVE",
"164 388 OFFCURVE",
"173 404 CURVE SMOOTH",
"191 437 OFFCURVE",
"238 472 OFFCURVE",
"312 472 CURVE SMOOTH",
"406 472 OFFCURVE",
"439 429 OFFCURVE",
"424 358 CURVE SMOOTH",
"417 323 LINE",
"254 301 LINE SMOOTH",
"134 285 OFFCURVE",
"41 229 OFFCURVE",
"22 139 CURVE SMOOTH",
"4 55 OFFCURVE",
"73 -10 OFFCURVE",
"169 -10 CURVE SMOOTH",
"272 -10 OFFCURVE",
"331 33 OFFCURVE",
"363 69 CURVE",
"355 35 LINE",
"316 18 OFFCURVE",
"260 -26 OFFCURVE",
"247 -90 CURVE SMOOTH",
"229 -175 OFFCURVE",
"270 -220 OFFCURVE",
"331 -220 CURVE SMOOTH"
);
},
{
closed = 1;
nodes = (
"129 48 OFFCURVE",
"70 78 OFFCURVE",
"84 144 CURVE SMOOTH",
"95 198 OFFCURVE",
"160 235 OFFCURVE",
"272 250 CURVE SMOOTH",
"405 268 LINE",
"398 234 LINE SMOOTH",
"371 108 OFFCURVE",
"283 48 OFFCURVE",
"191 48 CURVE SMOOTH"
);
}
);
width = 536;
},
{
hints = (
{
horizontal = 1;
place = "{9223372036854775808.000000, 0.000000}";
type = Tag;
name = hr01;
},
{
horizontal = 1;
place = "{9223372036854775808.000000, 0.000000}";
type = Tag;
name = hr02;
},
{
horizontal = 1;
place = "{9223372036854775808.000000, 0.000000}";
type = Tag;
name = hr03;
},
{
horizontal = 1;
place = "{9223372036854775808.000000, 0.000000}";
type = Tag;
name = hr04;
}
);
layerId = "EC64484B-0978-4CB1-9EE9-C40A2D8C4059";
name = "Bold Italic";
paths = (
{
closed = 1;
nodes = (
"458 -220 LINE",
"473 -220 OFFCURVE",
"488 -208 OFFCURVE",
"491 -193 CURVE",
"505 -125 LINE",
"509 -110 OFFCURVE",
"499 -98 OFFCURVE",
"484 -98 CURVE",
"474 -98 LINE",
"435 -98 OFFCURVE",
"430 -70 OFFCURVE",
"435 -49 CURVE SMOOTH",
"439 -29 OFFCURVE",
"455 -2 OFFCURVE",
"489 0 CURVE",
"505 0 LINE",
"520 0 OFFCURVE",
"535 12 OFFCURVE",
"538 27 CURVE",
"599 314 LINE",
"628 451 OFFCURVE",
"558 530 OFFCURVE",
"377 530 CURVE SMOOTH",
"190 530 OFFCURVE",
"96 431 OFFCURVE",
"82 380 CURVE SMOOTH",
"78 367 OFFCURVE",
"86 358 OFFCURVE",
"99 358 CURVE",
"269 358 LINE",
"301 358 OFFCURVE",
"311 390 OFFCURVE",
"345 390 CURVE SMOOTH",
"373 390 OFFCURVE",
"372 375 OFFCURVE",
"364 339 CURVE",
"254 322 LINE",
"117 299 OFFCURVE",
"19 246 OFFCURVE",
"-1 149 CURVE SMOOTH",
"-20 59 OFFCURVE",
"44 -10 OFFCURVE",
"159 -10 CURVE SMOOTH",
"221 -10 OFFCURVE",
"277 15 OFFCURVE",
"315 55 CURVE",
"309 27 LINE",
"306 14 OFFCURVE",
"312 3 OFFCURVE",
"323 0 CURVE",
"317 -14 OFFCURVE",
"312 -33 OFFCURVE",
"309 -49 CURVE SMOOTH",
"288 -144 OFFCURVE",
"323 -220 OFFCURVE",
"444 -220 CURVE"
);
},
{
closed = 1;
nodes = (
"234 138 OFFCURVE",
"224 151 OFFCURVE",
"227 166 CURVE SMOOTH",
"230 180 OFFCURVE",
"242 195 OFFCURVE",
"279 203 CURVE",
"341 216 LINE",
"329 162 OFFCURVE",
"298 138 OFFCURVE",
"259 138 CURVE SMOOTH"
);
}
);
width = 622;
}
);
leftKerningGroup = a;
rightKerningGroup = a;
unicode = 0105;
userData = {
com.typemytype.robofont.guides = (
{
angle = 0;
isGlobal = 0;
magnetic = 5;
x = 0;
y = 22;
},
{
angle = 0;
isGlobal = 0;
magnetic = 5;
x = 0;
y = "-220";
},
{
angle = 90;
isGlobal = 0;
magnetic = 5;
x = 472;
y = 0;
}
);
};
},
{
glyphname = ae;
lastChange = "2015-11-17 17:19:16 +0000";
layers = (
{
guideLines = (
{
position = "{-230, -10}";
},
{
position = "{-230, 530}";
},
{
angle = 90;
position = "{243, 0}";
},
{
angle = 90;
position = "{-609, 0}";
},
{
angle = 90;
position = "{223, 0}";
}
);
hints = (
{
horizontal = 1;
place = "{-79.000000, 0.000000}";
type = Tag;
name = hr01;
},
{
horizontal = 1;
place = "{-162.000000, 0.000000}";
type = Tag;
name = hr02;
}
);
layerId = "581BC726-83A6-4935-8633-5A6508251040";
name = "Light Italic";
paths = (
{
closed = 1;
nodes = (
"268 -10 OFFCURVE",
"344 26 OFFCURVE",
"398 100 CURVE",
"416 36 OFFCURVE",
"464 -10 OFFCURVE",
"562 -10 CURVE SMOOTH",
"697 -10 OFFCURVE",
"783 81 OFFCURVE",
"790 111 CURVE SMOOTH",
"792 123 OFFCURVE",
"785 131 OFFCURVE",
"773 131 CURVE",
"761 131 LINE",
"746 131 OFFCURVE",
"741 129 OFFCURVE",
"727 113 CURVE SMOOTH",
"685 67 OFFCURVE",
"626 48 OFFCURVE",
"574 48 CURVE SMOOTH",
"505 48 OFFCURVE",
"435 95 OFFCURVE",
"459 225 CURVE",
"461 235 LINE",
"807 235 LINE",
"820 235 OFFCURVE",
"832 244 OFFCURVE",
"835 257 CURVE",
"838 272 LINE",
"859 373 OFFCURVE",
"864 530 OFFCURVE",
"678 530 CURVE SMOOTH",
"594 530 OFFCURVE",
"530 494 OFFCURVE",
"485 442 CURVE",
"471 491 OFFCURVE",
"427 530 OFFCURVE",
"326 530 CURVE SMOOTH",
"193 530 OFFCURVE",
"121 442 OFFCURVE",
"113 405 CURVE SMOOTH",
"111 393 OFFCURVE",
"118 383 OFFCURVE",
"130 383 CURVE",
"144 383 LINE",
"156 383 OFFCURVE",
"164 388 OFFCURVE",
"173 404 CURVE SMOOTH",
"191 437 OFFCURVE",
"239 472 OFFCURVE",
"313 472 CURVE SMOOTH",
"407 472 OFFCURVE",
"440 429 OFFCURVE",
"425 358 CURVE",
"418 326 LINE",
"256 304 LINE",
"135 288 OFFCURVE",
"42 229 OFFCURVE",
"23 139 CURVE SMOOTH",
"5 55 OFFCURVE",
"64 -10 OFFCURVE",
"170 -10 CURVE SMOOTH"
);
},
{
closed = 1;
nodes = (
"130 48 OFFCURVE",
"71 78 OFFCURVE",
"85 144 CURVE SMOOTH",
"96 198 OFFCURVE",
"161 235 OFFCURVE",
"273 250 CURVE",
"406 268 LINE",
"399 234 LINE",
"372 108 OFFCURVE",
"284 48 OFFCURVE",
"192 48 CURVE SMOOTH"
);
},
{
closed = 1;
nodes = (
"474 295 LINE",
"503 416 OFFCURVE",
"589 472 OFFCURVE",
"665 472 CURVE SMOOTH",
"770 472 OFFCURVE",
"803 396 OFFCURVE",
"782 295 CURVE",
"781 291 LINE",
"473 291 LINE"
);
}
);
width = 881;
},
{
guideLines = (
{
position = "{-100, -10}";
},
{
position = "{-100, 530}";
},
{
angle = 90;
position = "{388, 0}";
},
{
angle = 90;
position = "{-469, 0}";
}
);
hints = (
{
horizontal = 1;
place = "{9223372036854775808.000000, 0.000000}";
type = Tag;
name = hr01;
},
{
horizontal = 1;
place = "{9223372036854775808.000000, 0.000000}";
type = Tag;
name = hr02;
},
{
horizontal = 1;
place = "{9223372036854775808.000000, 0.000000}";
type = Tag;
name = hr03;
}
);
layerId = "EC64484B-0978-4CB1-9EE9-C40A2D8C4059";
name = "Bold Italic";
paths = (
{
closed = 1;
nodes = (
"238 -10 OFFCURVE",
"317 -1 OFFCURVE",
"389 51 CURVE",
"428 11 OFFCURVE",
"492 -10 OFFCURVE",
"573 -10 CURVE SMOOTH",
"758 -10 OFFCURVE",
"866 94 OFFCURVE",
"877 145 CURVE SMOOTH",
"880 158 OFFCURVE",
"872 167 OFFCURVE",
"859 167 CURVE SMOOTH",
"670 167 LINE SMOOTH",
"654 167 OFFCURVE",
"649 165 OFFCURVE",
"635 153 CURVE SMOOTH",
"621 142 OFFCURVE",
"614 135 OFFCURVE",
"602 135 CURVE SMOOTH",
"573 135 OFFCURVE",
"567 156 OFFCURVE",
"576 196 CURVE SMOOTH",
"577 201 LINE",
"875 201 LINE SMOOTH",
"890 201 OFFCURVE",
"904 213 OFFCURVE",
"907 228 CURVE SMOOTH",
"914 258 LINE SMOOTH",
"945 405 OFFCURVE",
"883 530 OFFCURVE",
"687 530 CURVE SMOOTH",
"628 530 OFFCURVE",
"574 516 OFFCURVE",
"526 493 CURVE",
"498 517 OFFCURVE",
"451 530 OFFCURVE",
"377 530 CURVE SMOOTH",
"190 530 OFFCURVE",
"93 431 OFFCURVE",
"82 380 CURVE SMOOTH",
"79 367 OFFCURVE",
"86 358 OFFCURVE",
"99 358 CURVE SMOOTH",
"269 358 LINE SMOOTH",
"301 358 OFFCURVE",
"311 390 OFFCURVE",
"345 390 CURVE SMOOTH",
"373 390 OFFCURVE",
"372 375 OFFCURVE",
"364 339 CURVE",
"254 322 LINE",
"117 299 OFFCURVE",
"19 246 OFFCURVE",
"-1 149 CURVE SMOOTH",
"-20 59 OFFCURVE",
"43 -10 OFFCURVE",
"179 -10 CURVE SMOOTH"
);
},
{
closed = 1;
nodes = (
"234 138 OFFCURVE",
"224 151 OFFCURVE",
"227 166 CURVE SMOOTH",
"230 180 OFFCURVE",
"242 195 OFFCURVE",
"279 203 CURVE SMOOTH",
"341 216 LINE",
"329 162 OFFCURVE",
"298 138 OFFCURVE",
"259 138 CURVE SMOOTH"
);
},
{
closed = 1;
nodes = (
"604 330 LINE SMOOTH",
"613 371 OFFCURVE",
"631 390 OFFCURVE",
"657 390 CURVE SMOOTH",
"682 390 OFFCURVE",
"693 371 OFFCURVE",
"684 330 CURVE SMOOTH",
"683 326 LINE",
"603 326 LINE"
);
}
);
width = 935;
}
);
leftKerningGroup = a;
rightKerningGroup = e;
unicode = 00E6;
userData = {
com.typemytype.robofont.guides = (
{
angle = 0;
isGlobal = 0;
magnetic = 5;
x = 0;
y = "-10";
},
{
angle = 0;
isGlobal = 0;
magnetic = 5;
x = 0;
y = 530;
},
{
angle = 90;
isGlobal = 0;
magnetic = 5;
x = 473;
y = 0;
},
{
angle = 90;
isGlobal = 0;
magnetic = 5;
x = "-379";
y = 0;
},
{
angle = 90;
isGlobal = 0;
magnetic = 5;
x = 453;
y = 0;
}
);
};
},
{
glyphname = b;
lastChange = "2015-11-17 17:19:16 +0000";
layers = (
{
guideLines = (
{
position = "{-230, 530}";
},
{
position = "{-230, -10}";
},
{
position = "{-230, 710}";
},
{
position = "{-230, 288}";
},
{
position = "{-230, 232}";
},
{
position = "{-230, 451}";
},
{
position = "{-230, 69}";
},
{
angle = 90;
position = "{-109, 0}";
},
{
angle = 90;
position = "{-151, 0}";
}
);
hints = (
{
horizontal = 1;
place = "{-220.000000, 0.000000}";
type = Tag;
name = hr01;
}
);
layerId = "581BC726-83A6-4935-8633-5A6508251040";
name = "Light Italic";
paths = (
{
closed = 1;
nodes = (
"415 -10 OFFCURVE",
"495 115 OFFCURVE",
"524 232 CURVE SMOOTH",
"530 252 OFFCURVE",
"533 268 OFFCURVE",
"536 288 CURVE SMOOTH",
"557 405 OFFCURVE",
"530 530 OFFCURVE",
"374 530 CURVE SMOOTH",
"291 530 OFFCURVE",
"231 495 OFFCURVE",
"189 451 CURVE",
"239 688 LINE SMOOTH",
"242 701 OFFCURVE",
"235 710 OFFCURVE",
"222 710 CURVE SMOOTH",
"205 710 LINE SMOOTH",
"192 710 OFFCURVE",
"181 701 OFFCURVE",
"178 688 CURVE SMOOTH",
"37 22 LINE SMOOTH",
"34 9 OFFCURVE",
"41 0 OFFCURVE",
"54 0 CURVE SMOOTH",
"71 0 LINE SMOOTH",
"84 0 OFFCURVE",
"95 9 OFFCURVE",
"98 22 CURVE SMOOTH",
"108 69 LINE",
"131 24 OFFCURVE",
"176 -10 OFFCURVE",
"259 -10 CURVE SMOOTH"
);
},
{
closed = 1;
nodes = (
"151 48 OFFCURVE",
"126 142 OFFCURVE",
"141 224 CURVE SMOOTH",
"144 244 OFFCURVE",
"152 282 OFFCURVE",
"157 302 CURVE SMOOTH",
"176 382 OFFCURVE",
"244 472 OFFCURVE",
"355 472 CURVE SMOOTH",
"472 472 OFFCURVE",
"492 384 OFFCURVE",
"475 288 CURVE SMOOTH",
"472 268 OFFCURVE",
"469 252 OFFCURVE",
"463 232 CURVE SMOOTH",
"439 136 OFFCURVE",
"382 48 OFFCURVE",
"265 48 CURVE SMOOTH"
);
}
);
width = 580;
},
{
guideLines = (
{
position = "{-100, 525}";
},
{
position = "{-100, -10}";
},
{
position = "{-100, 740}";
},
{
position = "{-100, 710}";
},
{
position = "{-100, 50}";
},
{
position = "{-100, 650}";
},
{
position = "{-100, 470}";
},
{
angle = 90;
position = "{189, 0}";
}
);
hints = (
{
horizontal = 1;
place = "{9223372036854775808.000000, 0.000000}";
type = Tag;
name = hr01;
},
{
horizontal = 1;
place = "{9223372036854775808.000000, 0.000000}";
type = Tag;
name = hr02;
}
);
layerId = "EC64484B-0978-4CB1-9EE9-C40A2D8C4059";
name = "Bold Italic";
paths = (
{
closed = 1;
nodes = (
"481 -10 OFFCURVE",
"583 54 OFFCURVE",
"626 221 CURVE SMOOTH",
"633 251 OFFCURVE",
"637 270 OFFCURVE",
"643 300 CURVE SMOOTH",
"670 457 OFFCURVE",
"596 530 OFFCURVE",
"480 530 CURVE SMOOTH",
"424 530 OFFCURVE",
"375 512 OFFCURVE",
"337 483 CURVE",
"379 683 LINE SMOOTH",
"382 698 OFFCURVE",
"373 710 OFFCURVE",
"358 710 CURVE SMOOTH",
"173 710 LINE SMOOTH",
"158 710 OFFCURVE",
"143 698 OFFCURVE",
"140 683 CURVE SMOOTH",
"1 27 LINE SMOOTH",
"-2 12 OFFCURVE",
"7 0 OFFCURVE",
"22 0 CURVE SMOOTH",
"192 0 LINE SMOOTH",
"207 0 OFFCURVE",
"222 12 OFFCURVE",
"225 27 CURVE SMOOTH",
"230 50 LINE",
"254 14 OFFCURVE",
"296 -10 OFFCURVE",
"365 -10 CURVE SMOOTH"
);
},
{
closed = 1;
nodes = (
"283 169 OFFCURVE",
"277 191 OFFCURVE",
"282 227 CURVE SMOOTH",
"287 257 OFFCURVE",
"290 271 OFFCURVE",
"298 301 CURVE SMOOTH",
"307 333 OFFCURVE",
"325 351 OFFCURVE",
"359 351 CURVE SMOOTH",
"396 351 OFFCURVE",
"400 329 OFFCURVE",
"396 293 CURVE SMOOTH",
"394 273 OFFCURVE",
"389 247 OFFCURVE",
"382 227 CURVE SMOOTH",
"371 191 OFFCURVE",
"357 169 OFFCURVE",
"320 169 CURVE SMOOTH"
);
}
);
width = 661;
}
);
leftKerningGroup = h;
rightKerningGroup = b;
unicode = 0062;
userData = {
com.typemytype.robofont.guides = (
{
angle = 0;
isGlobal = 0;
magnetic = 5;
x = 0;
y = 530;
},
{
angle = 0;
isGlobal = 0;
magnetic = 5;
x = 0;
y = "-10";
},
{
angle = 0;
isGlobal = 0;
magnetic = 5;
x = 0;
y = 710;
},
{
angle = 0;
isGlobal = 0;
magnetic = 5;
x = 0;
y = 288;
},
{
angle = 0;
isGlobal = 0;
magnetic = 5;
x = 0;
y = 232;
},
{
angle = 0;
isGlobal = 0;
magnetic = 5;
x = 0;
y = 451;
},
{
angle = 0;
isGlobal = 0;
magnetic = 5;
x = 0;
y = 69;
},
{
angle = 90;
isGlobal = 0;
magnetic = 5;
x = 121;
y = 0;
},
{
angle = 90;
isGlobal = 0;
magnetic = 5;
x = 79;
y = 0;
}
);
};
},
{
glyphname = c;
lastChange = "2015-11-17 17:19:16 +0000";
layers = (
{
guideLines = (
{
position = "{-230, -10}";
},
{
position = "{-230, 295}";
},
{
position = "{-230, 225}";
},
{
angle = 90;
position = "{215, 0}";
},
{
angle = 90;
position = "{254, 0}";
},
{
angle = 90;
position = "{-93, 0}";
},
{
angle = 90;
position = "{40, 0}";
}
);
hints = (
{
horizontal = 1;
place = "{85.000000, 0.000000}";
type = Tag;
name = hr00;
}
);
layerId = "581BC726-83A6-4935-8633-5A6508251040";
name = "Light Italic";
paths = (
{
closed = 1;
nodes = (
"367 -10 OFFCURVE",
"448 77 OFFCURVE",
"467 149 CURVE SMOOTH",
"470 162 OFFCURVE",
"461 171 OFFCURVE",
"449 171 CURVE SMOOTH",
"435 171 LINE SMOOTH",
"421 171 OFFCURVE",
"416 166 OFFCURVE",
"407 150 CURVE SMOOTH",
"363 74 OFFCURVE",
"308 48 OFFCURVE",
"238 48 CURVE SMOOTH",
"147 48 OFFCURVE",
"93 100 OFFCURVE",
"116 225 CURVE SMOOTH",
"119 245 OFFCURVE",
"125 275 OFFCURVE",
"131 295 CURVE SMOOTH",
"161 420 OFFCURVE",
"237 472 OFFCURVE",
"328 472 CURVE SMOOTH",
"398 472 OFFCURVE",
"442 446 OFFCURVE",
"454 370 CURVE SMOOTH",
"456 354 OFFCURVE",
"459 349 OFFCURVE",
"473 349 CURVE SMOOTH",
"487 349 LINE SMOOTH",
"499 349 OFFCURVE",
"512 358 OFFCURVE",
"514 371 CURVE SMOOTH",
"526 443 OFFCURVE",
"482 530 OFFCURVE",
"341 530 CURVE SMOOTH",
"200 530 OFFCURVE",
"105 443 OFFCURVE",
"71 300 CURVE SMOOTH",
"66 280 OFFCURVE",
"57 240 OFFCURVE",
"54 220 CURVE SMOOTH",
"27 77 OFFCURVE",
"85 -10 OFFCURVE",
"226 -10 CURVE SMOOTH"
);
}
);
width = 536;
},
{
guideLines = (
{
position = "{-100, -10}";
},
{
position = "{-100, 295}";
},
{
position = "{-100, 224}";
},
{
angle = 90;
position = "{-750, 0}";
},
{
angle = 90;
position = "{-505, 0}";
}
);
hints = (
{
horizontal = 1;
place = "{9223372036854775808.000000, 0.000000}";
type = Tag;
name = hr01;
},
{
horizontal = 1;
place = "{9223372036854775808.000000, 0.000000}";
type = Tag;
name = hr02;
}
);
layerId = "EC64484B-0978-4CB1-9EE9-C40A2D8C4059";
name = "Bold Italic";
paths = (
{
closed = 1;
nodes = (
"479 -10 OFFCURVE",
"580 141 OFFCURVE",
"592 184 CURVE SMOOTH",
"596 199 OFFCURVE",
"586 211 OFFCURVE",
"571 211 CURVE SMOOTH",
"376 211 LINE SMOOTH",
"361 211 OFFCURVE",
"350 203 OFFCURVE",
"343 191 CURVE SMOOTH",
"331 172 OFFCURVE",
"323 161 OFFCURVE",
"299 161 CURVE SMOOTH",
"268 161 OFFCURVE",
"265 181 OFFCURVE",
"273 224 CURVE SMOOTH",
"276 243 OFFCURVE",
"281 266 OFFCURVE",
"288 295 CURVE SMOOTH",
"297 335 OFFCURVE",
"310 359 OFFCURVE",
"341 359 CURVE SMOOTH",
"361 359 OFFCURVE",
"367 348 OFFCURVE",
"372 329 CURVE SMOOTH",
"375 317 OFFCURVE",
"382 309 OFFCURVE",
"397 309 CURVE SMOOTH",
"592 309 LINE SMOOTH",
"607 309 OFFCURVE",
"622 321 OFFCURVE",
"624 336 CURVE SMOOTH",
"633 389 OFFCURVE",
"584 530 OFFCURVE",
"373 530 CURVE SMOOTH",
"220 530 OFFCURVE",
"82 448 OFFCURVE",
"44 300 CURVE SMOOTH",
"38 277 OFFCURVE",
"30 240 OFFCURVE",
"27 219 CURVE SMOOTH",
"3 71 OFFCURVE",
"105 -10 OFFCURVE",
"258 -10 CURVE SMOOTH"
);
}
);
width = 622;
}
);
leftKerningGroup = o;
rightKerningGroup = c;
unicode = 0063;
userData = {
com.typemytype.robofont.guides = (
{
angle = 0;
isGlobal = 0;
magnetic = 5;
x = 0;
y = "-10";
},
{
angle = 0;
isGlobal = 0;
magnetic = 5;
x = 0;
y = 295;
},
{
angle = 0;
isGlobal = 0;
magnetic = 5;
x = 0;
y = 225;
},
{
angle = 90;
isGlobal = 0;
magnetic = 5;
x = 445;
y = 0;
},
{
angle = 90;
isGlobal = 0;
magnetic = 5;
x = 484;
y = 0;
},
{
angle = 90;
isGlobal = 0;
magnetic = 5;
x = 137;
y = 0;
},
{
angle = 90;
isGlobal = 0;
magnetic = 5;
x = 270;
y = 0;
}
);
};
},
{
glyphname = ccedilla;
lastChange = "2015-11-17 17:19:16 +0000";
layers = (
{
hints = (
{
horizontal = 1;
place = "{85.000000, 0.000000}";
type = Tag;
name = hr00;
}
);
layerId = "581BC726-83A6-4935-8633-5A6508251040";
name = "Light Italic";
paths = (
{
closed = 1;
nodes = (
"241 -221 OFFCURVE",
"281 -180 OFFCURVE",
"291 -132 CURVE SMOOTH",
"301 -84 OFFCURVE",
"276 -50 OFFCURVE",
"232 -50 CURVE SMOOTH",
"217 -50 OFFCURVE",
"202 -53 OFFCURVE",
"193 -58 CURVE",
"226 -10 LINE",
"367 -10 OFFCURVE",
"448 77 OFFCURVE",
"467 149 CURVE SMOOTH",
"470 162 OFFCURVE",
"461 171 OFFCURVE",
"449 171 CURVE",
"435 171 LINE",
"421 171 OFFCURVE",
"416 166 OFFCURVE",
"407 150 CURVE SMOOTH",
"363 74 OFFCURVE",
"308 48 OFFCURVE",
"238 48 CURVE SMOOTH",
"147 48 OFFCURVE",
"93 100 OFFCURVE",
"116 225 CURVE SMOOTH",
"119 245 OFFCURVE",
"125 275 OFFCURVE",
"131 295 CURVE SMOOTH",
"161 420 OFFCURVE",
"237 472 OFFCURVE",
"328 472 CURVE SMOOTH",
"398 472 OFFCURVE",
"442 446 OFFCURVE",
"454 370 CURVE SMOOTH",
"456 354 OFFCURVE",
"459 349 OFFCURVE",
"473 349 CURVE",
"487 349 LINE",
"499 349 OFFCURVE",
"512 358 OFFCURVE",
"514 371 CURVE SMOOTH",
"526 443 OFFCURVE",
"482 530 OFFCURVE",
"341 530 CURVE SMOOTH",
"200 530 OFFCURVE",
"105 443 OFFCURVE",
"71 300 CURVE SMOOTH",
"66 280 OFFCURVE",
"57 240 OFFCURVE",
"54 220 CURVE SMOOTH",
"30 96 OFFCURVE",
"71 14 OFFCURVE",
"174 -5 CURVE",
"143 -53 LINE",
"137 -63 OFFCURVE",
"126 -75 OFFCURVE",
"131 -83 CURVE",
"144 -100 LINE",
"155 -116 OFFCURVE",
"173 -96 OFFCURVE",
"205 -96 CURVE SMOOTH",
"228 -96 OFFCURVE",
"245 -110 OFFCURVE",
"240 -134 CURVE SMOOTH",
"234 -159 OFFCURVE",
"211 -174 OFFCURVE",
"188 -174 CURVE SMOOTH",
"144 -174 OFFCURVE",
"144 -140 OFFCURVE",
"124 -156 CURVE",
"107 -169 LINE",
"88 -184 OFFCURVE",
"121 -219 OFFCURVE",
"178 -220 CURVE SMOOTH"
);
}
);
width = 536;
},
{
hints = (
{
horizontal = 1;
place = "{9223372036854775808.000000, 0.000000}";
type = Tag;
name = hr01;
},
{
horizontal = 1;
place = "{9223372036854775808.000000, 0.000000}";
type = Tag;
name = hr02;
}
);
layerId = "EC64484B-0978-4CB1-9EE9-C40A2D8C4059";
name = "Bold Italic";
paths = (
{
closed = 1;
nodes = (
"274 -220 OFFCURVE",
"321 -183 OFFCURVE",
"332 -130 CURVE SMOOTH",
"344 -77 OFFCURVE",
"321 -40 OFFCURVE",
"270 -40 CURVE SMOOTH",
"266 -40 OFFCURVE",
"248 -42 OFFCURVE",
"239 -45 CURVE",
"265 -10 LINE",
"481 -7 OFFCURVE",
"580 141 OFFCURVE",
"592 184 CURVE SMOOTH",
"596 199 OFFCURVE",
"586 211 OFFCURVE",
"571 211 CURVE",
"376 211 LINE",
"361 211 OFFCURVE",
"350 203 OFFCURVE",
"343 191 CURVE SMOOTH",
"331 172 OFFCURVE",
"323 161 OFFCURVE",
"299 161 CURVE SMOOTH",
"268 161 OFFCURVE",
"265 181 OFFCURVE",
"273 224 CURVE SMOOTH",
"276 243 OFFCURVE",
"281 266 OFFCURVE",
"288 295 CURVE SMOOTH",
"297 335 OFFCURVE",
"310 359 OFFCURVE",
"341 359 CURVE SMOOTH",
"361 359 OFFCURVE",
"367 348 OFFCURVE",
"372 329 CURVE SMOOTH",
"375 317 OFFCURVE",
"382 309 OFFCURVE",
"397 309 CURVE",
"592 309 LINE",
"607 309 OFFCURVE",
"622 321 OFFCURVE",
"624 336 CURVE SMOOTH",
"633 389 OFFCURVE",
"584 530 OFFCURVE",
"373 530 CURVE SMOOTH",
"220 530 OFFCURVE",
"82 448 OFFCURVE",
"44 300 CURVE SMOOTH",
"38 277 OFFCURVE",
"30 240 OFFCURVE",
"27 219 CURVE SMOOTH",
"6 89 OFFCURVE",
"81 11 OFFCURVE",
"203 -6 CURVE",
"173 -52 LINE",
"160 -71 OFFCURVE",
"161 -76 OFFCURVE",
"168 -85 CURVE",
"184 -106 LINE",
"195 -119 OFFCURVE",
"220 -106 OFFCURVE",
"238 -106 CURVE SMOOTH",
"258 -106 OFFCURVE",
"264 -118 OFFCURVE",
"261 -130 CURVE SMOOTH",
"259 -142 OFFCURVE",
"247 -154 OFFCURVE",
"228 -154 CURVE SMOOTH",
"194 -154 OFFCURVE",
"193 -136 OFFCURVE",
"173 -151 CURVE",
"148 -169 LINE",
"121 -189 OFFCURVE",
"161 -220 OFFCURVE",
"214 -220 CURVE SMOOTH"
);
}
);
width = 622;
}
);
leftKerningGroup = o;
rightKerningGroup = c;
unicode = 00E7;
},
{
glyphname = d;
lastChange = "2015-11-17 17:19:16 +0000";
layers = (
{
guideLines = (
{
position = "{-230, 650}";
},
{
position = "{-230, 530}";
},
{
angle = 90;
position = "{208, 0}";
},
{
angle = 90;
position = "{269, 0}";
}
);
hints = (
{
horizontal = 1;
place = "{-210.000000, 0.000000}";
type = Tag;
name = hr01;
},
{
horizontal = 1;
place = "{-162.000000, 0.000000}";
type = Tag;
name = hr02;
}
);
layerId = "581BC726-83A6-4935-8633-5A6508251040";
name = "Light Italic";
paths = (
{
closed = 1;
nodes = (
"300 -10 OFFCURVE",
"359 24 OFFCURVE",
"402 69 CURVE",
"392 22 LINE SMOOTH",
"389 9 OFFCURVE",
"396 0 OFFCURVE",
"409 0 CURVE SMOOTH",
"426 0 LINE SMOOTH",
"439 0 OFFCURVE",
"450 9 OFFCURVE",
"453 22 CURVE SMOOTH",
"594 688 LINE SMOOTH",
"597 701 OFFCURVE",
"590 710 OFFCURVE",
"577 710 CURVE SMOOTH",
"560 710 LINE SMOOTH",
"547 710 OFFCURVE",
"536 701 OFFCURVE",
"533 688 CURVE SMOOTH",
"483 451 LINE",
"459 495 OFFCURVE",
"415 530 OFFCURVE",
"332 530 CURVE SMOOTH",
"176 530 OFFCURVE",
"95 405 OFFCURVE",
"66 288 CURVE SMOOTH",
"61 268 OFFCURVE",
"58 252 OFFCURVE",
"54 232 CURVE SMOOTH",
"33 115 OFFCURVE",
"61 -10 OFFCURVE",
"217 -10 CURVE SMOOTH"
);
},
{
closed = 1;
nodes = (
"118 48 OFFCURVE",
"99 136 OFFCURVE",
"115 232 CURVE SMOOTH",
"119 252 OFFCURVE",
"122 268 OFFCURVE",
"127 288 CURVE SMOOTH",
"152 384 OFFCURVE",
"208 472 OFFCURVE",
"325 472 CURVE SMOOTH",
"436 472 OFFCURVE",
"466 382 OFFCURVE",
"451 302 CURVE SMOOTH",
"448 282 OFFCURVE",
"440 244 OFFCURVE",
"435 224 CURVE SMOOTH",
"414 142 OFFCURVE",
"349 48 OFFCURVE",
"235 48 CURVE SMOOTH"
);
}
);
width = 580;
},
{
guideLines = (
{
position = "{-100, 675}";
},
{
position = "{-100, 650}";
},
{
position = "{-100, 530}";
},
{
angle = 90;
position = "{148, 0}";
}
);
hints = (
{
horizontal = 1;
place = "{9223372036854775808.000000, 0.000000}";
type = Tag;
name = hr01;
},
{
horizontal = 1;
place = "{9223372036854775808.000000, 0.000000}";
type = Tag;
name = hr02;
}
);
layerId = "EC64484B-0978-4CB1-9EE9-C40A2D8C4059";
name = "Bold Italic";
paths = (
{
closed = 1;
nodes = (
"261 -10 OFFCURVE",
"313 14 OFFCURVE",
"353 50 CURVE",
"348 27 LINE SMOOTH",
"345 12 OFFCURVE",
"354 0 OFFCURVE",
"369 0 CURVE SMOOTH",
"539 0 LINE SMOOTH",
"554 0 OFFCURVE",
"569 12 OFFCURVE",
"572 27 CURVE SMOOTH",
"711 683 LINE SMOOTH",
"714 698 OFFCURVE",
"705 710 OFFCURVE",
"690 710 CURVE SMOOTH",
"505 710 LINE SMOOTH",
"490 710 OFFCURVE",
"475 698 OFFCURVE",
"472 683 CURVE SMOOTH",
"430 483 LINE",
"404 512 OFFCURVE",
"363 530 OFFCURVE",
"307 530 CURVE SMOOTH",
"191 530 OFFCURVE",
"85 457 OFFCURVE",
"46 300 CURVE SMOOTH",
"38 270 OFFCURVE",
"34 251 OFFCURVE",
"29 221 CURVE SMOOTH",
"0 54 OFFCURVE",
"76 -10 OFFCURVE",
"192 -10 CURVE SMOOTH"
);
},
{
closed = 1;
nodes = (
"276 169 OFFCURVE",
"272 191 OFFCURVE",
"275 227 CURVE SMOOTH",
"278 247 OFFCURVE",
"283 273 OFFCURVE",
"289 293 CURVE SMOOTH",
"301 329 OFFCURVE",
"315 351 OFFCURVE",
"352 351 CURVE SMOOTH",
"386 351 OFFCURVE",
"396 333 OFFCURVE",
"391 301 CURVE SMOOTH",
"387 271 OFFCURVE",
"384 257 OFFCURVE",
"375 227 CURVE SMOOTH",
"366 191 OFFCURVE",
"350 169 OFFCURVE",
"313 169 CURVE SMOOTH"
);
}
);
width = 661;
}
);
leftKerningGroup = d;
rightKerningGroup = d;
unicode = 0064;
userData = {
com.typemytype.robofont.guides = (
{
angle = 0;
isGlobal = 0;
magnetic = 5;
x = 0;
y = 650;
},
{
angle = 0;
isGlobal = 0;
magnetic = 5;
x = 0;
y = 530;
},
{
angle = 90;
isGlobal = 0;
magnetic = 5;
x = 438;
y = 0;
},
{
angle = 90;
isGlobal = 0;
magnetic = 5;
x = 499;
y = 0;
}
);
};
},
{
glyphname = eth;
lastChange = "2015-11-17 17:19:16 +0000";
layers = (
{
guideLines = (
{
position = "{-230, 512}";
},
{
angle = 90;
position = "{-16, 0}";
},
{
angle = 90;
position = "{254, 0}";
}
);
hints = (
{
horizontal = 1;
place = "{21.000000, 0.000000}";
type = Tag;
name = hr00;
}
);
layerId = "581BC726-83A6-4935-8633-5A6508251040";
name = "Light Italic";
paths = (
{
closed = 1;
nodes = (
"365 -10 OFFCURVE",
"463 94 OFFCURVE",
"491 231 CURVE SMOOTH",
"525 402 OFFCURVE",
"511 501 OFFCURVE",
"470 575 CURVE",
"537 599 LINE",
"555 605 OFFCURVE",
"561 609 OFFCURVE",
"565 624 CURVE",
"569 643 LINE",
"571 655 OFFCURVE",
"564 661 OFFCURVE",
"553 661 CURVE SMOOTH",
"549 661 OFFCURVE",
"545 660 OFFCURVE",
"540 658 CURVE",
"439 622 LINE",
"423 644 OFFCURVE",
"404 665 OFFCURVE",
"384 687 CURVE SMOOTH",
"376 695 OFFCURVE",
"367 700 OFFCURVE",
"351 700 CURVE",
"331 700 LINE",
"319 700 OFFCURVE",
"309 692 OFFCURVE",
"307 680 CURVE SMOOTH",
"305 675 OFFCURVE",
"307 669 OFFCURVE",
"319 658 CURVE SMOOTH",
"339 638 OFFCURVE",
"357 618 OFFCURVE",
"373 599 CURVE",
"306 575 LINE",
"289 569 OFFCURVE",
"282 565 OFFCURVE",
"279 550 CURVE",
"275 531 LINE",
"272 519 OFFCURVE",
"279 513 OFFCURVE",
"290 513 CURVE SMOOTH",
"294 513 OFFCURVE",
"298 514 OFFCURVE",
"304 516 CURVE",
"408 553 LINE",
"428 518 OFFCURVE",
"441 479 OFFCURVE",
"447 431 CURVE",
"418 456 OFFCURVE",
"376 470 OFFCURVE",
"323 470 CURVE SMOOTH",
"179 470 OFFCURVE",
"81 368 OFFCURVE",
"53 231 CURVE",
"23 94 OFFCURVE",
"77 -10 OFFCURVE",
"221 -10 CURVE SMOOTH"
);
},
{
closed = 1;
nodes = (
"128 48 OFFCURVE",
"93 130 OFFCURVE",
"114 231 CURVE SMOOTH",
"136 332 OFFCURVE",
"206 412 OFFCURVE",
"311 412 CURVE SMOOTH",
"416 412 OFFCURVE",
"452 332 OFFCURVE",
"430 231 CURVE SMOOTH",
"409 130 OFFCURVE",
"338 48 OFFCURVE",
"233 48 CURVE SMOOTH"
);
}
);
width = 550;
},
{
hints = (
{
horizontal = 1;
place = "{9223372036854775808.000000, 0.000000}";
type = Tag;
name = hr01;
}
);
layerId = "EC64484B-0978-4CB1-9EE9-C40A2D8C4059";
name = "Bold Italic";
paths = (
{
closed = 1;
nodes = (
"437 -10 OFFCURVE",
"561 68 OFFCURVE",
"604 225 CURVE SMOOTH",
"609 245 OFFCURVE",
"614 268 OFFCURVE",
"617 288 CURVE SMOOTH",
"639 424 OFFCURVE",
"621 524 OFFCURVE",
"576 601 CURVE",
"620 617 LINE",
"637 623 OFFCURVE",
"645 632 OFFCURVE",
"649 650 CURVE",
"655 678 LINE",
"658 690 OFFCURVE",
"651 699 OFFCURVE",
"639 699 CURVE SMOOTH",
"637 699 OFFCURVE",
"632 698 OFFCURVE",
"627 696 CURVE",
"529 661 LINE",
"521 670 OFFCURVE",
"511 678 OFFCURVE",
"502 687 CURVE SMOOTH",
"494 694 OFFCURVE",
"479 700 OFFCURVE",
"452 700 CURVE",
"264 700 LINE",
"252 700 OFFCURVE",
"240 690 OFFCURVE",
"237 678 CURVE SMOOTH",
"236 673 OFFCURVE",
"238 665 OFFCURVE",
"246 659 CURVE SMOOTH",
"273 637 OFFCURVE",
"299 613 OFFCURVE",
"321 586 CURVE",
"240 557 LINE",
"223 551 OFFCURVE",
"215 542 OFFCURVE",
"211 524 CURVE",
"205 496 LINE",
"203 484 OFFCURVE",
"210 475 OFFCURVE",
"222 475 CURVE SMOOTH",
"224 475 OFFCURVE",
"228 476 OFFCURVE",
"234 478 CURVE",
"361 524 LINE",
"370 506 OFFCURVE",
"376 488 OFFCURVE",
"380 470 CURVE",
"366 470 LINE",
"203 470 OFFCURVE",
"59 392 OFFCURVE",
"25 230 CURVE SMOOTH",
"-10 68 OFFCURVE",
"90 -10 OFFCURVE",
"264 -10 CURVE SMOOTH"
);
},
{
closed = 1;
nodes = (
"261 150 OFFCURVE",
"258 171 OFFCURVE",
"264 204 CURVE SMOOTH",
"268 224 OFFCURVE",
"270 236 OFFCURVE",
"275 256 CURVE SMOOTH",
"284 288 OFFCURVE",
"295 310 OFFCURVE",
"332 310 CURVE SMOOTH",
"369 310 OFFCURVE",
"370 288 OFFCURVE",
"365 256 CURVE SMOOTH",
"362 236 OFFCURVE",
"359 223 OFFCURVE",
"354 203 CURVE SMOOTH",
"346 171 OFFCURVE",
"332 150 OFFCURVE",
"298 150 CURVE SMOOTH"
);
}
);
width = 638;
}
);
unicode = 00F0;
userData = {
com.typemytype.robofont.guides = (
{
angle = 0;
isGlobal = 0;
magnetic = 5;
x = 0;
y = 512;
},
{
angle = 90;
isGlobal = 0;
magnetic = 5;
x = 214;
y = 0;
},
{
angle = 90;
isGlobal = 0;
magnetic = 5;
x = 484;
y = 0;
}
);
};
},
{
glyphname = dcroat;
lastChange = "2015-11-17 17:19:17 +0000";
layers = (
{
guideLines = (
{
position = "{-230, 600}";
}
);
hints = (
{
horizontal = 1;
place = "{-210.000000, 0.000000}";
type = Tag;
name = hr01;
},
{
horizontal = 1;
place = "{-162.000000, 0.000000}";
type = Tag;
name = hr02;
}
);
layerId = "581BC726-83A6-4935-8633-5A6508251040";
name = "Light Italic";
paths = (
{
closed = 1;
nodes = (
"301 -10 OFFCURVE",
"360 24 OFFCURVE",
"403 69 CURVE",
"393 22 LINE SMOOTH",
"390 9 OFFCURVE",
"397 0 OFFCURVE",
"410 0 CURVE SMOOTH",
"427 0 LINE SMOOTH",
"440 0 OFFCURVE",
"451 9 OFFCURVE",
"454 22 CURVE SMOOTH",
"570 571 LINE",
"628 571 LINE SMOOTH",
"641 571 OFFCURVE",
"652 580 OFFCURVE",
"655 593 CURVE SMOOTH",
"658 607 LINE SMOOTH",
"661 620 OFFCURVE",
"654 629 OFFCURVE",
"641 629 CURVE SMOOTH",
"583 629 LINE",
"595 688 LINE SMOOTH",
"598 701 OFFCURVE",
"591 710 OFFCURVE",
"578 710 CURVE SMOOTH",
"561 710 LINE SMOOTH",
"548 710 OFFCURVE",
"537 701 OFFCURVE",
"534 688 CURVE SMOOTH",
"522 629 LINE",
"464 629 LINE SMOOTH",
"451 629 OFFCURVE",
"440 620 OFFCURVE",
"437 607 CURVE SMOOTH",
"434 593 LINE SMOOTH",
"431 580 OFFCURVE",
"438 571 OFFCURVE",
"451 571 CURVE SMOOTH",
"509 571 LINE",
"484 451 LINE",
"460 495 OFFCURVE",
"416 530 OFFCURVE",
"333 530 CURVE SMOOTH",
"157 530 OFFCURVE",
"91 385 OFFCURVE",
"67 288 CURVE SMOOTH",
"62 268 OFFCURVE",
"59 252 OFFCURVE",
"55 232 CURVE SMOOTH",
"38 135 OFFCURVE",
"42 -10 OFFCURVE",
"218 -10 CURVE SMOOTH"
);
},
{
closed = 1;
nodes = (
"119 48 OFFCURVE",
"99 136 OFFCURVE",
"116 232 CURVE SMOOTH",
"120 252 OFFCURVE",
"123 268 OFFCURVE",
"128 288 CURVE SMOOTH",
"152 384 OFFCURVE",
"209 472 OFFCURVE",
"326 472 CURVE SMOOTH",
"437 472 OFFCURVE",
"467 382 OFFCURVE",
"452 302 CURVE SMOOTH",
"449 282 OFFCURVE",
"441 244 OFFCURVE",
"436 224 CURVE SMOOTH",
"415 142 OFFCURVE",
"350 48 OFFCURVE",
"236 48 CURVE SMOOTH"
);
}
);
width = 580;
},
{
guideLines = (
{
position = "{-100, 600}";
}
);
hints = (
{
horizontal = 1;
place = "{9223372036854775808.000000, 0.000000}";
type = Tag;
name = hr01;
},
{
horizontal = 1;
place = "{9223372036854775808.000000, 0.000000}";
type = Tag;
name = hr02;
}
);
layerId = "EC64484B-0978-4CB1-9EE9-C40A2D8C4059";
name = "Bold Italic";
paths = (
{
closed = 1;
nodes = (
"261 -10 OFFCURVE",
"316 18 OFFCURVE",
"354 57 CURVE",
"348 27 LINE SMOOTH",
"345 12 OFFCURVE",
"354 0 OFFCURVE",
"369 0 CURVE SMOOTH",
"539 0 LINE SMOOTH",
"554 0 OFFCURVE",
"569 12 OFFCURVE",
"572 27 CURVE SMOOTH",
"682 548 LINE",
"712 548 LINE SMOOTH",
"727 548 OFFCURVE",
"742 560 OFFCURVE",
"745 575 CURVE SMOOTH",
"756 626 LINE SMOOTH",
"759 641 OFFCURVE",
"750 653 OFFCURVE",
"735 653 CURVE SMOOTH",
"705 653 LINE",
"711 683 LINE SMOOTH",
"714 698 OFFCURVE",
"705 710 OFFCURVE",
"690 710 CURVE SMOOTH",
"505 710 LINE SMOOTH",
"490 710 OFFCURVE",
"475 698 OFFCURVE",
"472 683 CURVE SMOOTH",
"466 653 LINE",
"436 653 LINE SMOOTH",
"421 653 OFFCURVE",
"406 641 OFFCURVE",
"403 626 CURVE SMOOTH",
"392 575 LINE SMOOTH",
"389 560 OFFCURVE",
"398 548 OFFCURVE",
"413 548 CURVE SMOOTH",
"443 548 LINE",
"430 483 LINE",
"404 512 OFFCURVE",
"363 530 OFFCURVE",
"307 530 CURVE SMOOTH",
"191 530 OFFCURVE",
"85 457 OFFCURVE",
"46 300 CURVE SMOOTH",
"38 270 OFFCURVE",
"34 251 OFFCURVE",
"29 221 CURVE SMOOTH",
"0 54 OFFCURVE",
"76 -10 OFFCURVE",
"192 -10 CURVE SMOOTH"
);
},
{
closed = 1;
nodes = (
"276 169 OFFCURVE",
"272 191 OFFCURVE",
"275 227 CURVE SMOOTH",
"278 247 OFFCURVE",
"283 273 OFFCURVE",
"289 293 CURVE SMOOTH",
"301 329 OFFCURVE",
"315 351 OFFCURVE",
"352 351 CURVE SMOOTH",
"386 351 OFFCURVE",
"396 333 OFFCURVE",
"391 301 CURVE SMOOTH",
"387 271 OFFCURVE",
"384 257 OFFCURVE",
"375 227 CURVE SMOOTH",
"366 191 OFFCURVE",
"350 169 OFFCURVE",
"313 169 CURVE SMOOTH"
);
}
);
width = 662;
}
);
leftKerningGroup = d;
rightKerningGroup = d;
unicode = 0111;
userData = {
com.typemytype.robofont.guides = (
{
angle = 0;
isGlobal = 0;
magnetic = 5;
x = 0;
y = 600;
}
);
};
},
{
glyphname = e;
lastChange = "2015-11-17 17:19:16 +0000";
layers = (
{
guideLines = (
{
position = "{-230, -10}";
},
{
angle = 90;
position = "{45, 0}";
},
{
angle = 90;
position = "{266, 0}";
},
{
angle = 90;
position = "{-169, 0}";
},
{
angle = 90;
position = "{-108, 0}";
},
{
angle = 90;
position = "{200, 0}";
}
);
hints = (
{
horizontal = 1;
place = "{90.000000, 0.000000}";
type = Tag;
name = hr00;
}
);
layerId = "581BC726-83A6-4935-8633-5A6508251040";
name = "Light Italic";
paths = (
{
closed = 1;
nodes = (
"348 -10 OFFCURVE",
"444 73 OFFCURVE",
"454 111 CURVE SMOOTH",
"457 123 OFFCURVE",
"449 131 OFFCURVE",
"437 131 CURVE SMOOTH",
"421 131 LINE SMOOTH",
"406 131 OFFCURVE",
"403 130 OFFCURVE",
"387 113 CURVE SMOOTH",
"373 97 OFFCURVE",
"319 48 OFFCURVE",
"234 48 CURVE SMOOTH",
"137 48 OFFCURVE",
"98 134 OFFCURVE",
"114 225 CURVE SMOOTH",
"114 228 OFFCURVE",
"116 235 OFFCURVE",
"116 235 CURVE",
"472 235 LINE SMOOTH",
"485 235 OFFCURVE",
"497 244 OFFCURVE",
"500 257 CURVE SMOOTH",
"503 272 LINE SMOOTH",
"537 432 OFFCURVE",
"476 530 OFFCURVE",
"337 530 CURVE SMOOTH",
"207 530 OFFCURVE",
"108 436 OFFCURVE",
"69 300 CURVE SMOOTH",
"64 280 OFFCURVE",
"55 240 OFFCURVE",
"52 220 CURVE SMOOTH",
"33 83 OFFCURVE",
"93 -10 OFFCURVE",
"222 -10 CURVE SMOOTH"
);
},
{
closed = 1;
nodes = (
"129 295 LINE SMOOTH",
"150 395 OFFCURVE",
"224 472 OFFCURVE",
"324 472 CURVE SMOOTH",
"424 472 OFFCURVE",
"468 395 OFFCURVE",
"447 295 CURVE SMOOTH",
"446 291 LINE",
"128 291 LINE"
);
}
);
width = 546;
},
{
guideLines = (
{
position = "{-100, -10}";
},
{
angle = 90;
position = "{505, 0}";
}
);
hints = (
{
horizontal = 1;
place = "{9223372036854775808.000000, 0.000000}";
type = Tag;
name = hr01;
}
);
layerId = "EC64484B-0978-4CB1-9EE9-C40A2D8C4059";
name = "Bold Italic";
paths = (
{
closed = 1;
nodes = (
"447 -10 OFFCURVE",
"552 94 OFFCURVE",
"566 145 CURVE SMOOTH",
"570 158 OFFCURVE",
"561 167 OFFCURVE",
"548 167 CURVE SMOOTH",
"359 167 LINE SMOOTH",
"343 167 OFFCURVE",
"338 165 OFFCURVE",
"324 153 CURVE SMOOTH",
"310 142 OFFCURVE",
"303 135 OFFCURVE",
"291 135 CURVE SMOOTH",
"262 135 OFFCURVE",
"256 156 OFFCURVE",
"265 196 CURVE SMOOTH",
"266 201 LINE",
"564 201 LINE SMOOTH",
"579 201 OFFCURVE",
"593 213 OFFCURVE",
"596 228 CURVE SMOOTH",
"603 258 LINE SMOOTH",
"634 405 OFFCURVE",
"572 530 OFFCURVE",
"376 530 CURVE SMOOTH",
"203 530 OFFCURVE",
"70 435 OFFCURVE",
"33 259 CURVE SMOOTH",
"-7 72 OFFCURVE",
"87 -10 OFFCURVE",
"262 -10 CURVE SMOOTH"
);
},
{
closed = 1;
nodes = (
"302 371 OFFCURVE",
"320 390 OFFCURVE",
"346 390 CURVE SMOOTH",
"372 390 OFFCURVE",
"382 371 OFFCURVE",
"372 326 CURVE",
"292 326 LINE"
);
}
);
width = 623;
}
);
leftKerningGroup = o;
rightKerningGroup = e;
unicode = 0065;
userData = {
com.typemytype.robofont.guides = (
{
angle = 0;
isGlobal = 0;
magnetic = 5;
x = 0;
y = "-10";
},
{
angle = 90;
isGlobal = 0;
magnetic = 5;
x = 275;
y = 0;
},
{
angle = 90;
isGlobal = 0;
magnetic = 5;
x = 496;
y = 0;
},
{
angle = 90;
isGlobal = 0;
magnetic = 5;
x = 61;
y = 0;
},
{
angle = 90;
isGlobal = 0;
magnetic = 5;
x = 122;
y = 0;
},
{
angle = 90;
isGlobal = 0;
magnetic = 5;
x = 430;
y = 0;
}
);
};
},
{
glyphname = eogonek;
lastChange = "2015-11-17 17:19:16 +0000";
layers = (
{
guideLines = (
{
position = "{-230, 259}";
},
{
position = "{-230, -220}";
},
{
angle = 90;
position = "{109, 0}";
}
);
hints = (
{
horizontal = 1;
place = "{90.000000, 0.000000}";
type = Tag;
name = hr00;
}
);
layerId = "581BC726-83A6-4935-8633-5A6508251040";
name = "Light Italic";
paths = (
{
closed = 1;
nodes = (
"248 -220 LINE SMOOTH",
"261 -220 OFFCURVE",
"272 -211 OFFCURVE",
"275 -198 CURVE SMOOTH",
"278 -185 LINE SMOOTH",
"280 -172 OFFCURVE",
"273 -163 OFFCURVE",
"260 -163 CURVE SMOOTH",
"245 -163 LINE SMOOTH",
"201 -163 OFFCURVE",
"176 -133 OFFCURVE",
"187 -82 CURVE SMOOTH",
"197 -35 OFFCURVE",
"227 -14 OFFCURVE",
"269 -6 CURVE SMOOTH",
"371 14 OFFCURVE",
"445 77 OFFCURVE",
"455 111 CURVE SMOOTH",
"458 123 OFFCURVE",
"450 131 OFFCURVE",
"438 131 CURVE SMOOTH",
"422 131 LINE SMOOTH",
"407 131 OFFCURVE",
"404 130 OFFCURVE",
"388 113 CURVE SMOOTH",
"374 97 OFFCURVE",
"320 48 OFFCURVE",
"235 48 CURVE SMOOTH",
"138 48 OFFCURVE",
"99 134 OFFCURVE",
"115 225 CURVE SMOOTH",
"117 235 LINE",
"473 235 LINE SMOOTH",
"486 235 OFFCURVE",
"498 244 OFFCURVE",
"501 257 CURVE SMOOTH",
"504 272 LINE SMOOTH",
"538 432 OFFCURVE",
"477 530 OFFCURVE",
"338 530 CURVE SMOOTH",
"208 530 OFFCURVE",
"109 436 OFFCURVE",
"70 300 CURVE SMOOTH",
"65 280 OFFCURVE",
"56 240 OFFCURVE",
"53 220 CURVE SMOOTH",
"37 106 OFFCURVE",
"75 23 OFFCURVE",
"163 -2 CURVE",
"145 -23 OFFCURVE",
"133 -51 OFFCURVE",
"127 -82 CURVE SMOOTH",
"109 -167 OFFCURVE",
"148 -220 OFFCURVE",
"229 -220 CURVE SMOOTH"
);
},
{
closed = 1;
nodes = (
"130 295 LINE SMOOTH",
"151 395 OFFCURVE",
"225 472 OFFCURVE",
"325 472 CURVE SMOOTH",
"425 472 OFFCURVE",
"469 395 OFFCURVE",
"448 295 CURVE SMOOTH",
"447 291 LINE",
"129 291 LINE"
);
}
);
width = 547;
},
{
hints = (
{
horizontal = 1;
place = "{9223372036854775808.000000, 0.000000}";
type = Tag;
name = hr01;
},
{
horizontal = 1;
place = "{9223372036854775808.000000, 0.000000}";
type = Tag;
name = hr02;
},
{
horizontal = 1;
place = "{9223372036854775808.000000, 0.000000}";
type = Tag;
name = hr03;
}
);
layerId = "EC64484B-0978-4CB1-9EE9-C40A2D8C4059";
name = "Bold Italic";
paths = (
{
closed = 1;
nodes = (
"285 -220 LINE",
"300 -220 OFFCURVE",
"315 -208 OFFCURVE",
"318 -193 CURVE",
"332 -125 LINE",
"336 -110 OFFCURVE",
"326 -98 OFFCURVE",
"311 -98 CURVE",
"301 -98 LINE",
"262 -98 OFFCURVE",
"257 -70 OFFCURVE",
"262 -49 CURVE SMOOTH",
"266 -28 OFFCURVE",
"285 -12 OFFCURVE",
"329 -5 CURVE",
"472 15 OFFCURVE",
"553 100 OFFCURVE",
"566 145 CURVE SMOOTH",
"570 158 OFFCURVE",
"561 167 OFFCURVE",
"548 167 CURVE",
"359 167 LINE",
"343 167 OFFCURVE",
"338 165 OFFCURVE",
"324 153 CURVE SMOOTH",
"310 142 OFFCURVE",
"303 135 OFFCURVE",
"291 135 CURVE SMOOTH",
"262 135 OFFCURVE",
"256 156 OFFCURVE",
"265 196 CURVE",
"266 201 LINE",
"564 201 LINE",
"579 201 OFFCURVE",
"593 213 OFFCURVE",
"596 228 CURVE",
"603 258 LINE",
"634 405 OFFCURVE",
"572 530 OFFCURVE",
"376 530 CURVE SMOOTH",
"203 530 OFFCURVE",
"70 435 OFFCURVE",
"33 259 CURVE SMOOTH",
"3 116 OFFCURVE",
"50 34 OFFCURVE",
"153 3 CURVE",
"145 -13 OFFCURVE",
"140 -30 OFFCURVE",
"136 -49 CURVE SMOOTH",
"115 -144 OFFCURVE",
"150 -220 OFFCURVE",
"271 -220 CURVE"
);
},
{
closed = 1;
nodes = (
"302 371 OFFCURVE",
"320 390 OFFCURVE",
"346 390 CURVE SMOOTH",
"372 390 OFFCURVE",
"382 371 OFFCURVE",
"372 326 CURVE",
"292 326 LINE"
);
}
);
width = 623;
}
);
leftKerningGroup = o;
rightKerningGroup = e;
unicode = 0119;
userData = {
com.typemytype.robofont.guides = (
{
angle = 0;
isGlobal = 0;
magnetic = 5;
x = 0;
y = 259;
},
{
angle = 0;
isGlobal = 0;
magnetic = 5;
x = 0;
y = "-220";
},
{
angle = 90;
isGlobal = 0;
magnetic = 5;
x = 339;
y = 0;
}
);
};
},
{
glyphname = f;
lastChange = "2015-11-17 17:19:16 +0000";
layers = (
{
guideLines = (
{
position = "{-230, 345}";
},
{
position = "{-230, 9}";
},
{
position = "{-230, 740}";
},
{
angle = 90;
position = "{67, 0}";
},
{
angle = 90;
position = "{141, 0}";
}
);
hints = (
{
horizontal = 1;
place = "{494.000000, 0.000000}";
type = Tag;
name = hr01;
},
{
horizontal = 1;
place = "{-188.000000, 0.000000}";
type = Tag;
name = hr02;
}
);
layerId = "581BC726-83A6-4935-8633-5A6508251040";
name = "Light Italic";
paths = (
{
closed = 1;
nodes = (
"119 0 LINE SMOOTH",
"132 0 OFFCURVE",
"143 9 OFFCURVE",
"146 22 CURVE SMOOTH",
"239 462 LINE",
"371 462 LINE SMOOTH",
"384 462 OFFCURVE",
"395 471 OFFCURVE",
"398 484 CURVE SMOOTH",
"401 498 LINE SMOOTH",
"404 511 OFFCURVE",
"397 520 OFFCURVE",
"384 520 CURVE SMOOTH",
"252 520 LINE",
"263 572 LINE SMOOTH",
"278 643 OFFCURVE",
"305 682 OFFCURVE",
"376 682 CURVE SMOOTH",
"428 682 LINE SMOOTH",
"441 682 OFFCURVE",
"452 691 OFFCURVE",
"455 704 CURVE SMOOTH",
"458 718 LINE SMOOTH",
"460 731 OFFCURVE",
"453 740 OFFCURVE",
"440 740 CURVE SMOOTH",
"388 740 LINE SMOOTH",
"266 740 OFFCURVE",
"222 666 OFFCURVE",
"203 577 CURVE SMOOTH",
"191 520 LINE",
"102 520 LINE SMOOTH",
"89 520 OFFCURVE",
"78 511 OFFCURVE",
"75 498 CURVE SMOOTH",
"72 484 LINE SMOOTH",
"69 471 OFFCURVE",
"76 462 OFFCURVE",
"89 462 CURVE SMOOTH",
"178 462 LINE",
"85 22 LINE SMOOTH",
"82 9 OFFCURVE",
"89 0 OFFCURVE",
"102 0 CURVE SMOOTH"
);
}
);
width = 360;
},
{
guideLines = (
{
position = "{-100, 740}";
},
{
position = "{-100, 345}";
},
{
position = "{-100, 565}";
},
{
position = "{-100, 532}";
},
{
angle = 90;
position = "{391, 0}";
},
{
angle = 90;
position = "{283, 0}";
}
);
hints = (
{
horizontal = 1;
place = "{9223372036854775808.000000, 0.000000}";
type = Tag;
name = hr00;
}
);
layerId = "EC64484B-0978-4CB1-9EE9-C40A2D8C4059";
name = "Bold Italic";
paths = (
{
closed = 1;
nodes = (
"263 0 LINE SMOOTH",
"278 0 OFFCURVE",
"293 12 OFFCURVE",
"296 27 CURVE SMOOTH",
"363 345 LINE",
"477 345 LINE SMOOTH",
"492 345 OFFCURVE",
"507 357 OFFCURVE",
"510 372 CURVE SMOOTH",
"536 493 LINE SMOOTH",
"539 508 OFFCURVE",
"530 520 OFFCURVE",
"515 520 CURVE SMOOTH",
"401 520 LINE",
"403 532 LINE SMOOTH",
"408 553 OFFCURVE",
"423 565 OFFCURVE",
"453 565 CURVE SMOOTH",
"534 565 LINE SMOOTH",
"549 565 OFFCURVE",
"564 577 OFFCURVE",
"567 592 CURVE SMOOTH",
"593 713 LINE SMOOTH",
"596 728 OFFCURVE",
"586 740 OFFCURVE",
"571 740 CURVE SMOOTH",
"478 740 LINE SMOOTH",
"333 740 OFFCURVE",
"210 701 OFFCURVE",
"175 537 CURVE SMOOTH",
"172 520 LINE",
"103 520 LINE SMOOTH",
"88 520 OFFCURVE",
"73 508 OFFCURVE",
"70 493 CURVE SMOOTH",
"44 372 LINE SMOOTH",
"41 357 OFFCURVE",
"50 345 OFFCURVE",
"65 345 CURVE SMOOTH",
"134 345 LINE",
"67 27 LINE SMOOTH",
"64 12 OFFCURVE",
"73 0 OFFCURVE",
"88 0 CURVE SMOOTH"
);
}
);
width = 492;
}
);
leftKerningGroup = f;
rightKerningGroup = f;
unicode = 0066;
userData = {
com.typemytype.robofont.guides = (
{
angle = 0;
isGlobal = 0;
magnetic = 5;
x = 0;
y = 345;
},
{
angle = 0;
isGlobal = 0;
magnetic = 5;
x = 0;
y = 9;
},
{
angle = 0;
isGlobal = 0;
magnetic = 5;
x = 0;
y = 740;
},
{
angle = 90;
isGlobal = 0;
magnetic = 5;
x = 297;
y = 0;
},
{
angle = 90;
isGlobal = 0;
magnetic = 5;
x = 371;
y = 0;
}
);
};
},
{
glyphname = g;
lastChange = "2015-11-17 17:19:16 +0000";
layers = (
{
guideLines = (
{
position = "{-230, 530}";
},
{
position = "{-230, -220}";
},
{
position = "{-230, 288}";
},
{
position = "{-230, 232}";
},
{
angle = 90;
position = "{-174, 0}";
},
{
angle = 90;
position = "{40, 0}";
}
);
hints = (
{
horizontal = 1;
place = "{320.000000, 0.000000}";
type = Tag;
name = hr01;
}
);
layerId = "581BC726-83A6-4935-8633-5A6508251040";
name = "Light Italic";
paths = (
{
closed = 1;
nodes = (
"356 -220 OFFCURVE",
"424 -118 OFFCURVE",
"451 10 CURVE SMOOTH",
"555 497 LINE SMOOTH",
"557 510 OFFCURVE",
"550 520 OFFCURVE",
"537 520 CURVE SMOOTH",
"521 520 LINE SMOOTH",
"508 520 OFFCURVE",
"496 510 OFFCURVE",
"494 497 CURVE SMOOTH",
"484 451 LINE",
"460 495 OFFCURVE",
"415 530 OFFCURVE",
"333 530 CURVE SMOOTH",
"177 530 OFFCURVE",
"95 405 OFFCURVE",
"67 288 CURVE SMOOTH",
"62 268 OFFCURVE",
"59 252 OFFCURVE",
"55 232 CURVE SMOOTH",
"33 115 OFFCURVE",
"62 -10 OFFCURVE",
"218 -10 CURVE SMOOTH",
"300 -10 OFFCURVE",
"360 24 OFFCURVE",
"403 69 CURVE",
"388 0 LINE SMOOTH",
"361 -127 OFFCURVE",
"295 -162 OFFCURVE",
"186 -162 CURVE SMOOTH",
"82 -162 OFFCURVE",
"65 -103 OFFCURVE",
"61 -71 CURVE SMOOTH",
"59 -53 OFFCURVE",
"51 -50 OFFCURVE",
"41 -50 CURVE SMOOTH",
"27 -50 LINE SMOOTH",
"15 -50 OFFCURVE",
"2 -60 OFFCURVE",
"0 -73 CURVE SMOOTH",
"-6 -113 OFFCURVE",
"8 -220 OFFCURVE",
"178 -220 CURVE SMOOTH"
);
},
{
closed = 1;
nodes = (
"119 48 OFFCURVE",
"99 136 OFFCURVE",
"116 232 CURVE SMOOTH",
"120 252 OFFCURVE",
"123 268 OFFCURVE",
"128 288 CURVE SMOOTH",
"152 384 OFFCURVE",
"209 472 OFFCURVE",
"326 472 CURVE SMOOTH",
"440 472 OFFCURVE",
"464 378 OFFCURVE",
"451 296 CURVE",
"448 276 OFFCURVE",
"441 244 OFFCURVE",
"436 224 CURVE",
"414 142 OFFCURVE",
"350 48 OFFCURVE",
"236 48 CURVE SMOOTH"
);
}
);
width = 581;
},
{
guideLines = (
{
position = "{-100, 530}";
},
{
position = "{-100, -220}";
},
{
position = "{-100, 351}";
},
{
angle = 90;
position = "{281, 0}";
}
);
hints = (
{
horizontal = 1;
place = "{9223372036854775808.000000, 0.000000}";
type = Tag;
name = hr01;
},
{
horizontal = 1;
place = "{9223372036854775808.000000, 0.000000}";
type = Tag;
name = hr02;
},
{
horizontal = 1;
place = "{9223372036854775808.000000, 0.000000}";
type = Tag;
name = hr03;
}
);
layerId = "EC64484B-0978-4CB1-9EE9-C40A2D8C4059";
name = "Bold Italic";
paths = (
{
closed = 1;
nodes = (
"399 -220 OFFCURVE",
"539 -151 OFFCURVE",
"575 17 CURVE",
"675 493 LINE",
"678 508 OFFCURVE",
"669 520 OFFCURVE",
"654 520 CURVE",
"479 520 LINE",
"464 520 OFFCURVE",
"449 508 OFFCURVE",
"446 493 CURVE",
"439 462 LINE",
"416 502 OFFCURVE",
"371 530 OFFCURVE",
"306 530 CURVE SMOOTH",
"180 530 OFFCURVE",
"86 457 OFFCURVE",
"45 300 CURVE",
"40 280 OFFCURVE",
"37 269 OFFCURVE",
"34 249 CURVE",
"7 82 OFFCURVE",
"72 23 OFFCURVE",
"198 23 CURVE SMOOTH",
"256 23 OFFCURVE",
"303 39 OFFCURVE",
"340 66 CURVE",
"326 0 LINE",
"317 -40 OFFCURVE",
"299 -59 OFFCURVE",
"270 -59 CURVE SMOOTH",
"246 -59 OFFCURVE",
"239 -51 OFFCURVE",
"234 -34 CURVE SMOOTH",
"230 -22 OFFCURVE",
"225 -14 OFFCURVE",
"210 -14 CURVE",
"15 -14 LINE",
"0 -14 OFFCURVE",
"-16 -26 OFFCURVE",
"-18 -41 CURVE SMOOTH",
"-24 -84 OFFCURVE",
"15 -220 OFFCURVE",
"241 -220 CURVE SMOOTH"
);
},
{
closed = 1;
nodes = (
"281 197 OFFCURVE",
"276 219 OFFCURVE",
"280 255 CURVE SMOOTH",
"281 265 OFFCURVE",
"285 283 OFFCURVE",
"288 293 CURVE",
"299 329 OFFCURVE",
"314 351 OFFCURVE",
"351 351 CURVE SMOOTH",
"385 351 OFFCURVE",
"394 333 OFFCURVE",
"390 301 CURVE SMOOTH",
"389 291 OFFCURVE",
"382 257 OFFCURVE",
"379 247 CURVE SMOOTH",
"369 215 OFFCURVE",
"352 197 OFFCURVE",
"318 197 CURVE SMOOTH"
);
}
);
width = 666;
}
);
leftKerningGroup = g;
rightKerningGroup = u;
unicode = 0067;
userData = {
com.typemytype.robofont.guides = (
{
angle = 0;
isGlobal = 0;
magnetic = 5;
x = 0;
y = 530;
},
{
angle = 0;
isGlobal = 0;
magnetic = 5;
x = 0;
y = "-220";
},
{
angle = 0;
isGlobal = 0;
magnetic = 5;
x = 0;
y = 288;
},
{
angle = 0;
isGlobal = 0;
magnetic = 5;
x = 0;
y = 232;
},
{
angle = 90;
isGlobal = 0;
magnetic = 5;
x = 56;
y = 0;
},
{
angle = 90;
isGlobal = 0;
magnetic = 5;
x = 270;
y = 0;
}
);
};
},
{
glyphname = h;
lastChange = "2015-11-17 17:19:16 +0000";
layers = (
{
guideLines = (
{
position = "{-230, 9}";
},
{
position = "{-230, 301}";
},
{
position = "{-230, 414}";
},
{
position = "{-230, 710}";
},
{
angle = 90;
position = "{-151, 0}";
},
{
angle = 90;
position = "{61, 0}";
}
);
hints = (
{
horizontal = 1;
place = "{478.000000, 0.000000}";
type = Tag;
name = hr00;
}
);
layerId = "581BC726-83A6-4935-8633-5A6508251040";
name = "Light Italic";
paths = (
{
closed = 1;
nodes = (
"71 0 LINE SMOOTH",
"84 0 OFFCURVE",
"95 9 OFFCURVE",
"98 22 CURVE SMOOTH",
"157 301 LINE SMOOTH",
"180 408 OFFCURVE",
"256 472 OFFCURVE",
"351 472 CURVE SMOOTH",
"451 472 OFFCURVE",
"491 407 OFFCURVE",
"468 301 CURVE SMOOTH",
"409 22 LINE SMOOTH",
"406 9 OFFCURVE",
"413 0 OFFCURVE",
"426 0 CURVE SMOOTH",
"443 0 LINE SMOOTH",
"456 0 OFFCURVE",
"467 9 OFFCURVE",
"470 22 CURVE SMOOTH",
"530 306 LINE SMOOTH",
"557 433 OFFCURVE",
"510 530 OFFCURVE",
"374 530 CURVE SMOOTH",
"288 530 OFFCURVE",
"235 498 OFFCURVE",
"189 451 CURVE",
"239 688 LINE SMOOTH",
"242 701 OFFCURVE",
"235 710 OFFCURVE",
"222 710 CURVE SMOOTH",
"205 710 LINE SMOOTH",
"192 710 OFFCURVE",
"181 701 OFFCURVE",
"178 688 CURVE SMOOTH",
"37 22 LINE SMOOTH",
"34 9 OFFCURVE",
"41 0 OFFCURVE",
"54 0 CURVE SMOOTH"
);
}
);
width = 591;
},
{
guideLines = (
{
position = "{-100, 296}";
},
{
angle = 90;
position = "{351, 0}";
}
);
hints = (
{
horizontal = 1;
place = "{9223372036854775808.000000, 0.000000}";
type = Tag;
name = hr00;
}
);
layerId = "EC64484B-0978-4CB1-9EE9-C40A2D8C4059";
name = "Bold Italic";
paths = (
{
closed = 1;
nodes = (
"217 0 LINE SMOOTH",
"232 0 OFFCURVE",
"247 12 OFFCURVE",
"250 27 CURVE SMOOTH",
"307 296 LINE SMOOTH",
"315 332 OFFCURVE",
"338 351 OFFCURVE",
"370 351 CURVE SMOOTH",
"402 351 OFFCURVE",
"416 332 OFFCURVE",
"408 296 CURVE SMOOTH",
"351 27 LINE SMOOTH",
"348 12 OFFCURVE",
"357 0 OFFCURVE",
"372 0 CURVE SMOOTH",
"568 0 LINE SMOOTH",
"583 0 OFFCURVE",
"598 12 OFFCURVE",
"601 27 CURVE SMOOTH",
"659 303 LINE SMOOTH",
"693 461 OFFCURVE",
"610 530 OFFCURVE",
"509 530 CURVE SMOOTH",
"447 530 OFFCURVE",
"387 506 OFFCURVE",
"343 468 CURVE",
"389 683 LINE SMOOTH",
"392 698 OFFCURVE",
"383 710 OFFCURVE",
"368 710 CURVE SMOOTH",
"173 710 LINE SMOOTH",
"158 710 OFFCURVE",
"143 698 OFFCURVE",
"140 683 CURVE SMOOTH",
"1 27 LINE SMOOTH",
"-2 12 OFFCURVE",
"7 0 OFFCURVE",
"22 0 CURVE SMOOTH"
);
}
);
width = 685;
}
);
leftKerningGroup = h;
rightKerningGroup = n;
unicode = 0068;
userData = {
com.typemytype.robofont.guides = (
{
angle = 0;
isGlobal = 0;
magnetic = 5;
x = 0;
y = 9;
},
{
angle = 0;
isGlobal = 0;
magnetic = 5;
x = 0;
y = 301;
},
{
angle = 0;
isGlobal = 0;
magnetic = 5;
x = 0;
y = 414;
},
{
angle = 0;
isGlobal = 0;
magnetic = 5;
x = 0;
y = 710;
},
{
angle = 90;
isGlobal = 0;
magnetic = 5;
x = 79;
y = 0;
},
{
angle = 90;
isGlobal = 0;
magnetic = 5;
x = 291;
y = 0;
}
);
};
},
{
glyphname = hbar;
lastChange = "2015-11-17 17:19:16 +0000";
layers = (
{
guideLines = (
{
angle = 90;
position = "{-41, 0}";
},
{
angle = 90;
position = "{-120, 0}";
}
);
hints = (
{
horizontal = 1;
place = "{478.000000, 0.000000}";
type = Tag;
name = hr00;
}
);
layerId = "581BC726-83A6-4935-8633-5A6508251040";
name = "Light Italic";
paths = (
{
closed = 1;
nodes = (
"70 0 LINE",
"83 0 OFFCURVE",
"94 9 OFFCURVE",
"97 22 CURVE",
"156 301 LINE",
"179 408 OFFCURVE",
"255 472 OFFCURVE",
"350 472 CURVE SMOOTH",
"450 472 OFFCURVE",
"490 407 OFFCURVE",
"467 301 CURVE",
"408 22 LINE",
"405 9 OFFCURVE",
"412 0 OFFCURVE",
"425 0 CURVE",
"442 0 LINE",
"455 0 OFFCURVE",
"466 9 OFFCURVE",
"469 22 CURVE",
"529 306 LINE",
"556 433 OFFCURVE",
"509 530 OFFCURVE",
"373 530 CURVE SMOOTH",
"287 530 OFFCURVE",
"234 498 OFFCURVE",
"188 451 CURVE",
"213 571 LINE",
"271 571 LINE",
"284 571 OFFCURVE",
"295 580 OFFCURVE",
"298 593 CURVE",
"301 607 LINE",
"304 620 OFFCURVE",
"297 629 OFFCURVE",
"284 629 CURVE",
"226 629 LINE",
"238 688 LINE",
"241 701 OFFCURVE",
"234 710 OFFCURVE",
"221 710 CURVE",
"204 710 LINE",
"191 710 OFFCURVE",
"180 701 OFFCURVE",
"177 688 CURVE",
"165 629 LINE",
"107 629 LINE",
"94 629 OFFCURVE",
"83 620 OFFCURVE",
"80 607 CURVE",
"77 593 LINE",
"74 580 OFFCURVE",
"81 571 OFFCURVE",
"94 571 CURVE",
"152 571 LINE",
"36 22 LINE",
"33 9 OFFCURVE",
"40 0 OFFCURVE",
"53 0 CURVE"
);
}
);
width = 590;
},
{
hints = (
{
horizontal = 1;
place = "{9223372036854775808.000000, 0.000000}";
type = Tag;
name = hr01;
}
);
layerId = "EC64484B-0978-4CB1-9EE9-C40A2D8C4059";
name = "Bold Italic";
paths = (
{
closed = 1;
nodes = (
"218 0 LINE SMOOTH",
"233 0 OFFCURVE",
"248 12 OFFCURVE",
"251 27 CURVE SMOOTH",
"308 296 LINE SMOOTH",
"316 332 OFFCURVE",
"339 351 OFFCURVE",
"371 351 CURVE SMOOTH",
"403 351 OFFCURVE",
"417 332 OFFCURVE",
"409 296 CURVE SMOOTH",
"352 28 LINE SMOOTH",
"349 13 OFFCURVE",
"358 1 OFFCURVE",
"373 1 CURVE SMOOTH",
"569 1 LINE SMOOTH",
"584 1 OFFCURVE",
"599 13 OFFCURVE",
"602 28 CURVE SMOOTH",
"660 303 LINE SMOOTH",
"694 461 OFFCURVE",
"611 530 OFFCURVE",
"510 530 CURVE SMOOTH",
"448 530 OFFCURVE",
"388 506 OFFCURVE",
"344 468 CURVE",
"359 538 LINE",
"383 538 LINE SMOOTH",
"398 538 OFFCURVE",
"413 550 OFFCURVE",
"416 565 CURVE SMOOTH",
"427 616 LINE SMOOTH",
"430 631 OFFCURVE",
"421 643 OFFCURVE",
"406 643 CURVE SMOOTH",
"382 643 LINE",
"390 683 LINE SMOOTH",
"393 698 OFFCURVE",
"384 710 OFFCURVE",
"369 710 CURVE SMOOTH",
"174 710 LINE SMOOTH",
"159 710 OFFCURVE",
"144 698 OFFCURVE",
"141 683 CURVE SMOOTH",
"133 643 LINE",
"107 643 LINE SMOOTH",
"92 643 OFFCURVE",
"77 631 OFFCURVE",
"74 616 CURVE SMOOTH",
"63 565 LINE SMOOTH",
"60 550 OFFCURVE",
"69 538 OFFCURVE",
"84 538 CURVE SMOOTH",
"110 538 LINE",
"2 27 LINE SMOOTH",
"-1 12 OFFCURVE",
"8 0 OFFCURVE",
"23 0 CURVE SMOOTH"
);
}
);
width = 686;
}
);
leftKerningGroup = h;
rightKerningGroup = n;
unicode = 0127;
userData = {
com.typemytype.robofont.guides = (
{
angle = 90;
isGlobal = 0;
magnetic = 5;
x = 189;
y = 0;
},
{
angle = 90;
isGlobal = 0;
magnetic = 5;
x = 110;
y = 0;
}
);
};
},
{
glyphname = i;
lastChange = "2015-11-17 17:19:16 +0000";
layers = (
{
guideLines = (
{
position = "{-230, 510}";
},
{
position = "{-230, 22}";
},
{
position = "{-230, 627}";
},
{
angle = 90;
position = "{-151, 0}";
},
{
angle = 90;
position = "{-109, 0}";
},
{
angle = 90;
position = "{-160, 0}";
},
{
angle = 90;
position = "{-99, 0}";
}
);
hints = (
{
horizontal = 1;
place = "{477.000000, 0.000000}";
type = Tag;
name = hr00;
}
);
layerId = "581BC726-83A6-4935-8633-5A6508251040";
name = "Light Italic";
paths = (
{
closed = 1;
nodes = (
"70 0 LINE SMOOTH",
"83 0 OFFCURVE",
"94 9 OFFCURVE",
"97 22 CURVE SMOOTH",
"198 498 LINE SMOOTH",
"201 511 OFFCURVE",
"194 520 OFFCURVE",
"181 520 CURVE SMOOTH",
"164 520 LINE SMOOTH",
"151 520 OFFCURVE",
"140 511 OFFCURVE",
"137 498 CURVE SMOOTH",
"36 22 LINE SMOOTH",
"33 9 OFFCURVE",
"40 0 OFFCURVE",
"53 0 CURVE SMOOTH"
);
},
{
closed = 1;
nodes = (
"213 627 LINE SMOOTH",
"226 627 OFFCURVE",
"238 636 OFFCURVE",
"241 649 CURVE SMOOTH",
"249 687 LINE SMOOTH",
"252 700 OFFCURVE",
"244 710 OFFCURVE",
"231 710 CURVE SMOOTH",
"193 710 LINE SMOOTH",
"180 710 OFFCURVE",
"169 700 OFFCURVE",
"166 687 CURVE SMOOTH",
"158 649 LINE SMOOTH",
"155 636 OFFCURVE",
"162 627 OFFCURVE",
"175 627 CURVE SMOOTH"
);
}
);
width = 223;
},
{
guideLines = (
{
position = "{-100, 740}";
},
{
position = "{-100, 575}";
},
{
angle = 90;
position = "{-50, 0}";
},
{
angle = 90;
position = "{183, 0}";
},
{
angle = 90;
position = "{66, 0}";
}
);
hints = (
{
horizontal = 1;
place = "{9223372036854775808.000000, 0.000000}";
type = Tag;
name = hr00;
}
);
layerId = "EC64484B-0978-4CB1-9EE9-C40A2D8C4059";
name = "Bold Italic";
paths = (
{
closed = 1;
nodes = (
"201 0 LINE SMOOTH",
"216 0 OFFCURVE",
"231 12 OFFCURVE",
"234 27 CURVE SMOOTH",
"333 493 LINE SMOOTH",
"336 508 OFFCURVE",
"327 520 OFFCURVE",
"312 520 CURVE SMOOTH",
"133 520 LINE SMOOTH",
"118 520 OFFCURVE",
"103 508 OFFCURVE",
"100 493 CURVE SMOOTH",
"1 27 LINE SMOOTH",
"-2 12 OFFCURVE",
"7 0 OFFCURVE",
"22 0 CURVE SMOOTH"
);
},
{
closed = 1;
nodes = (
"318 575 LINE SMOOTH",
"333 575 OFFCURVE",
"348 587 OFFCURVE",
"351 602 CURVE SMOOTH",
"377 723 LINE SMOOTH",
"380 738 OFFCURVE",
"370 750 OFFCURVE",
"355 750 CURVE SMOOTH",
"186 750 LINE SMOOTH",
"171 750 OFFCURVE",
"157 738 OFFCURVE",
"154 723 CURVE SMOOTH",
"128 602 LINE SMOOTH",
"125 587 OFFCURVE",
"134 575 OFFCURVE",
"149 575 CURVE SMOOTH"
);
}
);
width = 323;
}
);
leftKerningGroup = i;
rightKerningGroup = i;
unicode = 0069;
userData = {
com.typemytype.robofont.guides = (
{
angle = 0;
isGlobal = 0;
magnetic = 5;
x = 0;
y = 510;
},
{
angle = 0;
isGlobal = 0;
magnetic = 5;
x = 0;
y = 22;
},
{
angle = 0;
isGlobal = 0;
magnetic = 5;
x = 0;
y = 627;
},
{
angle = 90;
isGlobal = 0;
magnetic = 5;
x = 79;
y = 0;
},
{
angle = 90;
isGlobal = 0;
magnetic = 5;
x = 121;
y = 0;
},
{
angle = 90;
isGlobal = 0;
magnetic = 5;
x = 70;
y = 0;
},
{
angle = 90;
isGlobal = 0;
magnetic = 5;
x = 131;
y = 0;
}
);
};
},
{
glyphname = idotless;
lastChange = "2015-11-17 17:19:17 +0000";
layers = (
{
hints = (
{
horizontal = 1;
place = "{288.000000, 0.000000}";
type = Tag;
name = hr00;
}
);
layerId = "581BC726-83A6-4935-8633-5A6508251040";
name = "Light Italic";
paths = (
{
closed = 1;
nodes = (
"70 0 LINE SMOOTH",
"83 0 OFFCURVE",
"94 9 OFFCURVE",
"97 22 CURVE SMOOTH",
"198 498 LINE SMOOTH",
"201 511 OFFCURVE",
"194 520 OFFCURVE",
"181 520 CURVE SMOOTH",
"164 520 LINE SMOOTH",
"151 520 OFFCURVE",
"140 511 OFFCURVE",
"137 498 CURVE SMOOTH",
"36 22 LINE SMOOTH",
"33 9 OFFCURVE",
"40 0 OFFCURVE",
"53 0 CURVE SMOOTH"
);
}
);
width = 223;
},
{
hints = (
{
horizontal = 1;
place = "{9223372036854775808.000000, 0.000000}";
type = Tag;
name = hr00;
}
);
layerId = "EC64484B-0978-4CB1-9EE9-C40A2D8C4059";
name = "Bold Italic";
paths = (
{
closed = 1;
nodes = (
"201 0 LINE",
"216 0 OFFCURVE",
"231 12 OFFCURVE",
"234 27 CURVE SMOOTH",
"333 493 LINE SMOOTH",
"336 508 OFFCURVE",
"327 520 OFFCURVE",
"312 520 CURVE SMOOTH",
"133 520 LINE SMOOTH",
"118 520 OFFCURVE",
"103 508 OFFCURVE",
"100 493 CURVE SMOOTH",
"1 27 LINE SMOOTH",
"-2 12 OFFCURVE",
"7 0 OFFCURVE",
"22 0 CURVE SMOOTH"
);
}
);
width = 323;
}
);
leftKerningGroup = i;
rightKerningGroup = i;
unicode = 0131;
},
{
glyphname = iogonek;
lastChange = "2015-11-17 17:19:17 +0000";
layers = (
{
guideLines = (
{
position = "{-230, 22}";
},
{
angle = 90;
position = "{-99, 0}";
}
);
hints = (
{
horizontal = 1;
place = "{288.000000, 0.000000}";
type = Tag;
name = hr00;
}
);
layerId = "581BC726-83A6-4935-8633-5A6508251040";
name = "Light Italic";
paths = (
{
closed = 1;
nodes = (
"54 -220 LINE",
"67 -220 OFFCURVE",
"78 -211 OFFCURVE",
"81 -198 CURVE",
"84 -185 LINE",
"86 -172 OFFCURVE",
"79 -163 OFFCURVE",
"66 -163 CURVE",
"51 -163 LINE",
"7 -163 OFFCURVE",
"-18 -133 OFFCURVE",
"-7 -82 CURVE SMOOTH",
"3 -31 OFFCURVE",
"42 0 OFFCURVE",
"86 0 CURVE",
"91 0 LINE",
"104 0 OFFCURVE",
"115 9 OFFCURVE",
"118 22 CURVE",
"219 498 LINE",
"222 511 OFFCURVE",
"215 520 OFFCURVE",
"202 520 CURVE",
"185 520 LINE",
"172 520 OFFCURVE",
"161 511 OFFCURVE",
"158 498 CURVE",
"63 54 LINE",
"-2 42 OFFCURVE",
"-52 -8 OFFCURVE",
"-67 -82 CURVE SMOOTH",
"-85 -167 OFFCURVE",
"-46 -220 OFFCURVE",
"35 -220 CURVE"
);
},
{
closed = 1;
nodes = (
"234 627 LINE",
"247 627 OFFCURVE",
"259 636 OFFCURVE",
"262 649 CURVE",
"270 687 LINE",
"273 700 OFFCURVE",
"265 710 OFFCURVE",
"252 710 CURVE",
"214 710 LINE",
"201 710 OFFCURVE",
"190 700 OFFCURVE",
"187 687 CURVE",
"179 649 LINE",
"176 636 OFFCURVE",
"183 627 OFFCURVE",
"196 627 CURVE"
);
}
);
width = 244;
},
{
hints = (
{
horizontal = 1;
place = "{9223372036854775808.000000, 0.000000}";
type = Tag;
name = hr01;
},
{
horizontal = 1;
place = "{9223372036854775808.000000, 0.000000}";
type = Tag;
name = hr02;
}
);
layerId = "EC64484B-0978-4CB1-9EE9-C40A2D8C4059";
name = "Bold Italic";
paths = (
{
closed = 1;
nodes = (
"160 -192 LINE SMOOTH",
"175 -192 OFFCURVE",
"190 -180 OFFCURVE",
"193 -165 CURVE SMOOTH",
"205 -107 LINE SMOOTH",
"208 -92 OFFCURVE",
"199 -80 OFFCURVE",
"184 -80 CURVE",
"174 -80 LINE SMOOTH",
"135 -80 OFFCURVE",
"128 -61 OFFCURVE",
"132 -40 CURVE SMOOTH",
"137 -19 OFFCURVE",
"152 0 OFFCURVE",
"191 0 CURVE SMOOTH",
"201 0 LINE SMOOTH",
"216 0 OFFCURVE",
"231 12 OFFCURVE",
"234 27 CURVE SMOOTH",
"333 493 LINE SMOOTH",
"336 508 OFFCURVE",
"327 520 OFFCURVE",
"312 520 CURVE SMOOTH",
"133 520 LINE SMOOTH",
"118 520 OFFCURVE",
"103 508 OFFCURVE",
"100 493 CURVE SMOOTH",
"1 27 LINE SMOOTH",
"-2 12 OFFCURVE",
"7 0 OFFCURVE",
"22 0 CURVE SMOOTH",
"29 0 LINE",
"23 -12 OFFCURVE",
"19 -26 OFFCURVE",
"16 -40 CURVE SMOOTH",
"-2 -125 OFFCURVE",
"35 -192 OFFCURVE",
"146 -192 CURVE SMOOTH"
);
},
{
closed = 1;
nodes = (
"318 575 LINE SMOOTH",
"333 575 OFFCURVE",
"348 587 OFFCURVE",
"351 602 CURVE SMOOTH",
"377 723 LINE SMOOTH",
"380 738 OFFCURVE",
"370 750 OFFCURVE",
"355 750 CURVE SMOOTH",
"186 750 LINE SMOOTH",
"171 750 OFFCURVE",
"157 738 OFFCURVE",
"154 723 CURVE SMOOTH",
"128 602 LINE SMOOTH",
"125 587 OFFCURVE",
"134 575 OFFCURVE",
"149 575 CURVE SMOOTH"
);
}
);
width = 323;
}
);
leftKerningGroup = i;
rightKerningGroup = i;
unicode = 012F;
userData = {
com.typemytype.robofont.guides = (
{
angle = 0;
isGlobal = 0;
magnetic = 5;
x = 0;
y = 22;
},
{
angle = 90;
isGlobal = 0;
magnetic = 5;
x = 131;
y = 0;
}
);
};
},
{
glyphname = j;
lastChange = "2015-11-17 17:19:17 +0000";
layers = (
{
guideLines = (
{
position = "{-230, 740}";
},
{
position = "{-230, -190}";
},
{
angle = 90;
position = "{-276, 0}";
}
);
hints = (
{
horizontal = 1;
place = "{-232.000000, 0.000000}";
type = Tag;
name = hr00;
}
);
layerId = "581BC726-83A6-4935-8633-5A6508251040";
name = "Light Italic";
paths = (
{
closed = 1;
nodes = (
"-90 -190 LINE SMOOTH",
"32 -190 OFFCURVE",
"76 -116 OFFCURVE",
"96 -22 CURVE SMOOTH",
"207 498 LINE SMOOTH",
"210 511 OFFCURVE",
"203 520 OFFCURVE",
"190 520 CURVE SMOOTH",
"173 520 LINE SMOOTH",
"160 520 OFFCURVE",
"149 511 OFFCURVE",
"146 498 CURVE SMOOTH",
"35 -22 LINE SMOOTH",
"22 -83 OFFCURVE",
"3 -132 OFFCURVE",
"-78 -132 CURVE SMOOTH",
"-82 -132 LINE SMOOTH",
"-95 -132 OFFCURVE",
"-106 -141 OFFCURVE",
"-109 -154 CURVE SMOOTH",
"-112 -168 LINE SMOOTH",
"-114 -181 OFFCURVE",
"-107 -190 OFFCURVE",
"-94 -190 CURVE SMOOTH"
);
},
{
closed = 1;
nodes = (
"222 627 LINE SMOOTH",
"235 627 OFFCURVE",
"247 636 OFFCURVE",
"250 649 CURVE SMOOTH",
"258 687 LINE SMOOTH",
"261 700 OFFCURVE",
"253 710 OFFCURVE",
"240 710 CURVE SMOOTH",
"202 710 LINE SMOOTH",
"189 710 OFFCURVE",
"178 700 OFFCURVE",
"175 687 CURVE SMOOTH",
"167 649 LINE SMOOTH",
"164 636 OFFCURVE",
"171 627 OFFCURVE",
"184 627 CURVE SMOOTH"
);
}
);
width = 233;
},
{
guideLines = (
{
position = "{-100, 740}";
},
{
position = "{-100, 560}";
},
{
position = "{-100, -190}";
},
{
position = "{-100, 35}";
},
{
angle = 90;
position = "{89, 0}";
},
{
angle = 90;
position = "{-32, 0}";
},
{
angle = 90;
position = "{210, 0}";
}
);
hints = (
{
horizontal = 1;
place = "{9223372036854775808.000000, 0.000000}";
type = Tag;
name = hr00;
}
);
layerId = "EC64484B-0978-4CB1-9EE9-C40A2D8C4059";
name = "Bold Italic";
paths = (
{
closed = 1;
nodes = (
"-45 -190 LINE SMOOTH",
"100 -190 OFFCURVE",
"224 -121 OFFCURVE",
"256 29 CURVE SMOOTH",
"355 493 LINE SMOOTH",
"358 508 OFFCURVE",
"349 520 OFFCURVE",
"334 520 CURVE SMOOTH",
"146 520 LINE SMOOTH",
"131 520 OFFCURVE",
"116 508 OFFCURVE",
"113 493 CURVE SMOOTH",
"15 35 LINE SMOOTH",
"9 4 OFFCURVE",
"-8 -15 OFFCURVE",
"-38 -15 CURVE SMOOTH",
"-96 -15 LINE SMOOTH",
"-111 -15 OFFCURVE",
"-126 -27 OFFCURVE",
"-129 -42 CURVE SMOOTH",
"-155 -163 LINE SMOOTH",
"-158 -178 OFFCURVE",
"-148 -190 OFFCURVE",
"-133 -190 CURVE SMOOTH"
);
},
{
closed = 1;
nodes = (
"340 575 LINE SMOOTH",
"355 575 OFFCURVE",
"370 587 OFFCURVE",
"373 602 CURVE SMOOTH",
"399 723 LINE SMOOTH",
"402 738 OFFCURVE",
"392 750 OFFCURVE",
"377 750 CURVE SMOOTH",
"199 750 LINE SMOOTH",
"184 750 OFFCURVE",
"170 738 OFFCURVE",
"167 723 CURVE SMOOTH",
"141 602 LINE SMOOTH",
"138 587 OFFCURVE",
"147 575 OFFCURVE",
"162 575 CURVE SMOOTH"
);
}
);
width = 345;
}
);
rightKerningGroup = i;
unicode = 006A;
userData = {
com.typemytype.robofont.guides = (
{
angle = 0;
isGlobal = 0;
magnetic = 5;
x = 0;
y = 740;
},
{
angle = 0;
isGlobal = 0;
magnetic = 5;
x = 0;
y = "-190";
},
{
angle = 90;
isGlobal = 0;
magnetic = 5;
x = "-46";
y = 0;
}
);
};
},
{
glyphname = jdotless;
lastChange = "2015-11-17 17:19:16 +0000";
layers = (
{
guideLines = (
{
position = "{-230, -190}";
},
{
angle = 90;
position = "{-185, 0}";
}
);
hints = (
{
horizontal = 1;
place = "{-364.000000, 0.000000}";
type = Tag;
name = hr01;
},
{
horizontal = 1;
place = "{252.000000, 0.000000}";
type = Tag;
name = hr02;
}
);
layerId = "581BC726-83A6-4935-8633-5A6508251040";
name = "Light Italic";
paths = (
{
closed = 1;
nodes = (
"-54 -190 LINE SMOOTH",
"68 -190 OFFCURVE",
"112 -116 OFFCURVE",
"132 -22 CURVE SMOOTH",
"243 498 LINE SMOOTH",
"246 511 OFFCURVE",
"239 520 OFFCURVE",
"226 520 CURVE SMOOTH",
"103 520 LINE SMOOTH",
"90 520 OFFCURVE",
"79 511 OFFCURVE",
"76 498 CURVE SMOOTH",
"73 484 LINE SMOOTH",
"70 471 OFFCURVE",
"77 462 OFFCURVE",
"90 462 CURVE SMOOTH",
"174 462 LINE",
"71 -22 LINE SMOOTH",
"58 -83 OFFCURVE",
"39 -132 OFFCURVE",
"-42 -132 CURVE SMOOTH",
"-46 -132 LINE SMOOTH",
"-59 -132 OFFCURVE",
"-70 -141 OFFCURVE",
"-73 -154 CURVE SMOOTH",
"-76 -168 LINE SMOOTH",
"-78 -181 OFFCURVE",
"-71 -190 OFFCURVE",
"-58 -190 CURVE SMOOTH"
);
}
);
width = 269;
},
{
guideLines = (
{
angle = 90;
position = "{-75, 0}";
}
);
hints = (
{
horizontal = 1;
place = "{9223372036854775808.000000, 0.000000}";
type = Tag;
name = hr00;
}
);
layerId = "EC64484B-0978-4CB1-9EE9-C40A2D8C4059";
name = "Bold Italic";
paths = (
{
closed = 1;
nodes = (
"92 -190 LINE",
"237 -190 OFFCURVE",
"367 -94 OFFCURVE",
"402 70 CURVE SMOOTH",
"492 493 LINE SMOOTH",
"495 508 OFFCURVE",
"486 520 OFFCURVE",
"471 520 CURVE SMOOTH",
"113 520 LINE SMOOTH",
"98 520 OFFCURVE",
"83 508 OFFCURVE",
"80 493 CURVE SMOOTH",
"52 364 LINE SMOOTH",
"49 349 OFFCURVE",
"59 337 OFFCURVE",
"74 337 CURVE SMOOTH",
"215 337 LINE",
"158 70 LINE SMOOTH",
"151 39 OFFCURVE",
"134 20 OFFCURVE",
"104 20 CURVE SMOOTH",
"3 20 LINE SMOOTH",
"-12 20 OFFCURVE",
"-26 8 OFFCURVE",
"-29 -7 CURVE SMOOTH",
"-63 -163 LINE SMOOTH",
"-66 -178 OFFCURVE",
"-56 -190 OFFCURVE",
"-41 -190 CURVE SMOOTH"
);
}
);
width = 482;
}
);
leftKerningGroup = dotlessj;
rightKerningGroup = i;
unicode = 0237;
userData = {
com.typemytype.robofont.guides = (
{
angle = 0;
isGlobal = 0;
magnetic = 5;
x = 0;
y = "-190";
},
{
angle = 90;
isGlobal = 0;
magnetic = 5;
x = 45;
y = 0;
}
);
};
},
{
glyphname = k;
lastChange = "2015-11-17 17:19:16 +0000";
layers = (
{
guideLines = (
{
position = "{-230, 520}";
},
{
position = "{-230, 710}";
},
{
position = "{-230, 260}";
},
{
angle = 90;
position = "{230, 0}";
},
{
angle = 90;
position = "{200, 0}";
}
);
hints = (
{
horizontal = 1;
place = "{270.000000, 0.000000}";
type = Tag;
name = hr00;
}
);
layerId = "581BC726-83A6-4935-8633-5A6508251040";
name = "Light Italic";
paths = (
{
closed = 1;
nodes = (
"71 0 LINE SMOOTH",
"84 0 OFFCURVE",
"95 9 OFFCURVE",
"98 22 CURVE SMOOTH",
"144 240 LINE",
"348 17 LINE SMOOTH",
"362 1 OFFCURVE",
"366 0 OFFCURVE",
"386 0 CURVE SMOOTH",
"402 0 LINE SMOOTH",
"414 0 OFFCURVE",
"424 8 OFFCURVE",
"426 20 CURVE SMOOTH",
"427 25 OFFCURVE",
"425 32 OFFCURVE",
"418 40 CURVE SMOOTH",
"192 288 LINE",
"486 480 LINE SMOOTH",
"498 487 OFFCURVE",
"502 495 OFFCURVE",
"503 500 CURVE SMOOTH",
"506 512 OFFCURVE",
"500 520 OFFCURVE",
"488 520 CURVE SMOOTH",
"469 520 LINE SMOOTH",
"449 520 OFFCURVE",
"445 517 OFFCURVE",
"423 503 CURVE SMOOTH",
"164 334 LINE",
"239 688 LINE SMOOTH",
"242 701 OFFCURVE",
"235 710 OFFCURVE",
"222 710 CURVE SMOOTH",
"205 710 LINE SMOOTH",
"192 710 OFFCURVE",
"181 701 OFFCURVE",
"178 688 CURVE SMOOTH",
"37 22 LINE SMOOTH",
"34 9 OFFCURVE",
"41 0 OFFCURVE",
"54 0 CURVE SMOOTH"
);
}
);
width = 487;
},
{
guideLines = (
{
position = "{-100, 286}";
},
{
angle = 90;
position = "{546, 0}";
}
);
hints = (
{
horizontal = 1;
place = "{9223372036854775808.000000, 0.000000}";
type = Tag;
name = hr00;
}
);
layerId = "EC64484B-0978-4CB1-9EE9-C40A2D8C4059";
name = "Bold Italic";
paths = (
{
closed = 1;
nodes = (
"197 0 LINE SMOOTH",
"212 0 OFFCURVE",
"227 12 OFFCURVE",
"230 27 CURVE SMOOTH",
"264 187 LINE",
"330 17 LINE SMOOTH",
"331 14 OFFCURVE",
"337 0 OFFCURVE",
"357 0 CURVE SMOOTH",
"567 0 LINE SMOOTH",
"580 0 OFFCURVE",
"593 11 OFFCURVE",
"596 24 CURVE SMOOTH",
"597 30 OFFCURVE",
"596 34 OFFCURVE",
"595 37 CURVE SMOOTH",
"486 286 LINE",
"664 481 LINE SMOOTH",
"667 484 OFFCURVE",
"671 490 OFFCURVE",
"672 496 CURVE SMOOTH",
"675 509 OFFCURVE",
"667 520 OFFCURVE",
"654 520 CURVE SMOOTH",
"452 520 LINE SMOOTH",
"434 520 OFFCURVE",
"423 508 OFFCURVE",
"419 503 CURVE SMOOTH",
"300 359 LINE",
"369 683 LINE SMOOTH",
"372 698 OFFCURVE",
"363 710 OFFCURVE",
"348 710 CURVE SMOOTH",
"173 710 LINE SMOOTH",
"158 710 OFFCURVE",
"143 698 OFFCURVE",
"140 683 CURVE SMOOTH",
"1 27 LINE SMOOTH",
"-2 12 OFFCURVE",
"7 0 OFFCURVE",
"22 0 CURVE SMOOTH"
);
}
);
width = 643;
}
);
leftKerningGroup = h;
rightKerningGroup = k;
unicode = 006B;
userData = {
com.typemytype.robofont.guides = (
{
angle = 0;
isGlobal = 0;
magnetic = 5;
x = 0;
y = 520;
},
{
angle = 0;
isGlobal = 0;
magnetic = 5;
x = 0;
y = 710;
},
{
angle = 0;
isGlobal = 0;
magnetic = 5;
x = 0;
y = 260;
},
{
angle = 90;
isGlobal = 0;
magnetic = 5;
x = 460;
y = 0;
},
{
angle = 90;
isGlobal = 0;
magnetic = 5;
x = 430;
y = 0;
}
);
};
},
